<?xml version="1.0" encoding="UTF-8"?>
<svg width="48px" height="48px" viewBox="0 0 48 48" version="1.1" xmlns="http://www.w3.org/2000/svg" xmlns:xlink="http://www.w3.org/1999/xlink">
    <title>添加</title>
    <g id="WEB" stroke="none" stroke-width="1" fill="none" fill-rule="evenodd" opacity="0.5">
        <g id="欢迎页" transform="translate(-600.000000, -550.000000)" fill="#6E7585" fill-rule="nonzero">
            <g id="编组-2" transform="translate(560.000000, 240.000000)">
                <g id="编组-4" transform="translate(0.000000, 270.000000)">
                    <g id="编组" transform="translate(40.000000, 40.000000)">
                        <path d="M24,2 C36.1502645,2 46,11.8497355 46,24 C46,36.1502645 36.1502645,46 24,46 C11.8497355,46 2,36.1502645 2,24 C2,11.8497355 11.8497355,2 24,2 Z M24,14 C22.8954305,14 22,14.8954305 22,16 L22,16 L22,22 L16,22 C14.9456382,22 14.0818349,22.8158778 14.0054857,23.8507377 L14,24 C14,25.1045695 14.8954305,26 16,26 L16,26 L22,26 L22,32 C22,33.0543618 22.8158778,33.9181651 23.8507377,33.9945143 L24,34 C25.1045695,34 26,33.1045695 26,32 L26,32 L26,26 L32,26 C33.0543618,26 33.9181651,25.1841222 33.9945143,24.1492623 L34,24 C34,22.8954305 33.1045695,22 32,22 L32,22 L26,22 L26,16 C26,14.9456382 25.1841222,14.0818349 24.1492623,14.0054857 Z" id="形状结合备份-3"></path>
                    </g>
                </g>
            </g>
        </g>
    </g>
</svg>