<svg width="24" height="24" xmlns="http://www.w3.org/2000/svg"><g fill="none" fill-rule="evenodd"><circle cx="12" cy="12" r="12"/><path d="M11.982 2.77a1.89 1.89 0 0 1 1.218.38c1.755 1.317 3.747 1.548 5.493.85.32-.128.639-.146.906-.046.234.088.42.267.516.507l.765 10.777a1.998 1.998 0 0 1-.966 1.848l-5.856 3.513a3.997 3.997 0 0 1-4.116 0l-5.856-3.513a1.998 1.998 0 0 1-.966-1.848l.699-10.485a.954.954 0 0 1 1.018-.89c2.267.856 4.255.568 5.763-.563.443-.332.918-.513 1.382-.53z" stroke="#F04438" stroke-width="2"/><path d="M15.95 9.05a1 1 0 0 1 0 1.414l-4.243 4.243a.995.995 0 0 1-.53.277l-.118.014h-.118a.996.996 0 0 1-.648-.29l-2.829-2.83a1 1 0 0 1 1.415-1.414l2.12 2.121 3.537-3.535a1 1 0 0 1 1.414 0z" fill="#F04438"/></g></svg>