<?xml version="1.0" encoding="UTF-8"?>
<svg width="24px" height="24px" viewBox="0 0 24 24" version="1.1" xmlns="http://www.w3.org/2000/svg" xmlns:xlink="http://www.w3.org/1999/xlink">
    <title>关闭按钮</title>
    <g id="扩展程序" stroke="none" stroke-width="1" fill="none" fill-rule="evenodd">
        <g id="资产-提醒备份" transform="translate(-335.000000, -86.000000)" fill="#F04438">
            <g id="编组-2" transform="translate(0.000000, 64.000000)">
                <g id="编组" transform="translate(335.000000, 22.000000)">
                    <circle id="椭圆形" opacity="0.100000001" cx="12" cy="12" r="12"></circle>
                    <path d="M8.46446609,7.05025253 L11.9993593,10.5853593 L15.5355339,7.05025253 C15.9260582,6.65972824 16.5592232,6.65972824 16.9497475,7.05025253 C17.3402718,7.44077682 17.3402718,8.0739418 16.9497475,8.46446609 L13.4143593,11.9993593 L16.9497475,15.5355339 C17.3402718,15.9260582 17.3402718,16.5592232 16.9497475,16.9497475 C16.5592232,17.3402718 15.9260582,17.3402718 15.5355339,16.9497475 L11.9993593,13.4143593 L8.46446609,16.9497475 C8.0739418,17.3402718 7.44077682,17.3402718 7.05025253,16.9497475 C6.65972824,16.5592232 6.65972824,15.9260582 7.05025253,15.5355339 L10.5853593,11.9993593 L7.05025253,8.46446609 C6.65972824,8.0739418 6.65972824,7.44077682 7.05025253,7.05025253 C7.44077682,6.65972824 8.0739418,6.65972824 8.46446609,7.05025253 Z" id="形状结合"></path>
                </g>
            </g>
        </g>
    </g>
</svg>