<?xml version="1.0" encoding="UTF-8"?>
<svg width="240px" height="120px" viewBox="0 0 240 120" version="1.1" xmlns="http://www.w3.org/2000/svg" xmlns:xlink="http://www.w3.org/1999/xlink">
    <title>编组</title>
    <defs>
        <polygon id="path-1" points="0 40 120 40 120 0 0 5.10702591e-14"></polygon>
        <polygon id="path-3" points="0 0 120 0 120 80 0 80"></polygon>
        <linearGradient x1="100%" y1="26.2187872%" x2="33.1908384%" y2="45.6658536%" id="linearGradient-5">
            <stop stop-color="#33618E" offset="0%"></stop>
            <stop stop-color="#3D3835" offset="100%"></stop>
        </linearGradient>
        <linearGradient x1="69.7273555%" y1="29.4676991%" x2="50%" y2="50%" id="linearGradient-6">
            <stop stop-color="#FFFFFF" stop-opacity="0.9" offset="0%"></stop>
            <stop stop-color="#FFFFFF" stop-opacity="0" offset="100%"></stop>
        </linearGradient>
        <radialGradient cx="7.44159113%" cy="6.81581274%" fx="7.44159113%" fy="6.81581274%" r="100.873387%" gradientTransform="translate(0.074416,0.068158),scale(0.769231,1.000000),rotate(59.635810),translate(-0.074416,-0.068158)" id="radialGradient-7">
            <stop stop-color="#FFFFFF" stop-opacity="0.80159306" offset="0%"></stop>
            <stop stop-color="#5B72F6" stop-opacity="0.249069534" offset="100%"></stop>
        </radialGradient>
        <radialGradient cx="9.64585919%" cy="9.70003214%" fx="9.64585919%" fy="9.70003214%" r="59.8460756%" gradientTransform="translate(0.096459,0.097000),scale(0.769231,1.000000),rotate(65.032829),scale(1.000000,1.512724),translate(-0.096459,-0.097000)" id="radialGradient-8">
            <stop stop-color="#FFFFFF" stop-opacity="0.973410866" offset="0%"></stop>
            <stop stop-color="#FFFFFF" stop-opacity="0" offset="100%"></stop>
        </radialGradient>
        <circle id="path-9" cx="86" cy="26" r="12"></circle>
        <filter x="-3.1%" y="-1.0%" width="104.2%" height="104.2%" filterUnits="objectBoundingBox" id="filter-10">
            <feOffset dx="-0.5" dy="0.5" in="SourceAlpha" result="shadowOffsetOuter1"></feOffset>
            <feComposite in="shadowOffsetOuter1" in2="SourceAlpha" operator="out" result="shadowOffsetOuter1"></feComposite>
            <feColorMatrix values="0 0 0 0 0.941176471   0 0 0 0 0.611764706   0 0 0 0 0  0 0 0 0.5 0" type="matrix" in="shadowOffsetOuter1"></feColorMatrix>
        </filter>
        <filter x="-11.5%" y="-9.4%" width="120.8%" height="120.8%" filterUnits="objectBoundingBox" id="filter-11">
            <feMorphology radius="4" operator="erode" in="SourceAlpha" result="shadowSpreadInner1"></feMorphology>
            <feOffset dx="-0.5" dy="0.5" in="shadowSpreadInner1" result="shadowOffsetInner1"></feOffset>
            <feComposite in="shadowOffsetInner1" in2="SourceAlpha" operator="arithmetic" k2="-1" k3="1" result="shadowInnerInner1"></feComposite>
            <feColorMatrix values="0 0 0 0 0.980392157   0 0 0 0 0.654901961   0 0 0 0 0  0 0 0 0.5 0" type="matrix" in="shadowInnerInner1"></feColorMatrix>
        </filter>
        <linearGradient x1="50%" y1="50%" x2="0%" y2="22.5178359%" id="linearGradient-12">
            <stop stop-color="#FFB729" offset="0%"></stop>
            <stop stop-color="#5BAFF2" offset="100%"></stop>
        </linearGradient>
        <linearGradient x1="69.7273555%" y1="26.2723598%" x2="50%" y2="50%" id="linearGradient-13">
            <stop stop-color="#FFFFFF" stop-opacity="0.9" offset="0%"></stop>
            <stop stop-color="#FFFFFF" stop-opacity="0" offset="100%"></stop>
        </linearGradient>
        <linearGradient x1="100%" y1="12.4444444%" x2="33.1908384%" y2="43.1554678%" id="linearGradient-14">
            <stop stop-color="#33618E" offset="0%"></stop>
            <stop stop-color="#3D3835" offset="100%"></stop>
        </linearGradient>
        <linearGradient x1="69.7273555%" y1="17.5751623%" x2="50%" y2="50%" id="linearGradient-15">
            <stop stop-color="#FFFFFF" stop-opacity="0.9" offset="0%"></stop>
            <stop stop-color="#FFFFFF" stop-opacity="0" offset="100%"></stop>
        </linearGradient>
        <linearGradient x1="50%" y1="50%" x2="0%" y2="0%" id="linearGradient-16">
            <stop stop-color="#FFB729" offset="0%"></stop>
            <stop stop-color="#5BAFF2" offset="100%"></stop>
        </linearGradient>
        <linearGradient x1="69.7273555%" y1="6.83083736%" x2="50%" y2="50%" id="linearGradient-17">
            <stop stop-color="#FFFFFF" stop-opacity="0.9" offset="0%"></stop>
            <stop stop-color="#FFFFFF" stop-opacity="0" offset="100%"></stop>
        </linearGradient>
        <linearGradient x1="100%" y1="46.4444444%" x2="33.1908384%" y2="49.351997%" id="linearGradient-18">
            <stop stop-color="#33618E" offset="0%"></stop>
            <stop stop-color="#3D3835" offset="100%"></stop>
        </linearGradient>
        <polygon id="path-19" points="0 -4.4408921e-14 240 -2.22044605e-14 240 80 0 80"></polygon>
        <filter x="-16.7%" y="-150.0%" width="133.3%" height="400.0%" filterUnits="objectBoundingBox" id="filter-21">
            <feGaussianBlur stdDeviation="10" in="SourceGraphic"></feGaussianBlur>
        </filter>
        <linearGradient x1="100%" y1="50%" x2="0%" y2="50%" id="linearGradient-22">
            <stop stop-color="#FFFFFF" stop-opacity="0" offset="0%"></stop>
            <stop stop-color="#FFFFFF" offset="49.9416609%"></stop>
            <stop stop-color="#FFFFFF" stop-opacity="0" offset="100%"></stop>
        </linearGradient>
        <filter x="-1.2%" y="-300.0%" width="102.5%" height="700.0%" filterUnits="objectBoundingBox" id="filter-23">
            <feGaussianBlur stdDeviation="1" in="SourceGraphic"></feGaussianBlur>
        </filter>
    </defs>
    <g id="WEB" stroke="none" stroke-width="1" fill="none" fill-rule="evenodd">
        <g id="正在创建钱包" transform="translate(-840.000000, -444.000000)">
            <g id="编组" transform="translate(840.000000, 444.000000)">
                <g id="编组-6备份" transform="translate(60.000000, 80.000000)">
                    <mask id="mask-2" fill="white">
                        <use xlink:href="#path-1"></use>
                    </mask>
                    <g id="蒙版"></g>
                    <g mask="url(#mask-2)" fill="#000000" stroke="#979797" stroke-dasharray="1,1" stroke-linejoin="round" stroke-width="0.5">
                        <g transform="translate(0.000000, -70.000000)">
                            <path d="M6,18 L108,18 C112.418278,18 116,21.581722 116,26 L116,90 C116,94.418278 112.418278,98 108,98 L8,98 C3.581722,98 5.41083001e-16,94.418278 0,90 L0,24 C-4.05812251e-16,20.6862915 2.6862915,18 6,18 Z" id="矩形备份-6" fill-opacity="0" fill-rule="evenodd"></path>
                            <path d="M110,48 L114,48 C117.313708,48 120,50.6862915 120,54 L120,60 L120,60 L110,60 L110,48 Z" id="矩形" fill-opacity="0" fill-rule="evenodd"></path>
                            <path d="M6,0 L110,0 L110,80 L6,80 L6,0 Z" id="矩形" fill-opacity="0" fill-rule="evenodd"></path>
                            <path d="M86,38 C92.627417,38 98,32.627417 98,26 C98,19.372583 92.627417,14 86,14 C79.372583,14 74,19.372583 74,26 C74,32.627417 79.372583,38 86,38 Z" id="椭圆形备份-4" fill-opacity="0" fill-rule="evenodd"></path>
                            <path d="M0,24 C4.05812251e-16,27.3137085 2.6862915,30 6,30 L108,30 C112.418278,30 116,33.581722 116,38 L116,102 C116,106.418278 112.418278,110 108,110 L8,110 C3.581722,110 5.41083001e-16,106.418278 0,102 L0,24 L0,24 Z" id="矩形备份-5" fill-opacity="0.02" fill-rule="evenodd"></path>
                            <path d="M95,60 L114,60 C117.313708,60 120,57.3137085 120,54 L120,54 L120,54 L120,74 C120,77.3137085 117.313708,80 114,80 L95,80 C92.2385763,80 90,77.7614237 90,75 L90,65 C90,62.2385763 92.2385763,60 95,60 Z" id="矩形备份-7" fill-opacity="0" fill-rule="evenodd"></path>
                            <path d="M100,75 C102.761424,75 105,72.7614237 105,70 C105,67.2385763 102.761424,65 100,65 C97.2385763,65 95,67.2385763 95,70 C95,72.7614237 97.2385763,75 100,75 Z" id="椭圆形" fill-opacity="0" fill-rule="evenodd"></path>
                            <path d="M28.3060444,72.4101839 C28.3060444,73.1796322 28.2180566,73.903819 28.0420811,74.582744 C27.8661056,75.261669 27.5600612,75.8538425 27.123948,76.3592645 C26.6878347,76.8646865 26.0986993,77.2644979 25.3565417,77.5586987 C24.6143841,77.8528996 23.6771232,78 22.544759,78 C21.5042081,78 20.6090283,77.8755304 19.8592196,77.6265912 C19.1094109,77.3776521 18.489671,77.087223 18,76.7553041 L19.1935731,74.0169731 C19.6373374,74.2734559 20.1117062,74.4997643 20.6166794,74.6958982 C21.1216526,74.8920321 21.6725325,74.990099 22.2693191,74.990099 C23.1415455,74.990099 23.7689365,74.7788779 24.151492,74.3564356 C24.5340474,73.9339934 24.7253252,73.2248939 24.7253252,72.2291372 L24.7253252,62 L28.3060444,62 L28.3060444,72.4101839 Z M35.3986228,65.4625177 C36.4085692,65.4625177 37.2501913,65.5756719 37.9234889,65.8019802 C38.5967865,66.0282885 39.1361897,66.3526638 39.5416985,66.7751061 C39.9472073,67.1975483 40.2341239,67.7105139 40.4024484,68.3140028 C40.5707728,68.9174917 40.654935,69.5888732 40.654935,70.3281471 L40.654935,77.3437058 C40.165264,77.4493164 39.4843152,77.573786 38.6120888,77.7171146 C37.7398623,77.8604432 36.6840092,77.9321075 35.4445295,77.9321075 C34.6641163,77.9321075 33.9563887,77.864215 33.3213466,77.72843 C32.6863045,77.592645 32.1392502,77.3701084 31.6801836,77.0608204 C31.2211171,76.7515323 30.869166,76.3479491 30.6243305,75.8500707 C30.379495,75.3521924 30.2570773,74.7411598 30.2570773,74.0169731 C30.2570773,73.3229609 30.3986228,72.7345592 30.6817138,72.251768 C30.9648049,71.7689769 31.3435348,71.3842527 31.8179036,71.0975955 C32.2922724,70.8109382 32.8355011,70.6034889 33.4475899,70.4752475 C34.0596787,70.3470061 34.6947207,70.2828854 35.3527161,70.2828854 C35.7964805,70.2828854 36.1905126,70.3017445 36.5348125,70.3394625 C36.8791125,70.3771806 37.158378,70.426214 37.372609,70.4865629 L37.372609,70.1697313 C37.372609,69.5964168 37.1966335,69.1362565 36.8446825,68.7892504 C36.4927314,68.4422442 35.8806427,68.2687412 35.0084162,68.2687412 C34.4269319,68.2687412 33.8530987,68.310231 33.2869166,68.3932107 C32.7207345,68.4761905 32.2310635,68.5931165 31.8179036,68.7439887 L31.3817904,66.0282885 C31.5807192,65.9679397 31.8293803,65.903819 32.1277735,65.8359264 C32.4261668,65.7680339 32.7513389,65.7076851 33.10329,65.6548798 C33.455241,65.6020745 33.8263198,65.5568128 34.2165264,65.5190948 C34.606733,65.4813767 35.0007651,65.4625177 35.3986228,65.4625177 Z M35.9954093,72.5459689 C35.6740627,72.5459689 35.3718439,72.5648279 35.0887529,72.602546 C34.8056618,72.640264 34.5570008,72.7119283 34.3427697,72.8175389 C34.1285386,72.9231495 33.9602142,73.0664781 33.8377965,73.2475248 C33.7153787,73.4285714 33.6541699,73.6548798 33.6541699,73.9264498 C33.6541699,74.4545026 33.8339709,74.8203678 34.1935731,75.0240453 C34.5531752,75.2277228 35.0466718,75.3295615 35.6740627,75.3295615 C36.0107116,75.3295615 36.3320581,75.3220179 36.6381025,75.3069307 C36.9441469,75.2918435 37.1889824,75.2692126 37.372609,75.2390382 L37.372609,72.6817539 C37.2348891,72.6515794 37.0283091,72.621405 36.7528692,72.5912306 C36.4774292,72.5610561 36.2249426,72.5459689 35.9954093,72.5459689 Z M43.2945677,66.1867044 C43.876052,66.0207449 44.6258607,65.8661009 45.5439939,65.7227723 C46.462127,65.5794437 47.4261668,65.5077793 48.4361132,65.5077793 C49.4613619,65.5077793 50.3144606,65.6397926 50.9954093,65.903819 C51.6763581,66.1678454 52.2157613,66.5412541 52.613619,67.0240453 C53.0114767,67.5068364 53.2945677,68.0801509 53.4628921,68.7439887 C53.6312165,69.4078265 53.7153787,70.1471004 53.7153787,70.9618105 L53.7153787,77.6831683 L50.2953328,77.6831683 L50.2953328,71.3691655 C50.2953328,70.2828854 50.1499617,69.5134371 49.8592196,69.0608204 C49.5684774,68.6082037 49.0252487,68.3818953 48.2295333,68.3818953 C47.9846978,68.3818953 47.7245601,68.3932107 47.4491201,68.4158416 C47.1736802,68.4384724 46.9288447,68.4648751 46.7146136,68.4950495 L46.7146136,77.6831683 L43.2945677,77.6831683 L43.2945677,66.1867044 Z M66.6610559,77.2758133 C66.0795715,77.4417727 65.3297628,77.5964168 64.4116297,77.7397454 C63.4934966,77.883074 62.5294568,77.9547383 61.5195103,77.9547383 C60.4942617,77.9547383 59.641163,77.8189533 58.9602142,77.5473833 C58.2792655,77.2758133 57.7398623,76.8948609 57.3420046,76.4045262 C56.9441469,75.9141914 56.6610559,75.3295615 56.4927314,74.6506365 C56.324407,73.9717115 56.2402448,73.2248939 56.2402448,72.4101839 L56.2402448,65.7793494 L59.6602907,65.7793494 L59.6602907,72.0028289 C59.6602907,73.0891089 59.8056618,73.8736445 60.096404,74.3564356 C60.3871461,74.8392268 60.9303749,75.0806223 61.7260903,75.0806223 C61.9709258,75.0806223 62.2310635,75.0693069 62.5065034,75.0466761 C62.7819434,75.0240453 63.0267789,74.9976426 63.2410099,74.9674682 L63.2410099,65.7793494 L66.6610559,65.7793494 L66.6610559,77.2758133 Z M72.8814078,75.261669 C73.5087988,75.261669 73.9525631,75.2013201 74.2127008,75.0806223 C74.4728386,74.9599246 74.6029074,74.7260726 74.6029074,74.3790665 C74.6029074,74.1074965 74.434583,73.8698727 74.0979342,73.6661952 C73.7612854,73.4625177 73.2486611,73.2324375 72.5600612,72.9759547 C72.0244836,72.7798208 71.5386381,72.5761433 71.1025249,72.3649222 C70.6664116,72.1537011 70.2953328,71.9009901 69.9892884,71.6067893 C69.6832441,71.3125884 69.4460597,70.9618105 69.2777353,70.5544554 C69.1094109,70.1471004 69.0252487,69.6567657 69.0252487,69.0834512 C69.0252487,67.9669967 69.4460597,67.0843942 70.2876817,66.4356436 C71.1293037,65.786893 72.2846213,65.4625177 73.7536343,65.4625177 C74.4881408,65.4625177 75.1920428,65.5266384 75.8653405,65.6548798 C76.5386381,65.7831212 77.0742158,65.922678 77.4720735,66.0735502 L76.8752869,68.698727 C76.4774292,68.562942 76.0451415,68.4422442 75.5784239,68.3366337 C75.1117062,68.2310231 74.5876052,68.1782178 74.0061209,68.1782178 C72.9349656,68.1782178 72.3993879,68.4724187 72.3993879,69.0608204 C72.3993879,69.1966054 72.4223412,69.3173032 72.4682479,69.4229137 C72.5141546,69.5285243 72.6059679,69.630363 72.7436878,69.72843 C72.8814078,69.8264969 73.06886,69.9321075 73.3060444,70.0452617 C73.5432288,70.1584158 73.8454476,70.2828854 74.2127008,70.4186704 C74.9625096,70.6902405 75.5822494,70.9580387 76.0719204,71.2220651 C76.5615914,71.4860915 76.9479725,71.7727487 77.2310635,72.0820368 C77.5141546,72.3913248 77.7130834,72.7345592 77.82785,73.1117397 C77.9426167,73.4889203 78,73.9264498 78,74.4243281 C78,75.6011315 77.5524101,76.4912777 76.6572303,77.0947666 C75.7620505,77.6982555 74.4957919,78 72.8584545,78 C71.7872992,78 70.8959449,77.9094767 70.1843917,77.72843 C69.4728386,77.5473833 68.979342,77.3965111 68.7039021,77.2758133 L69.2777353,74.5374823 C69.8592196,74.7637907 70.4560061,74.9410655 71.0680949,75.0693069 C71.6801836,75.1975483 72.2846213,75.261669 72.8814078,75.261669 Z" id="形状结合" fill-opacity="0" fill-rule="nonzero"></path>
                        </g>
                    </g>
                </g>
                <g id="编组-6" transform="translate(60.000000, 0.000000)">
                    <mask id="mask-4" fill="white">
                        <use xlink:href="#path-3"></use>
                    </mask>
                    <g id="蒙版"></g>
                    <g mask="url(#mask-4)">
                        <g transform="translate(0.000000, 10.000000)">
                            <path d="M108,18.25 C110.140103,18.25 112.077603,19.1174483 113.480078,20.5199224 C114.882552,21.9223966 115.75,23.8598966 115.75,26 L115.75,26 L115.75,90 C115.75,92.1401034 114.882552,94.0776034 113.480078,95.4800776 C112.077603,96.8825517 110.140103,97.75 108,97.75 L108,97.75 L8,97.75 C5.85989659,97.75 3.92239659,96.8825517 2.51992245,95.4800776 C1.1174483,94.0776034 0.25,92.1401034 0.25,90 L0.25,90 L0.25,24 C0.25,22.4121813 0.893590672,20.9746813 1.93413601,19.934136 C2.97468134,18.8935907 4.41218134,18.25 6,18.25 L6,18.25 Z" id="矩形备份-6" stroke="url(#linearGradient-6)" stroke-width="0.5" fill="url(#linearGradient-5)" fill-rule="evenodd" opacity="0.800000012"></path>
                            <path d="M110,48 L114,48 C117.313708,48 120,50.6862915 120,54 L120,60 L120,60 L110,60 L110,48 Z" id="矩形" stroke="none" fill="#34557D" fill-rule="evenodd"></path>
                            <path d="M104,0.25 C105.587819,0.25 107.025319,0.893590672 108.065864,1.93413601 C109.106409,2.97468134 109.75,4.41218134 109.75,6 L109.75,6 L109.75,74 C109.75,75.5878187 109.106409,77.0253187 108.065864,78.065864 C107.025319,79.1064093 105.587819,79.75 104,79.75 L104,79.75 L12,79.75 C10.4121813,79.75 8.97468134,79.1064093 7.93413601,78.065864 C6.89359067,77.0253187 6.25,75.5878187 6.25,74 L6.25,74 L6.25,6 C6.25,4.41218134 6.89359067,2.97468134 7.93413601,1.93413601 C8.97468134,0.893590672 10.4121813,0.25 12,0.25 L12,0.25 Z" id="矩形" stroke="url(#radialGradient-8)" stroke-width="0.5" fill="url(#radialGradient-7)" fill-rule="evenodd" opacity="0.600000024"></path>
                            <g id="椭圆形备份-4" stroke="none" fill="none">
                                <use fill="black" fill-opacity="1" filter="url(#filter-10)" xlink:href="#path-9"></use>
                                <use fill="#FFEB00" fill-rule="evenodd" xlink:href="#path-9"></use>
                                <use fill="black" fill-opacity="1" filter="url(#filter-11)" xlink:href="#path-9"></use>
                                <circle stroke="#FFDB00" stroke-width="4" stroke-linejoin="square" cx="86" cy="26" r="10"></circle>
                            </g>
                            <path d="M0.25,26.4535861 C0.565928918,27.1930141 1.02031838,27.8591531 1.58058262,28.4194174 C2.71161016,29.5504449 4.27411016,30.25 6,30.25 L6,30.25 L108,30.25 C110.140103,30.25 112.077603,31.1174483 113.480078,32.5199224 C114.882552,33.9223966 115.75,35.8598966 115.75,38 L115.75,38 L115.75,102 C115.75,104.140103 114.882552,106.077603 113.480078,107.480078 C112.077603,108.882552 110.140103,109.75 108,109.75 L108,109.75 L8,109.75 C5.85989659,109.75 3.92239659,108.882552 2.51992245,107.480078 C1.1174483,106.077603 0.25,104.140103 0.25,102 L0.25,102 Z" id="矩形备份-5" stroke="url(#linearGradient-13)" stroke-width="0.5" fill-opacity="0.7" fill="url(#linearGradient-12)" fill-rule="evenodd"></path>
                            <path d="M119.74633,56.4621156 L119.75,74 C119.75,75.5878187 119.106409,77.0253187 118.065864,78.065864 C117.025319,79.1064093 115.587819,79.75 114,79.75 L114,79.75 L95,79.75 C93.6883237,79.75 92.5008237,79.2183381 91.6412428,78.3587572 C90.7816619,77.4991763 90.25,76.3116763 90.25,75 L90.25,75 L90.25,65 C90.25,63.6883237 90.7816619,62.5008237 91.6412428,61.6412428 C92.5008237,60.7816619 93.6883237,60.25 95,60.25 L95,60.25 L114,60.25 C115.683476,60.25 117.211488,59.5843997 118.335252,58.5020192 C118.932063,57.9271855 119.414836,57.2347923 119.74633,56.4621156 L119.74633,56.4621156 Z" id="矩形备份-7" stroke="url(#linearGradient-15)" stroke-width="0.5" fill-opacity="0.6" fill="url(#linearGradient-14)" fill-rule="evenodd"></path>
                            <path d="M100,65.25 C101.311676,65.25 102.499176,65.7816619 103.358757,66.6412428 C104.218338,67.5008237 104.75,68.6883237 104.75,70 C104.75,71.3116763 104.218338,72.4991763 103.358757,73.3587572 C102.499176,74.2183381 101.311676,74.75 100,74.75 C98.6883237,74.75 97.5008237,74.2183381 96.6412428,73.3587572 C95.7816619,72.4991763 95.25,71.3116763 95.25,70 C95.25,68.6883237 95.7816619,67.5008237 96.6412428,66.6412428 C97.5008237,65.7816619 98.6883237,65.25 100,65.25 Z" id="椭圆形" stroke="url(#linearGradient-17)" stroke-width="0.5" fill-opacity="0.7" fill="url(#linearGradient-16)" fill-rule="evenodd"></path>
                            <path d="M28.3060444,72.4101839 C28.3060444,73.1796322 28.2180566,73.903819 28.0420811,74.582744 C27.8661056,75.261669 27.5600612,75.8538425 27.123948,76.3592645 C26.6878347,76.8646865 26.0986993,77.2644979 25.3565417,77.5586987 C24.6143841,77.8528996 23.6771232,78 22.544759,78 C21.5042081,78 20.6090283,77.8755304 19.8592196,77.6265912 C19.1094109,77.3776521 18.489671,77.087223 18,76.7553041 L19.1935731,74.0169731 C19.6373374,74.2734559 20.1117062,74.4997643 20.6166794,74.6958982 C21.1216526,74.8920321 21.6725325,74.990099 22.2693191,74.990099 C23.1415455,74.990099 23.7689365,74.7788779 24.151492,74.3564356 C24.5340474,73.9339934 24.7253252,73.2248939 24.7253252,72.2291372 L24.7253252,62 L28.3060444,62 L28.3060444,72.4101839 Z M35.3986228,65.4625177 C36.4085692,65.4625177 37.2501913,65.5756719 37.9234889,65.8019802 C38.5967865,66.0282885 39.1361897,66.3526638 39.5416985,66.7751061 C39.9472073,67.1975483 40.2341239,67.7105139 40.4024484,68.3140028 C40.5707728,68.9174917 40.654935,69.5888732 40.654935,70.3281471 L40.654935,77.3437058 C40.165264,77.4493164 39.4843152,77.573786 38.6120888,77.7171146 C37.7398623,77.8604432 36.6840092,77.9321075 35.4445295,77.9321075 C34.6641163,77.9321075 33.9563887,77.864215 33.3213466,77.72843 C32.6863045,77.592645 32.1392502,77.3701084 31.6801836,77.0608204 C31.2211171,76.7515323 30.869166,76.3479491 30.6243305,75.8500707 C30.379495,75.3521924 30.2570773,74.7411598 30.2570773,74.0169731 C30.2570773,73.3229609 30.3986228,72.7345592 30.6817138,72.251768 C30.9648049,71.7689769 31.3435348,71.3842527 31.8179036,71.0975955 C32.2922724,70.8109382 32.8355011,70.6034889 33.4475899,70.4752475 C34.0596787,70.3470061 34.6947207,70.2828854 35.3527161,70.2828854 C35.7964805,70.2828854 36.1905126,70.3017445 36.5348125,70.3394625 C36.8791125,70.3771806 37.158378,70.426214 37.372609,70.4865629 L37.372609,70.1697313 C37.372609,69.5964168 37.1966335,69.1362565 36.8446825,68.7892504 C36.4927314,68.4422442 35.8806427,68.2687412 35.0084162,68.2687412 C34.4269319,68.2687412 33.8530987,68.310231 33.2869166,68.3932107 C32.7207345,68.4761905 32.2310635,68.5931165 31.8179036,68.7439887 L31.3817904,66.0282885 C31.5807192,65.9679397 31.8293803,65.903819 32.1277735,65.8359264 C32.4261668,65.7680339 32.7513389,65.7076851 33.10329,65.6548798 C33.455241,65.6020745 33.8263198,65.5568128 34.2165264,65.5190948 C34.606733,65.4813767 35.0007651,65.4625177 35.3986228,65.4625177 Z M35.9954093,72.5459689 C35.6740627,72.5459689 35.3718439,72.5648279 35.0887529,72.602546 C34.8056618,72.640264 34.5570008,72.7119283 34.3427697,72.8175389 C34.1285386,72.9231495 33.9602142,73.0664781 33.8377965,73.2475248 C33.7153787,73.4285714 33.6541699,73.6548798 33.6541699,73.9264498 C33.6541699,74.4545026 33.8339709,74.8203678 34.1935731,75.0240453 C34.5531752,75.2277228 35.0466718,75.3295615 35.6740627,75.3295615 C36.0107116,75.3295615 36.3320581,75.3220179 36.6381025,75.3069307 C36.9441469,75.2918435 37.1889824,75.2692126 37.372609,75.2390382 L37.372609,72.6817539 C37.2348891,72.6515794 37.0283091,72.621405 36.7528692,72.5912306 C36.4774292,72.5610561 36.2249426,72.5459689 35.9954093,72.5459689 Z M43.2945677,66.1867044 C43.876052,66.0207449 44.6258607,65.8661009 45.5439939,65.7227723 C46.462127,65.5794437 47.4261668,65.5077793 48.4361132,65.5077793 C49.4613619,65.5077793 50.3144606,65.6397926 50.9954093,65.903819 C51.6763581,66.1678454 52.2157613,66.5412541 52.613619,67.0240453 C53.0114767,67.5068364 53.2945677,68.0801509 53.4628921,68.7439887 C53.6312165,69.4078265 53.7153787,70.1471004 53.7153787,70.9618105 L53.7153787,77.6831683 L50.2953328,77.6831683 L50.2953328,71.3691655 C50.2953328,70.2828854 50.1499617,69.5134371 49.8592196,69.0608204 C49.5684774,68.6082037 49.0252487,68.3818953 48.2295333,68.3818953 C47.9846978,68.3818953 47.7245601,68.3932107 47.4491201,68.4158416 C47.1736802,68.4384724 46.9288447,68.4648751 46.7146136,68.4950495 L46.7146136,77.6831683 L43.2945677,77.6831683 L43.2945677,66.1867044 Z M66.6610559,77.2758133 C66.0795715,77.4417727 65.3297628,77.5964168 64.4116297,77.7397454 C63.4934966,77.883074 62.5294568,77.9547383 61.5195103,77.9547383 C60.4942617,77.9547383 59.641163,77.8189533 58.9602142,77.5473833 C58.2792655,77.2758133 57.7398623,76.8948609 57.3420046,76.4045262 C56.9441469,75.9141914 56.6610559,75.3295615 56.4927314,74.6506365 C56.324407,73.9717115 56.2402448,73.2248939 56.2402448,72.4101839 L56.2402448,65.7793494 L59.6602907,65.7793494 L59.6602907,72.0028289 C59.6602907,73.0891089 59.8056618,73.8736445 60.096404,74.3564356 C60.3871461,74.8392268 60.9303749,75.0806223 61.7260903,75.0806223 C61.9709258,75.0806223 62.2310635,75.0693069 62.5065034,75.0466761 C62.7819434,75.0240453 63.0267789,74.9976426 63.2410099,74.9674682 L63.2410099,65.7793494 L66.6610559,65.7793494 L66.6610559,77.2758133 Z M72.8814078,75.261669 C73.5087988,75.261669 73.9525631,75.2013201 74.2127008,75.0806223 C74.4728386,74.9599246 74.6029074,74.7260726 74.6029074,74.3790665 C74.6029074,74.1074965 74.434583,73.8698727 74.0979342,73.6661952 C73.7612854,73.4625177 73.2486611,73.2324375 72.5600612,72.9759547 C72.0244836,72.7798208 71.5386381,72.5761433 71.1025249,72.3649222 C70.6664116,72.1537011 70.2953328,71.9009901 69.9892884,71.6067893 C69.6832441,71.3125884 69.4460597,70.9618105 69.2777353,70.5544554 C69.1094109,70.1471004 69.0252487,69.6567657 69.0252487,69.0834512 C69.0252487,67.9669967 69.4460597,67.0843942 70.2876817,66.4356436 C71.1293037,65.786893 72.2846213,65.4625177 73.7536343,65.4625177 C74.4881408,65.4625177 75.1920428,65.5266384 75.8653405,65.6548798 C76.5386381,65.7831212 77.0742158,65.922678 77.4720735,66.0735502 L76.8752869,68.698727 C76.4774292,68.562942 76.0451415,68.4422442 75.5784239,68.3366337 C75.1117062,68.2310231 74.5876052,68.1782178 74.0061209,68.1782178 C72.9349656,68.1782178 72.3993879,68.4724187 72.3993879,69.0608204 C72.3993879,69.1966054 72.4223412,69.3173032 72.4682479,69.4229137 C72.5141546,69.5285243 72.6059679,69.630363 72.7436878,69.72843 C72.8814078,69.8264969 73.06886,69.9321075 73.3060444,70.0452617 C73.5432288,70.1584158 73.8454476,70.2828854 74.2127008,70.4186704 C74.9625096,70.6902405 75.5822494,70.9580387 76.0719204,71.2220651 C76.5615914,71.4860915 76.9479725,71.7727487 77.2310635,72.0820368 C77.5141546,72.3913248 77.7130834,72.7345592 77.82785,73.1117397 C77.9426167,73.4889203 78,73.9264498 78,74.4243281 C78,75.6011315 77.5524101,76.4912777 76.6572303,77.0947666 C75.7620505,77.6982555 74.4957919,78 72.8584545,78 C71.7872992,78 70.8959449,77.9094767 70.1843917,77.72843 C69.4728386,77.5473833 68.979342,77.3965111 68.7039021,77.2758133 L69.2777353,74.5374823 C69.8592196,74.7637907 70.4560061,74.9410655 71.0680949,75.0693069 C71.6801836,75.1975483 72.2846213,75.261669 72.8814078,75.261669 Z" id="形状结合" stroke="none" fill="url(#linearGradient-18)" fill-rule="evenodd" opacity="0.800000012"></path>
                        </g>
                    </g>
                </g>
                <g id="椭圆形">
                    <mask id="mask-20" fill="white">
                        <use xlink:href="#path-19"></use>
                    </mask>
                    <g id="蒙版"></g>
                    <ellipse stroke="#979797" fill="#297AFF" filter="url(#filter-21)" mask="url(#mask-20)" cx="120" cy="90" rx="89.5" ry="9.5"></ellipse>
                    <polygon id="蒙版备份" fill="url(#linearGradient-22)" style="mix-blend-mode: lighten;" filter="url(#filter-23)" mask="url(#mask-20)" points="0 79 240 79 240 80 0 80"></polygon>
                    <polygon id="蒙版备份-2" fill="url(#linearGradient-22)" style="mix-blend-mode: lighten;" mask="url(#mask-20)" points="0 79 240 79 240 80 0 80"></polygon>
                </g>
            </g>
        </g>
    </g>
</svg>