<svg width="240" height="120" xmlns="http://www.w3.org/2000/svg" xmlns:xlink="http://www.w3.org/1999/xlink"><defs><linearGradient x1="69.727%" y1="26.272%" x2="50%" y2="50%" id="l"><stop stop-color="#FFF" stop-opacity=".9" offset="0%"/><stop stop-color="#FFF" stop-opacity="0" offset="100%"/></linearGradient><linearGradient x1="100%" y1="26.219%" x2="33.191%" y2="45.666%" id="f"><stop stop-color="#33618E" offset="0%"/><stop stop-color="#3D3835" offset="100%"/></linearGradient><linearGradient x1="69.727%" y1="29.468%" x2="50%" y2="50%" id="e"><stop stop-color="#FFF" stop-opacity=".9" offset="0%"/><stop stop-color="#FFF" stop-opacity="0" offset="100%"/></linearGradient><linearGradient x1="100%" y1="50%" x2="0%" y2="50%" id="v"><stop stop-color="#FFF" stop-opacity="0" offset="0%"/><stop stop-color="#FFF" offset="49.942%"/><stop stop-color="#FFF" stop-opacity="0" offset="100%"/></linearGradient><linearGradient x1="100%" y1="46.444%" x2="33.191%" y2="49.352%" id="r"><stop stop-color="#33618E" offset="0%"/><stop stop-color="#3D3835" offset="100%"/></linearGradient><linearGradient x1="50%" y1="50%" x2="0%" y2="22.518%" id="m"><stop stop-color="#FFB729" offset="0%"/><stop stop-color="#5BAFF2" offset="100%"/></linearGradient><linearGradient x1="69.727%" y1="6.831%" x2="50%" y2="50%" id="p"><stop stop-color="#FFF" stop-opacity=".9" offset="0%"/><stop stop-color="#FFF" stop-opacity="0" offset="100%"/></linearGradient><linearGradient x1="100%" y1="12.444%" x2="33.191%" y2="43.155%" id="o"><stop stop-color="#33618E" offset="0%"/><stop stop-color="#3D3835" offset="100%"/></linearGradient><linearGradient x1="69.727%" y1="17.575%" x2="50%" y2="50%" id="n"><stop stop-color="#FFF" stop-opacity=".9" offset="0%"/><stop stop-color="#FFF" stop-opacity="0" offset="100%"/></linearGradient><linearGradient x1="50%" y1="50%" x2="0%" y2="0%" id="q"><stop stop-color="#FFB729" offset="0%"/><stop stop-color="#5BAFF2" offset="100%"/></linearGradient><filter x="-1.2%" y="-300%" width="102.5%" height="700%" filterUnits="objectBoundingBox" id="w"><feGaussianBlur stdDeviation="1" in="SourceGraphic"/></filter><filter x="-3.1%" y="-1%" width="104.2%" height="104.2%" filterUnits="objectBoundingBox" id="i"><feOffset dx="-.5" dy=".5" in="SourceAlpha" result="shadowOffsetOuter1"/><feComposite in="shadowOffsetOuter1" in2="SourceAlpha" operator="out" result="shadowOffsetOuter1"/><feColorMatrix values="0 0 0 0 0.941176471 0 0 0 0 0.611764706 0 0 0 0 0 0 0 0 0.5 0" in="shadowOffsetOuter1"/></filter><filter x="-11.5%" y="-9.4%" width="120.8%" height="120.8%" filterUnits="objectBoundingBox" id="k"><feMorphology radius="4" in="SourceAlpha" result="shadowSpreadInner1"/><feOffset dx="-.5" dy=".5" in="shadowSpreadInner1" result="shadowOffsetInner1"/><feComposite in="shadowOffsetInner1" in2="SourceAlpha" operator="arithmetic" k2="-1" k3="1" result="shadowInnerInner1"/><feColorMatrix values="0 0 0 0 0.980392157 0 0 0 0 0.654901961 0 0 0 0 0 0 0 0 0.5 0" in="shadowInnerInner1"/></filter><filter x="-16.7%" y="-150%" width="133.3%" height="400%" filterUnits="objectBoundingBox" id="t"><feGaussianBlur stdDeviation="10" in="SourceGraphic"/></filter><path id="c" d="M0 0h120v80H0z"/><path id="s" d="M0 0h240v80H0z"/><path id="a" d="M0 40h120V0H0z"/><radialGradient cx="9.646%" cy="9.7%" fx="9.646%" fy="9.7%" r="59.846%" gradientTransform="matrix(.3247 .90655 -1.0549 .63852 .167 -.052)" id="g"><stop stop-color="#FFF" stop-opacity=".973" offset="0%"/><stop stop-color="#FFF" stop-opacity="0" offset="100%"/></radialGradient><radialGradient cx="7.442%" cy="6.816%" fx="7.442%" fy="6.816%" r="100.873%" gradientTransform="scale(.76923 1) rotate(59.636 .086 .088)" id="h"><stop stop-color="#FFF" stop-opacity=".802" offset="0%"/><stop stop-color="#5B72F6" stop-opacity=".249" offset="100%"/></radialGradient><circle id="j" cx="86" cy="26" r="12"/></defs><g fill="none" fill-rule="evenodd"><g transform="translate(60 80)"><mask id="b" fill="#fff"><use xlink:href="#a"/></mask><g mask="url(#b)" fill="#000" stroke="#979797" stroke-dasharray="1,1" stroke-linejoin="round" stroke-width=".5"><path d="M6-52h102a8 8 0 0 1 8 8v64a8 8 0 0 1-8 8H8a8 8 0 0 1-8-8v-66a6 6 0 0 1 6-6z" fill="none"/><path d="M110-22h4a6 6 0 0 1 6 6v6h-10v-12zM6-70h104v80H6v-80z" fill="none"/><path d="M86-32c6.627 0 12-5.373 12-12s-5.373-12-12-12-12 5.373-12 12 5.373 12 12 12z" fill="none"/><path d="M0-46a6 6 0 0 0 6 6h102a8 8 0 0 1 8 8v64a8 8 0 0 1-8 8H8a8 8 0 0 1-8-8v-78z" fill-opacity=".02"/><path d="M95-10h19a6 6 0 0 0 6-6V4a6 6 0 0 1-6 6H95a5 5 0 0 1-5-5V-5a5 5 0 0 1 5-5z" fill="none"/><path d="M100 5a5 5 0 1 0 0-10 5 5 0 0 0 0 10zM28.306 2.41c0 .77-.088 1.494-.264 2.173a4.347 4.347 0 0 1-.918 1.776c-.436.506-1.025.905-1.767 1.2-.743.294-1.68.441-2.812.441-1.04 0-1.936-.124-2.686-.373-.75-.25-1.37-.54-1.859-.872l1.194-2.738c.443.256.918.483 1.423.679a4.526 4.526 0 0 0 1.652.294c.873 0 1.5-.211 1.882-.634.383-.422.574-1.131.574-2.127V-8h3.581V2.41zm7.093-6.947c1.01 0 1.851.113 2.524.339.674.226 1.213.55 1.619.973.405.423.692.936.86 1.539a7.49 7.49 0 0 1 .253 2.014v7.016c-.49.105-1.17.23-2.043.373-.872.143-1.928.215-3.167.215-.78 0-1.489-.068-2.124-.204-.635-.135-1.182-.358-1.64-.667a3.068 3.068 0 0 1-1.057-1.21c-.245-.499-.367-1.11-.367-1.834 0-.694.142-1.282.425-1.765a3.243 3.243 0 0 1 1.136-1.154 5.178 5.178 0 0 1 1.63-.623 9.268 9.268 0 0 1 1.905-.192c.443 0 .838.019 1.182.056.344.038.623.087.838.148V.17c0-.574-.176-1.034-.528-1.38-.352-.348-.964-.521-1.837-.521-.581 0-1.155.041-1.721.124-.566.083-1.056.2-1.47.351l-.435-2.716a13.32 13.32 0 0 1 1.721-.373c.352-.053.723-.098 1.114-.136.39-.038.784-.056 1.182-.056zm.596 7.083c-.32 0-.623.019-.906.057-.283.037-.532.109-.746.215a1.275 1.275 0 0 0-.505.43c-.123.18-.184.407-.184.678 0 .529.18.894.54 1.098.36.204.853.306 1.48.306.337 0 .658-.008.964-.023a6.8 6.8 0 0 0 .735-.068V2.682a6.398 6.398 0 0 0-.62-.09 6.999 6.999 0 0 0-.758-.046zm7.3-6.36c.581-.165 1.33-.32 2.249-.463a18.742 18.742 0 0 1 2.892-.215c1.025 0 1.878.132 2.56.396.68.264 1.22.637 1.618 1.12a4.34 4.34 0 0 1 .849 1.72c.168.664.252 1.403.252 2.218v6.721h-3.42V1.37c0-1.086-.145-1.856-.436-2.308-.29-.453-.834-.68-1.63-.68-.244 0-.504.012-.78.035-.275.022-.52.049-.734.079v9.188h-3.42V-3.813zM66.66 7.277c-.581.166-1.331.32-2.25.464-.918.143-1.882.215-2.891.215-1.026 0-1.879-.136-2.56-.408-.68-.271-1.22-.652-1.618-1.142a4.434 4.434 0 0 1-.85-1.754 9.307 9.307 0 0 1-.252-2.24v-6.632h3.42v6.224c0 1.086.146 1.87.436 2.353.291.483.834.725 1.63.725.245 0 .505-.012.78-.034.276-.023.52-.05.735-.08V-4.22h3.42V7.276zm6.22-2.014c.628 0 1.072-.06 1.332-.181s.39-.355.39-.702c0-.272-.168-.51-.505-.713-.337-.203-.85-.434-1.538-.69-.536-.196-1.021-.4-1.457-.611a4.286 4.286 0 0 1-1.114-.758 3.064 3.064 0 0 1-.711-1.053c-.169-.407-.253-.897-.253-1.47 0-1.117.421-2 1.263-2.648.841-.65 1.997-.973 3.466-.973.734 0 1.438.064 2.111.192.674.128 1.21.268 1.607.419l-.597 2.625c-.398-.136-.83-.257-1.297-.362a7.145 7.145 0 0 0-1.572-.159c-1.071 0-1.607.294-1.607.883a.9.9 0 0 0 .07.362.776.776 0 0 0 .275.305c.137.098.325.204.562.317.237.113.54.238.907.374.75.271 1.37.539 1.859.803.49.264.876.55 1.16.86.282.31.481.653.596 1.03.115.377.172.814.172 1.312 0 1.177-.448 2.067-1.343 2.67-.895.604-2.161.906-3.799.906-1.07 0-1.962-.09-2.674-.272-.711-.18-1.205-.331-1.48-.452l.574-2.739c.581.227 1.178.404 1.79.532a8.825 8.825 0 0 0 1.813.193z" fill="none"/></g></g><g transform="translate(60)"><mask id="d" fill="#fff"><use xlink:href="#c"/></mask><g mask="url(#d)"><path d="M108 18.25c2.14 0 4.078.867 5.48 2.27a7.726 7.726 0 0 1 2.27 5.48v64c0 2.14-.867 4.078-2.27 5.48a7.726 7.726 0 0 1-5.48 2.27H8a7.726 7.726 0 0 1-5.48-2.27A7.726 7.726 0 0 1 .25 90V24c0-1.588.644-3.025 1.684-4.066A5.732 5.732 0 0 1 6 18.25z" stroke="url(#e)" stroke-width=".5" fill="url(#f)" opacity=".8" transform="translate(0 10)"/><path d="M110 58h4a6 6 0 0 1 6 6v6h-10V58z" fill="#34557D"/><path d="M104 .25c1.588 0 3.025.644 4.066 1.684A5.732 5.732 0 0 1 109.75 6v68a5.732 5.732 0 0 1-1.684 4.066A5.732 5.732 0 0 1 104 79.75H12a5.732 5.732 0 0 1-4.066-1.684A5.732 5.732 0 0 1 6.25 74V6c0-1.588.644-3.025 1.684-4.066A5.732 5.732 0 0 1 12 .25z" stroke="url(#g)" stroke-width=".5" fill="url(#h)" opacity=".6" transform="translate(0 10)"/><g transform="translate(0 10)"><use fill="#000" filter="url(#i)" xlink:href="#j"/><use fill="#FFEB00" xlink:href="#j"/><use fill="#000" filter="url(#k)" xlink:href="#j"/><circle stroke="#FFDB00" stroke-width="4" stroke-linejoin="square" cx="86" cy="26" r="10"/></g><path d="M.25 26.454A6.26 6.26 0 0 0 6 30.25h102c2.14 0 4.078.867 5.48 2.27a7.726 7.726 0 0 1 2.27 5.48v64c0 2.14-.867 4.078-2.27 5.48a7.726 7.726 0 0 1-5.48 2.27H8a7.726 7.726 0 0 1-5.48-2.27A7.726 7.726 0 0 1 .25 102z" stroke="url(#l)" stroke-width=".5" fill-opacity=".7" fill="url(#m)" transform="translate(0 10)"/><path d="M119.746 56.462 119.75 74a5.732 5.732 0 0 1-1.684 4.066A5.732 5.732 0 0 1 114 79.75H95c-1.312 0-2.5-.532-3.359-1.391A4.735 4.735 0 0 1 90.25 75V65c0-1.312.532-2.5 1.391-3.359A4.735 4.735 0 0 1 95 60.25h19a6.262 6.262 0 0 0 5.746-3.788z" stroke="url(#n)" stroke-width=".5" fill-opacity=".6" fill="url(#o)" transform="translate(0 10)"/><path d="M100 65.25c1.312 0 2.5.532 3.359 1.391A4.735 4.735 0 0 1 104.75 70c0 1.312-.532 2.5-1.391 3.359A4.735 4.735 0 0 1 100 74.75c-1.312 0-2.5-.532-3.359-1.391A4.735 4.735 0 0 1 95.25 70c0-1.312.532-2.5 1.391-3.359A4.735 4.735 0 0 1 100 65.25z" stroke="url(#p)" stroke-width=".5" fill-opacity=".7" fill="url(#q)" transform="translate(0 10)"/><path d="M28.306 72.41c0 .77-.088 1.494-.264 2.173a4.347 4.347 0 0 1-.918 1.776c-.436.506-1.025.905-1.767 1.2-.743.294-1.68.441-2.812.441-1.04 0-1.936-.124-2.686-.373-.75-.25-1.37-.54-1.859-.872l1.194-2.738c.443.256.918.483 1.423.679a4.526 4.526 0 0 0 1.652.294c.873 0 1.5-.211 1.882-.634.383-.422.574-1.131.574-2.127V62h3.581v10.41zm7.093-6.947c1.01 0 1.851.113 2.524.339.674.226 1.213.55 1.619.973.405.423.692.936.86 1.539a7.49 7.49 0 0 1 .253 2.014v7.016c-.49.105-1.17.23-2.043.373-.872.143-1.928.215-3.167.215-.78 0-1.489-.068-2.124-.204-.635-.135-1.182-.358-1.64-.667a3.068 3.068 0 0 1-1.057-1.21c-.245-.499-.367-1.11-.367-1.834 0-.694.142-1.282.425-1.765a3.243 3.243 0 0 1 1.136-1.154 5.178 5.178 0 0 1 1.63-.623 9.268 9.268 0 0 1 1.905-.192c.443 0 .838.019 1.182.056.344.038.623.087.838.148v-.317c0-.574-.176-1.034-.528-1.38-.352-.348-.964-.521-1.837-.521-.581 0-1.155.041-1.721.124-.566.083-1.056.2-1.47.351l-.435-2.716a13.32 13.32 0 0 1 1.721-.373c.352-.053.723-.098 1.114-.136.39-.038.784-.056 1.182-.056zm.596 7.083c-.32 0-.623.019-.906.057-.283.037-.532.109-.746.215a1.275 1.275 0 0 0-.505.43c-.123.18-.184.407-.184.678 0 .529.18.894.54 1.098.36.204.853.306 1.48.306.337 0 .658-.008.964-.023a6.8 6.8 0 0 0 .735-.068v-2.557a6.398 6.398 0 0 0-.62-.09 6.999 6.999 0 0 0-.758-.046zm7.3-6.36c.581-.165 1.33-.32 2.249-.463a18.742 18.742 0 0 1 2.892-.215c1.025 0 1.878.132 2.56.396.68.264 1.22.637 1.618 1.12a4.34 4.34 0 0 1 .849 1.72c.168.664.252 1.403.252 2.218v6.721h-3.42V71.37c0-1.086-.145-1.856-.436-2.308-.29-.453-.834-.68-1.63-.68-.244 0-.504.012-.78.035-.275.022-.52.049-.734.079v9.188h-3.42V66.187zm23.366 11.09c-.581.166-1.331.32-2.25.464-.918.143-1.882.215-2.891.215-1.026 0-1.879-.136-2.56-.408-.68-.271-1.22-.652-1.618-1.142a4.434 4.434 0 0 1-.85-1.754 9.307 9.307 0 0 1-.252-2.24v-6.632h3.42v6.224c0 1.086.146 1.87.436 2.353.291.483.834.725 1.63.725.245 0 .505-.012.78-.034.276-.023.52-.05.735-.08V65.78h3.42v11.497zm6.22-2.014c.628 0 1.072-.06 1.332-.181s.39-.355.39-.702c0-.272-.168-.51-.505-.713-.337-.203-.85-.434-1.538-.69-.536-.196-1.021-.4-1.457-.611a4.286 4.286 0 0 1-1.114-.758 3.064 3.064 0 0 1-.711-1.053c-.169-.407-.253-.897-.253-1.47 0-1.117.421-2 1.263-2.648.841-.65 1.997-.973 3.466-.973.734 0 1.438.064 2.111.192.674.128 1.21.268 1.607.419l-.597 2.625c-.398-.136-.83-.257-1.297-.362a7.145 7.145 0 0 0-1.572-.159c-1.071 0-1.607.294-1.607.883a.9.9 0 0 0 .07.362.776.776 0 0 0 .275.305c.137.098.325.204.562.317.237.113.54.238.907.374.75.271 1.37.539 1.859.803.49.264.876.55 1.16.86.282.31.481.653.596 1.03.115.377.172.814.172 1.312 0 1.177-.448 2.067-1.343 2.67-.895.604-2.161.906-3.799.906-1.07 0-1.962-.09-2.674-.272-.711-.18-1.205-.331-1.48-.452l.574-2.739c.581.227 1.178.404 1.79.532a8.825 8.825 0 0 0 1.813.193z" fill="url(#r)" opacity=".8" transform="translate(0 10)"/></g></g><g><mask id="u" fill="#fff"><use xlink:href="#s"/></mask><ellipse stroke="#979797" fill="#297AFF" filter="url(#t)" mask="url(#u)" cx="120" cy="90" rx="89.5" ry="9.5"/><path fill="url(#v)" style="mix-blend-mode:lighten" filter="url(#w)" mask="url(#u)" d="M0 79h240v1H0z"/><path fill="url(#v)" style="mix-blend-mode:lighten" mask="url(#u)" d="M0 79h240v1H0z"/></g></g></svg>