<svg width="120" height="121" xmlns="http://www.w3.org/2000/svg" xmlns:xlink="http://www.w3.org/1999/xlink"><defs><filter x="-9.4%" y="-9.4%" width="120.8%" height="120.8%" filterUnits="objectBoundingBox" id="v"><feMorphology radius="4" in="SourceAlpha" result="shadowSpreadInner1"/><feOffset dx=".5" dy=".5" in="shadowSpreadInner1" result="shadowOffsetInner1"/><feComposite in="shadowOffsetInner1" in2="SourceAlpha" operator="arithmetic" k2="-1" k3="1" result="shadowInnerInner1"/><feColorMatrix values="0 0 0 0 0.980392157 0 0 0 0 0.654901961 0 0 0 0 0 0 0 0 0.5 0" in="shadowInnerInner1"/></filter><filter x="-1%" y="-1%" width="104.2%" height="104.2%" filterUnits="objectBoundingBox" id="t"><feOffset dx=".5" dy=".5" in="SourceAlpha" result="shadowOffsetOuter1"/><feComposite in="shadowOffsetOuter1" in2="SourceAlpha" operator="out" result="shadowOffsetOuter1"/><feColorMatrix values="0 0 0 0 0.941176471 0 0 0 0 0.611764706 0 0 0 0 0 0 0 0 0.5 0" in="shadowOffsetOuter1"/></filter><filter x="-9.4%" y="-9.4%" width="120.8%" height="120.8%" filterUnits="objectBoundingBox" id="s"><feMorphology radius="4" in="SourceAlpha" result="shadowSpreadInner1"/><feOffset dx=".5" dy=".5" in="shadowSpreadInner1" result="shadowOffsetInner1"/><feComposite in="shadowOffsetInner1" in2="SourceAlpha" operator="arithmetic" k2="-1" k3="1" result="shadowInnerInner1"/><feColorMatrix values="0 0 0 0 0.980392157 0 0 0 0 0.654901961 0 0 0 0 0 0 0 0 0.5 0" in="shadowInnerInner1"/></filter><filter x="-1%" y="-1%" width="104.2%" height="104.2%" filterUnits="objectBoundingBox" id="q"><feOffset dx=".5" dy=".5" in="SourceAlpha" result="shadowOffsetOuter1"/><feComposite in="shadowOffsetOuter1" in2="SourceAlpha" operator="out" result="shadowOffsetOuter1"/><feColorMatrix values="0 0 0 0 0.941176471 0 0 0 0 0.611764706 0 0 0 0 0 0 0 0 0.5 0" in="shadowOffsetOuter1"/></filter><filter x="-.5%" y="-.6%" width="102%" height="102.4%" filterUnits="objectBoundingBox" id="g"><feOffset dx="1" dy="1" in="SourceAlpha" result="shadowOffsetOuter1"/><feComposite in="shadowOffsetOuter1" in2="SourceAlpha" operator="out" result="shadowOffsetOuter1"/><feColorMatrix values="0 0 0 0 0 0 0 0 0 0 0 0 0 0 0 0 0 0 0.1 0" in="shadowOffsetOuter1"/></filter><filter x="-17.5%" y="-14.2%" width="135%" height="135%" filterUnits="objectBoundingBox" id="p"><feOffset dx="1" dy="1" in="SourceAlpha" result="shadowOffsetInner1"/><feComposite in="shadowOffsetInner1" in2="SourceAlpha" operator="arithmetic" k2="-1" k3="1" result="shadowInnerInner1"/><feColorMatrix values="0 0 0 0 1 0 0 0 0 1 0 0 0 0 1 0 0 0 0.8 0" in="shadowInnerInner1"/></filter><filter x="-26.7%" y="-23.3%" width="153.3%" height="153.3%" filterUnits="objectBoundingBox" id="n"><feOffset dy="2" in="SourceAlpha" result="shadowOffsetOuter1"/><feGaussianBlur stdDeviation="5" in="shadowOffsetOuter1" result="shadowBlurOuter1"/><feColorMatrix values="0 0 0 0 0 0 0 0 0 0 0 0 0 0 0 0 0 0 0.2 0" in="shadowBlurOuter1"/></filter><linearGradient x1="50%" y1="50%" x2="0%" y2="12.444%" id="d"><stop stop-color="#FFB729" offset="0%"/><stop stop-color="#5BAFF2" offset="100%"/></linearGradient><linearGradient x1="0%" y1="12.444%" x2="50%" y2="50%" id="c"><stop stop-color="#FFF" stop-opacity=".9" offset="0%"/><stop stop-color="#FFF" stop-opacity="0" offset="100%"/></linearGradient><linearGradient x1="100%" y1="37.5%" x2="33.191%" y2="47.722%" id="f"><stop stop-color="#3D3835" offset="0%"/><stop stop-color="#33618E" offset="100%"/></linearGradient><linearGradient x1="69.727%" y1="39.208%" x2="50%" y2="50%" id="e"><stop stop-color="#FFF" stop-opacity="0" offset="0%"/><stop stop-color="#FFF" stop-opacity=".9" offset="100%"/></linearGradient><linearGradient x1="81.171%" y1="52.486%" x2="50%" y2="50%" id="a"><stop stop-color="#FFF" stop-opacity="0" offset="0%"/><stop stop-color="#FFF" stop-opacity=".6" offset="100%"/></linearGradient><linearGradient x1="100%" y1="49.426%" x2="33.191%" y2="49.895%" id="b"><stop stop-color="#3D3835" offset="0%"/><stop stop-color="#33618E" offset="100%"/></linearGradient><radialGradient cx="50%" cy="50%" fx="50%" fy="50%" r="80.894%" id="m"><stop stop-color="#FED17F" offset="0%"/><stop stop-color="#FFFBCE" offset="100%"/></radialGradient><radialGradient cx="-298.744%" cy="56.892%" fx="-298.744%" fy="56.892%" r="652.792%" gradientTransform="scale(1 .15625) rotate(39.414 -7.276 2.105)" id="l"><stop stop-color="#FFF" stop-opacity=".802" offset="0%"/><stop stop-color="#5B72F6" stop-opacity=".249" offset="100%"/></radialGradient><radialGradient cx="9.646%" cy="9.7%" fx="9.646%" fy="9.7%" r="58.979%" gradientTransform="matrix(.32946 .91987 -1.16887 .59332 .178 -.05)" id="i"><stop stop-color="#FFF" stop-opacity=".973" offset="0%"/><stop stop-color="#FFF" stop-opacity="0" offset="100%"/></radialGradient><radialGradient cx="7.442%" cy="6.816%" fx="7.442%" fy="6.816%" r="98.771%" gradientTransform="scale(.84 1) rotate(61.786 .082 .08)" id="j"><stop stop-color="#95BFFF" offset="0%"/><stop stop-color="#E6B44F" offset="100%"/></radialGradient><radialGradient cx="9.646%" cy="9.7%" fx="9.646%" fy="9.7%" r="347.765%" gradientTransform="matrix(.05588 .156 -1.51036 .0132 .238 .08)" id="k"><stop stop-color="#FFF" stop-opacity=".973" offset="0%"/><stop stop-color="#FFF" stop-opacity="0" offset="100%"/></radialGradient><circle id="r" cx="102" cy="104" r="12"/><circle id="u" cx="90" cy="108" r="12"/><path d="M60 32c16.569 0 30 13.431 30 30 0 16.569-13.431 30-30 30-16.569 0-30-13.431-30-30 0-16.569 13.431-30 30-30zm0 6c-13.255 0-24 10.745-24 24s10.745 24 24 24 24-10.745 24-24-10.745-24-24-24zm0 18a6 6 0 1 1 0 12 6 6 0 0 1 0-12z" id="o"/><path d="M18 20h84a8 8 0 0 1 8 8v68a8 8 0 0 1-8 8H18a8 8 0 0 1-8-8V28a8 8 0 0 1 8-8z" id="h"/></defs><g fill="none" fill-rule="evenodd"><path d="M94.972.25a9.75 9.75 0 0 1 5.409 1.638l14.793 9.862H4.826l14.793-9.862A9.75 9.75 0 0 1 25.028.25z" stroke="url(#a)" stroke-width=".5" fill="url(#b)" opacity=".8"/><path d="M110 10.25a9.72 9.72 0 0 1 6.894 2.856A9.72 9.72 0 0 1 119.75 20v84a9.72 9.72 0 0 1-2.856 6.894A9.72 9.72 0 0 1 110 113.75H10a9.72 9.72 0 0 1-6.894-2.856A9.72 9.72 0 0 1 .25 104V20a9.72 9.72 0 0 1 2.856-6.894A9.72 9.72 0 0 1 10 10.25h100z" stroke="url(#c)" stroke-width=".5" fill-opacity=".7" fill="url(#d)"/><path d="m21.533 114.25-2.554 3.83a3.75 3.75 0 0 1-3.12 1.67H12c-.483 0-.92-.196-1.237-.513A1.745 1.745 0 0 1 10.25 118v-3.75h11.283zM98.467 114.25h11.283V118c0 .483-.196.92-.513 1.237a1.745 1.745 0 0 1-1.237.513h-3.86a3.75 3.75 0 0 1-3.12-1.67l-2.553-3.83z" stroke="url(#e)" stroke-width=".5" fill="url(#f)" opacity=".8"/><g opacity=".6"><use fill="#000" filter="url(#g)" xlink:href="#h"/><path stroke="url(#i)" stroke-width=".5" d="M102 20.25c2.14 0 4.078.867 5.48 2.27a7.726 7.726 0 0 1 2.27 5.48v68c0 2.14-.867 4.078-2.27 5.48a7.726 7.726 0 0 1-5.48 2.27H18a7.726 7.726 0 0 1-5.48-2.27A7.726 7.726 0 0 1 10.25 96V28c0-2.14.867-4.078 2.27-5.48A7.726 7.726 0 0 1 18 20.25z" stroke-linejoin="square" fill="url(#j)"/></g><circle fill="#FFEB00" opacity=".5" cx="101" cy="29" r="3"/><path d="M11 74.25c1.036 0 1.973.42 2.652 1.098A3.738 3.738 0 0 1 14.75 78v12c0 1.036-.42 1.973-1.098 2.652A3.738 3.738 0 0 1 11 93.75H9a3.738 3.738 0 0 1-2.652-1.098A3.738 3.738 0 0 1 5.25 90V78c0-1.036.42-1.973 1.098-2.652A3.738 3.738 0 0 1 9 74.25zm0-44c1.036 0 1.973.42 2.652 1.098A3.738 3.738 0 0 1 14.75 34v12c0 1.036-.42 1.973-1.098 2.652A3.738 3.738 0 0 1 11 49.75H9a3.738 3.738 0 0 1-2.652-1.098A3.738 3.738 0 0 1 5.25 46V34c0-1.036.42-1.973 1.098-2.652A3.738 3.738 0 0 1 9 30.25z" stroke="url(#k)" stroke-width=".5" fill="url(#l)" opacity=".6"/><path d="M64 37v8l-1.733 14.733L77 58h8v8h-8l-14.733-1.733L64 79v8h-8v-8l1.733-14.733L43 66h-8v-8h8l14.733 1.733L56 45v-8h8z" fill="url(#m)" transform="rotate(20 60 62)"/><use fill="#000" filter="url(#n)" xlink:href="#o"/><use fill="#FEF6DE" xlink:href="#o"/><use fill="#000" filter="url(#p)" xlink:href="#o"/><g><use fill="#000" filter="url(#q)" xlink:href="#r"/><use fill="#FFEB00" xlink:href="#r"/><use fill="#000" filter="url(#s)" xlink:href="#r"/><circle stroke="#FFDB00" stroke-width="4" stroke-linejoin="square" cx="102" cy="104" r="10"/></g><g><use fill="#000" filter="url(#t)" xlink:href="#u"/><use fill="#FFEB00" xlink:href="#u"/><use fill="#000" filter="url(#v)" xlink:href="#u"/><circle stroke="#FFDB00" stroke-width="4" stroke-linejoin="square" cx="90" cy="108" r="10"/></g></g></svg>