<svg width="24" height="24" xmlns="http://www.w3.org/2000/svg"><path d="M8.879 1.464 11.414 4h1.171l2.536-2.536a1 1 0 0 1 1.415 1.415l-1.122 1.12L20 4a3 3 0 0 1 3 3v2c0 .888-.386 1.686-1 2.235V19a3 3 0 0 1-3 3H5a3 3 0 0 1-3-3v-7.764C1.386 10.686 1 9.89 1 9V7a3 3 0 0 1 3-3h4.585l-1.12-1.121a1 1 0 0 1 1.414-1.415zM20 12h-7v3a1 1 0 0 1-2 0v-3H4v7a1 1 0 0 0 .883.993L5 20h14a1 1 0 0 0 .993-.883L20 19v-7zm0-6H4a1 1 0 0 0-.993.883L3 7v2a1 1 0 0 0 .883.993L4 10h7V9a1 1 0 0 1 2 0v1h7a1 1 0 0 0 .993-.883L21 9V7a1 1 0 0 0-1-1z" fill="#6E7585" fill-rule="nonzero" opacity=".5"/></svg>