<svg width="24" height="24" xmlns="http://www.w3.org/2000/svg"><path d="M12 4c1.755 0 3.392.42 4.91 1.262L15.424 6.75A7.992 7.992 0 0 0 12 6c-2.84 0-5.305 1.361-7.492 4.228l-.225.302-.232.324a2 2 0 0 0 0 2.292c.742 1.061 1.516 1.942 2.324 2.649l-1.414 1.417c-.899-.801-1.748-1.775-2.549-2.92a4 4 0 0 1-.12-4.401l.12-.182.243-.341C5.265 5.789 8.381 4 12 4zm2.83 9A3.008 3.008 0 0 1 13 14.83l-2.943 2.942A8.19 8.19 0 0 0 12 18c2.84 0 5.305-1.361 7.492-4.228l.225-.302.232-.324a2 2 0 0 0 0-2.292 16.429 16.429 0 0 0-1.317-1.658zM12 9c.351 0 .689.06 1.002.171L9.17 13A3 3 0 0 1 12 9zM7.343 20.485a1 1 0 1 1-1.414-1.414L20.07 4.93a1 1 0 0 1 1.414 1.414l-1.438 1.438c.532.577 1.046 1.22 1.54 1.928a4 4 0 0 1 .12 4.4l-.12.182-.242.341C18.735 18.211 15.619 20 12 20c-1.24 0-2.42-.21-3.54-.63l-1.117 1.115z" fill="#6E7585" fill-rule="nonzero" opacity=".5"/></svg>