<svg width="48" height="48" xmlns="http://www.w3.org/2000/svg"><path d="M22 6v21.171l-3.657-3.656a2 2 0 0 0-2.701-.117l-.127.117a2 2 0 0 0 0 2.828l7.07 7.071a2.012 2.012 0 0 0 .883.514 1.856 1.856 0 0 0 .328.062l.055.005.038.002.03.001h.031L24 34h.05l.03-.002.03-.001.094-.007.038-.005a2.009 2.009 0 0 0 .322-.066 1.97 1.97 0 0 0 .697-.367l.026-.021.009-.007c.04-.035.08-.072.118-.11l7.071-7.07a2 2 0 0 0-2.828-2.83L26 27.172V6h14a6 6 0 0 1 6 6v26a6 6 0 0 1-6 6H8a6 6 0 0 1-6-6V12a6 6 0 0 1 6-6h14zm2-4a2 2 0 0 1 2 2v2h-4V4a2 2 0 0 1 2-2z" fill="#6E7585" fill-rule="nonzero" opacity=".5"/></svg>