<?xml version="1.0" encoding="UTF-8"?>
<svg width="24px" height="24px" viewBox="0 0 24 24" version="1.1" xmlns="http://www.w3.org/2000/svg" xmlns:xlink="http://www.w3.org/1999/xlink">
    <title>帮助中心图标备份 37</title>
    <g id="扩展程序" stroke="none" stroke-width="1" fill="none" fill-rule="evenodd">
        <g id="资产" transform="translate(-112.000000, -483.000000)">
            <g id="编组-3" transform="translate(100.000000, 475.000000)">
                <g id="编组" transform="translate(12.000000, 8.000000)">
                    <circle id="椭圆形" cx="12" cy="12" r="12"></circle>
                    <g id="编组-2" transform="translate(4.000000, 5.000000)" fill="#6E7585">
                        <path d="M10,8 C11.3062521,8 12.4175144,8.8348501 12.8293257,10.0000889 L15,10 C15.5522847,10 16,10.4477153 16,11 C16,11.5522847 15.5522847,12 15,12 L12.8289758,12.0009007 C12.4168852,13.1656226 11.3058822,14 10,14 C8.69411778,14 7.58311485,13.1656226 7.17102423,12.0009007 L1,12 C0.44771525,12 6.76353751e-17,11.5522847 0,11 C-6.76353751e-17,10.4477153 0.44771525,10 1,10 L7.17067428,10.0000889 C7.58248558,8.8348501 8.69374794,8 10,8 Z M10,10 C9.44771525,10 9,10.4477153 9,11 C9,11.5522847 9.44771525,12 10,12 C10.5522847,12 11,11.5522847 11,11 C11,10.4477153 10.5522847,10 10,10 Z M6,0 C7.30625206,0 8.41751442,0.834850101 8.82932572,2.00008893 L15,2 C15.5522847,2 16,2.44771525 16,3 C16,3.55228475 15.5522847,4 15,4 L8.82897577,4.00090072 C8.41688515,5.16562257 7.30588222,6 6,6 C4.69411778,6 3.58311485,5.16562257 3.17102423,4.00090072 L1,4 C0.44771525,4 6.76353751e-17,3.55228475 0,3 C-6.76353751e-17,2.44771525 0.44771525,2 1,2 L3.17067428,2.00008893 C3.58248558,0.834850101 4.69374794,0 6,0 Z M6,2 C5.44771525,2 5,2.44771525 5,3 C5,3.55228475 5.44771525,4 6,4 C6.55228475,4 7,3.55228475 7,3 C7,2.44771525 6.55228475,2 6,2 Z" id="矩形-2备份"></path>
                    </g>
                </g>
            </g>
        </g>
    </g>
</svg>