<?xml version="1.0" encoding="UTF-8"?>
<svg width="24px" height="24px" viewBox="0 0 24 24" version="1.1" xmlns="http://www.w3.org/2000/svg" xmlns:xlink="http://www.w3.org/1999/xlink">
    <title>矩形</title>
    <g id="扩展程序" stroke="none" stroke-width="1" fill="none" fill-rule="evenodd">
        <g id="资产" transform="translate(-26.000000, -552.000000)">
            <g id="底部菜单" transform="translate(0.000000, 528.000000)">
                <g id="编组-7" transform="translate(26.000000, 24.000000)">
                    <rect id="矩形" x="0" y="0" width="24" height="24"></rect>
                    <path d="M22.860893,16.6229145 C22.9524368,16.9085277 23,17.2014866 23,17.5 C23,20.5375661 18.0751322,23 12,23 C5.92486775,23 1,20.5375661 1,17.5 C1,17.2014866 1.04756317,16.9085277 1.139107,16.6229145 C3.46494787,18.6578187 7.46078846,20 12,20 C16.4726011,20 20.4176616,18.6969212 22.756773,16.7129223 L22.860893,16.6229145 Z M22.5275387,10.9003939 C22.8347817,11.4065704 23,11.943638 23,12.5 C23,15.5375661 18.0751322,18 12,18 C5.92486775,18 1,15.5375661 1,12.5 C1,11.943638 1.16521826,11.4065704 1.47246127,10.9003939 C3.83439085,12.7786745 7.66997369,14 12,14 C16.237201,14 20.0009307,12.8304778 22.374251,11.020436 L22.5275387,10.9003939 Z M12,1 C18.0751322,1 23,3.46243388 23,6.5 C23,9.53756612 18.0751322,12 12,12 C5.92486775,12 1,9.53756612 1,6.5 C1,3.46243388 5.92486775,1 12,1 Z" id="形状结合" fill="#6E7585" fill-rule="nonzero"></path>
                </g>
            </g>
        </g>
    </g>
</svg>