<svg width="24" height="24" xmlns="http://www.w3.org/2000/svg"><g transform="translate(1 1)" fill="none" fill-rule="evenodd" opacity=".5"><circle stroke="#6e7585" stroke-width="2" cx="11" cy="11" r="10"/><path d="m14.172 5.753 2.535 2.535c.027.027.053.056.076.086l-.076-.086a1.007 1.007 0 0 1 .293.708v.033l-.004.052.004-.085a1.008 1.008 0 0 1-.216.62 1.01 1.01 0 0 1-.167.167l.09-.08a1.008 1.008 0 0 1-.707.293H6a1 1 0 1 1 0-2l7.585-.001-.828-.828a1 1 0 1 1 1.415-1.414zM16 11.996a1 1 0 0 1 0 2l-7.586-.001.829.829a1 1 0 0 1-1.415 1.414l-2.535-2.535-.073-.082a1.003 1.003 0 0 1-.003-.004l.076.086A1.007 1.007 0 0 1 5 12.996v-.02c0-.023.002-.046.004-.07l-.004.09a1.008 1.008 0 0 1 .216-.622 1.01 1.01 0 0 1 .167-.166l-.09.08A1.008 1.008 0 0 1 6 11.996h10z" fill="#6e7585" fill-rule="nonzero"/></g></svg>