<?xml version="1.0" encoding="UTF-8"?>
<svg width="24px" height="24px" viewBox="0 0 24 24" version="1.1" xmlns="http://www.w3.org/2000/svg" xmlns:xlink="http://www.w3.org/1999/xlink">
    <title>形状结合</title>
    <g id="扩展程序" stroke="none" stroke-width="1" fill="none" fill-rule="evenodd">
        <g id="Swap" transform="translate(-251.000000, -552.000000)" fill="#6E7585">
            <g id="底部菜单" transform="translate(0.000000, 528.000000)">
                <g id="兑换" transform="translate(251.000000, 24.000000)">
                    <g id="编组" transform="translate(1.000000, 1.000000)">
                        <path d="M11,0 C17.0751322,0 22,4.92486775 22,11 C22,17.0751322 17.0751322,22 11,22 C4.92486775,22 0,17.0751322 0,11 C0,4.92486775 4.92486775,0 11,0 Z M16,11.9955339 L5.98346665,11.9956667 L5.98346665,11.9956667 L5.96774538,11.996051 C5.94973363,11.9966286 5.93173451,11.9976903 5.91293499,11.9992716 C5.89006512,12.001244 5.86741534,12.0039863 5.84553204,12.0074663 C5.83277508,12.00945 5.82004914,12.0116811 5.80711987,12.0141193 C5.78108174,12.0192072 5.75540524,12.0253056 5.73001959,12.032484 C5.71691515,12.0361448 5.70387074,12.0400775 5.69122834,12.0441139 C5.66770743,12.051742 5.6445685,12.060218 5.62171547,12.0695641 C5.60661126,12.075727 5.59162726,12.0822747 5.57690085,12.0891877 C5.56163784,12.096325 5.54658483,12.1038364 5.53173234,12.1116466 C5.51190091,12.1221615 5.49234887,12.1333905 5.47353236,12.1451771 C5.45242031,12.1582756 5.4318321,12.1721384 5.41159595,12.186788 C5.3700798,12.2170713 5.33036927,12.2509511 5.29289322,12.2884271 L5.294,12.286 L5.375,12.215 L5.29502954,12.2862985 L5.29502954,12.2862985 L5.21624472,12.3743144 C5.20595004,12.3872695 5.19602294,12.4004208 5.1868509,12.4133472 C5.17226707,12.4336806 5.15842699,12.4545835 5.14531687,12.4759377 C5.1389112,12.4864553 5.13271731,12.4970656 5.12681067,12.5077842 C5.11503374,12.5288226 5.10399512,12.5503303 5.09375718,12.5721329 L5.09375718,12.5721329 L5.06937575,12.6288276 C5.06288066,12.6452975 5.05681015,12.6619812 5.05107328,12.679345 C5.04514099,12.697195 5.03972549,12.7151791 5.03489399,12.7327194 C5.02932352,12.7532238 5.02438904,12.77399 5.02019747,12.7950172 C5.01681234,12.8116366 5.01385272,12.8283254 5.01121459,12.8452712 L5.01121459,12.8452712 L5.003,12.913 L5.001,12.976 L5.001,12.941 L5.00017973,12.9765158 L5.00019915,13.0155528 C5.00065889,13.0386577 5.00191465,13.0617496 5.00391025,13.0845772 L5.00391025,13.0845772 L5.01131861,13.1460016 C5.01385272,13.1627424 5.01681234,13.1794312 5.02011305,13.1960722 C5.02438904,13.2170778 5.02932352,13.2378441 5.03482678,13.2577939 C5.03972549,13.2758888 5.04514099,13.2938728 5.0511777,13.3122025 C5.05681015,13.3290866 5.06288066,13.3457704 5.06925531,13.3618965 C5.07680529,13.381106 5.08497258,13.400129 5.09372989,13.4187958 C5.10399512,13.4407376 5.11503374,13.4622452 5.1267352,13.4833054 C5.13271731,13.4940022 5.1389112,13.5046125 5.14537046,13.5150517 C5.15842699,13.5364844 5.17226707,13.5573872 5.1864634,13.5773135 L5.1864634,13.5773135 L5.224,13.625 L5.29289322,13.7026407 L7.82842712,16.2381746 C8.21895142,16.6286989 8.8521164,16.6286989 9.24264069,16.2381746 C9.63316498,15.8476503 9.63316498,15.2144853 9.24264069,14.823961 L9.24264069,14.823961 L8.414,13.995 L16,13.9955339 C16.5522847,13.9955339 17,13.5478187 17,12.9955339 C17,12.4432492 16.5522847,11.9955339 16,11.9955339 L16,11.9955339 Z M16.7071068,8.28842712 L14.1715729,5.75289322 C13.7810486,5.36236893 13.1478836,5.36236893 12.7573593,5.75289322 C12.366835,6.14341751 12.366835,6.77658249 12.7573593,7.16710678 L12.7573593,7.16710678 L13.585,7.995 L6,7.99553391 C5.44771525,7.99553391 5,8.44324916 5,8.99553391 C5,9.54781866 5.44771525,9.99553391 6,9.99553391 L6,9.99553391 L16.016765,9.99539591 L16.016765,9.99539591 L16.0332468,9.99498452 C16.050591,9.99441114 16.0679231,9.99338895 16.085811,9.99190361 C16.109107,9.98992376 16.1321752,9.98714526 16.154468,9.98360151 C16.1672249,9.98161779 16.1799509,9.97938673 16.1928801,9.97694851 C16.2189183,9.97186059 16.2445948,9.96576225 16.2699804,9.95858378 C16.2830848,9.95492306 16.2961293,9.95099034 16.3087717,9.94695387 C16.3322926,9.93932583 16.3554315,9.93084983 16.3782845,9.92150374 C16.3933887,9.9153408 16.4083727,9.90879307 16.4230991,9.90188013 C16.4383622,9.89474284 16.4534152,9.88723137 16.4682677,9.87942123 C16.4880991,9.86890636 16.5076511,9.85767734 16.5264676,9.84589072 C16.5475797,9.83279219 16.5681679,9.81892937 16.588404,9.80427986 C16.6299202,9.77399647 16.6696307,9.74011674 16.7071068,9.70264069 L16.705,9.704 L16.624,9.775 L16.7049705,9.70476927 L16.7049705,9.70476927 L16.7837553,9.61675344 C16.79405,9.60379836 16.8039771,9.59064705 16.8131491,9.57772056 C16.8277329,9.55738724 16.841573,9.53648436 16.8546831,9.51513011 C16.8610888,9.5046125 16.8672827,9.49400221 16.8731893,9.48328358 C16.8849663,9.46224518 16.8960049,9.44073755 16.9062428,9.41893493 L16.9062428,9.41893493 L16.9306242,9.36224023 C16.9371193,9.34577035 16.9431898,9.32908662 16.9489267,9.31172286 C16.954859,9.29387285 16.9602745,9.27588875 16.965106,9.25834842 L16.965106,9.25834842 L16.9798025,9.19605064 C16.9831877,9.17943125 16.9861473,9.16274243 16.9887854,9.14579661 L16.9887854,9.14579661 L16.996384,9.08075814 L16.996384,9.08075814 L17,8.99553391 C17,8.98440729 16.9998183,8.97332312 16.9994578,8.96250574 C16.9988858,8.94508857 16.9978612,8.9276835 16.9964311,8.91044823 C16.9945829,8.88851337 16.9920267,8.86678005 16.9886814,8.84506618 C16.9861473,8.82832539 16.9831877,8.81163657 16.979887,8.7949956 C16.975611,8.77398999 16.9706765,8.75322376 16.9651732,8.73327387 C16.9602745,8.71517906 16.954859,8.69719497 16.9488223,8.6788653 C16.9431898,8.66198119 16.9371193,8.64529746 16.9307447,8.62917128 C16.9231947,8.60996181 16.9150274,8.59093884 16.9062701,8.57227204 C16.8960049,8.55033026 16.8849663,8.52882263 16.8732648,8.50776245 C16.8672827,8.4970656 16.8610888,8.48645531 16.8546295,8.4760161 C16.841573,8.45458345 16.8277329,8.43368057 16.8135366,8.41375429 L16.8135366,8.41375429 L16.773,8.362 L16.769,8.357 L16.7633128,8.34942008 L16.7633128,8.34942008 L16.746,8.33 L16.762,8.349 L16.7071068,8.28842712 Z" id="椭圆形-2"></path>
                    </g>
                </g>
            </g>
        </g>
    </g>
</svg>