<svg width="24" height="24" xmlns="http://www.w3.org/2000/svg"><g fill="none" fill-rule="evenodd"><path d="M0 0h24v24H0z"/><path d="M12 1c6.075 0 11 2.686 11 6 0 .888-.353 1.73-.987 2.488l-.01.012c.64.76.997 1.608.997 2.5 0 .888-.353 1.73-.987 2.488l-.01.012c.64.76.997 1.608.997 2.5 0 3.314-4.925 6-11 6S1 20.314 1 17c0-.892.357-1.74.998-2.5l-.01-.012C1.352 13.73 1 12.888 1 12c0-.892.357-1.74.998-2.5l-.01-.012C1.352 8.73 1 7.888 1 7c0-3.314 4.925-6 11-6zm0 17c-3.461 0-6.55-.872-8.566-2.235l.003.002C3.153 16.155 3 16.569 3 17c0 2.21 4.03 4 9 4s9-1.79 9-4c0-.43-.153-.845-.436-1.234l.02-.013C18.566 17.123 15.471 18 12 18zm8.583-7.247C18.567 12.123 15.472 13 12 13c-3.317 0-6.291-.8-8.308-2.067l-.255-.167-.113.169A2 2 0 0 0 3 12c0 2.21 4.03 4 9 4s9-1.79 9-4c0-.43-.153-.845-.436-1.234l.02-.013zM12 3C7.03 3 3 4.79 3 7s4.03 4 9 4 9-1.79 9-4-4.03-4-9-4z" fill="#6E7585" fill-rule="nonzero" opacity=".5"/></g></svg>