<svg width="24" height="24" xmlns="http://www.w3.org/2000/svg"><path d="m15.08 1.428.407.137c1.407.47 2.701 1.22 3.808 2.202l.322.285.064 1.886a3 3 0 0 0 1.408 2.44l1.606 1.002.085.422a11.046 11.046 0 0 1 0 4.396l-.085.422-1.605 1a3 3 0 0 0-1.41 2.44l-.063 1.888-.322.285a10.989 10.989 0 0 1-3.808 2.202l-.407.137-1.67-.89a3 3 0 0 0-2.82 0l-1.67.89-.407-.137c-1.407-.47-2.7-1.22-3.807-2.201l-.321-.285-.066-1.887a3 3 0 0 0-1.408-2.44L1.305 14.62l-.085-.422a11.046 11.046 0 0 1 0-4.396l.085-.422 1.605-1a3 3 0 0 0 1.41-2.442l.065-1.887.32-.285a10.989 10.989 0 0 1 3.809-2.202l.407-.136 1.67.89a3 3 0 0 0 2.818 0l1.671-.89zM12 9a3 3 0 1 0 0 6 3 3 0 0 0 0-6z" fill="#6e7585" fill-rule="nonzero"/></svg>