<svg width="24" height="24" xmlns="http://www.w3.org/2000/svg"><g fill="none" fill-rule="evenodd"><path d="M0 0h24v24H0z"/><path d="M4.786 6.422c2.107 7.09 8.243 12.449 15.754 13.42l.02.73a3 3 0 0 1-2.74 3.072l-.176.01a3 3 0 0 1-1.087-.172L12 21.86l-4.557 1.62a3 3 0 0 1-3.767-1.656l-.064-.165a3 3 0 0 1-.173-1.087l.133-4.835-2.949-3.833a3 3 0 0 1 .402-4.086l.147-.12a3 3 0 0 1 .98-.5zm4.74-4.58a3 3 0 0 1 4.949 0l2.733 3.988 4.64 1.368a3 3 0 0 1 2.074 3.556l-.045.17a3 3 0 0 1-.5.981l-2.95 3.833.057 2.077c-6.575-.976-11.922-5.716-13.78-11.959l.087-.026z" fill="#6e7585" fill-rule="nonzero"/></g></svg>