<?xml version="1.0" encoding="UTF-8"?>
<svg width="24px" height="24px" viewBox="0 0 24 24" version="1.1" xmlns="http://www.w3.org/2000/svg" xmlns:xlink="http://www.w3.org/1999/xlink">
    <title>形状结合备份 2</title>
    <g id="扩展程序" stroke="none" stroke-width="1" fill="none" fill-rule="evenodd">
        <g id="设置" transform="translate(-326.000000, -1347.000000)" fill="#6E7585" fill-rule="nonzero">
            <g id="底部菜单" transform="translate(0.000000, 1323.000000)">
                <g id="设置" transform="translate(326.000000, 24.000000)">
                    <g id="编组" transform="translate(1.000000, 1.428086)">
                        <path d="M14.0799584,0.000400074105 L14.4873533,0.136489226 C15.8941079,0.606411662 17.1882597,1.35738426 18.2952213,2.33891812 L18.2952213,2.33891812 L18.6166191,2.62389894 L18.680691,4.51035357 C18.715251,5.50763223 19.2434218,6.42245092 20.0893358,6.95072391 L20.0893358,6.95072391 L21.6945386,7.95192424 L21.7801344,8.37375684 C21.9259393,9.09231188 22,9.82764612 22,10.5719136 C22,11.3161811 21.9259393,12.0515153 21.7801344,12.7700704 L21.7801344,12.7700704 L21.6945386,13.191903 L20.0898105,14.1928071 C19.2434218,14.7213763 18.715251,15.636195 18.6807146,16.6327848 L18.6807146,16.6327848 L18.6166191,18.5199283 L18.2952213,18.8049091 C17.1882597,19.786443 15.8941079,20.5374156 14.4873533,21.007338 L14.4873533,21.007338 L14.0799584,21.1434271 L12.4091195,20.2543671 C11.5281708,19.7856577 10.4718292,19.7856577 9.59091709,20.2543477 L9.59091709,20.2543477 L7.92004164,21.1434271 L7.51264667,21.007338 C6.10636576,20.5375738 4.81260866,19.7869477 3.70588845,18.805893 L3.70588845,18.805893 L3.38469004,18.5211659 L3.31930903,16.6334736 C3.28474898,15.636195 2.75657817,14.7213763 1.91066416,14.1931033 L1.91066416,14.1931033 L0.305461353,13.191903 L0.219865602,12.7700704 C0.0740607021,12.0515153 0,11.3161811 0,10.5719136 C0,9.82764612 0.0740607021,9.09231188 0.219865602,8.37375684 L0.219865602,8.37375684 L0.305461353,7.95192424 L1.91018954,6.95102012 C2.75657817,6.42245092 3.28474898,5.50763223 3.31930837,4.51037247 L3.31930837,4.51037247 L3.38469004,2.62266134 L3.70588845,2.33793426 C4.81289797,1.35662305 6.10703923,0.605863379 7.51374081,0.136123795 L7.51374081,0.136123795 L7.92138276,0 L9.59088051,0.889460088 C10.4718292,1.35816954 11.5281708,1.35816954 12.4090829,0.889479553 L12.4090829,0.889479553 L14.0799584,0.000400074105 Z M11,7.57191361 C9.34314575,7.57191361 8,8.91505936 8,10.5719136 C8,12.2287679 9.34314575,13.5719136 11,13.5719136 C12.6568542,13.5719136 14,12.2287679 14,10.5719136 C14,8.91505936 12.6568542,7.57191361 11,7.57191361 Z" id="星形-2"></path>
                    </g>
                </g>
            </g>
        </g>
    </g>
</svg>