<svg width="24" height="24" xmlns="http://www.w3.org/2000/svg"><g transform="translate(2 2.214)" stroke="#6e7585" stroke-width="2" fill="none" fill-rule="evenodd" opacity=".5"><path d="M13.17.3a9.99 9.99 0 0 1 3.462 2.002l.05 1.457a4 4 0 0 0 1.878 3.255l1.24.773a10.046 10.046 0 0 1 0 3.999l-1.24.773a4 4 0 0 0-1.879 3.254l-.05 1.458a9.99 9.99 0 0 1-3.46 2.002l-1.292-.687a4 4 0 0 0-3.758 0l-1.292.687a9.99 9.99 0 0 1-3.46-2.001l-.05-1.459a4 4 0 0 0-1.88-3.254L.2 11.786a10.046 10.046 0 0 1 0-3.999l1.24-.773a4 4 0 0 0 1.88-3.255l.05-1.458A9.99 9.99 0 0 1 6.83.299l1.291.688a4 4 0 0 0 3.758 0z"/><circle cx="10" cy="9.786" r="3"/></g></svg>