<?xml version="1.0" encoding="UTF-8"?>
<svg width="25px" height="24px" viewBox="0 0 25 24" version="1.1" xmlns="http://www.w3.org/2000/svg" xmlns:xlink="http://www.w3.org/1999/xlink">
    <title>矩形备份 9</title>
    <g id="扩展程序" stroke="none" stroke-width="1" fill="none" fill-rule="evenodd">
        <g id="NFT" transform="translate(-175.000000, -552.000000)">
            <g id="底部菜单" transform="translate(0.000000, 528.000000)">
                <g id="编组-7" transform="translate(175.500000, 24.000000)">
                    <rect id="矩形" x="0" y="0" width="24" height="24"></rect>
                    <g id="编组" opacity="0.5" transform="translate(1.000000, 1.000000)" stroke="#6E7585" stroke-width="2">
                        <circle id="椭圆形" cx="11" cy="11" r="10"></circle>
                        <path d="M9.73531602,8.68486456 L13.7021374,6.98479825 C14.2097672,6.76724263 14.7976461,7.00239419 15.0152018,7.51002398 C15.1230084,7.76157277 15.1230084,8.04631378 15.0152018,8.29786258 L13.3151354,12.264684 C13.112837,12.7367137 12.7367137,13.112837 12.264684,13.3151354 L8.29786258,15.0152018 C7.79023279,15.2327574 7.20235387,14.9976058 6.98479825,14.489976 C6.87699162,14.2384272 6.87699162,13.9536862 6.98479825,13.7021374 L8.68486456,9.73531602 C8.88716303,9.26328627 9.26328627,8.88716303 9.73531602,8.68486456 Z" id="矩形" stroke-linejoin="round"></path>
                    </g>
                </g>
            </g>
        </g>
    </g>
</svg>