<?xml version="1.0" encoding="UTF-8"?>
<svg width="24px" height="24px" viewBox="0 0 24 24" version="1.1" xmlns="http://www.w3.org/2000/svg" xmlns:xlink="http://www.w3.org/1999/xlink">
    <title>矩形备份 8</title>
    <g id="扩展程序" stroke="none" stroke-width="1" fill="none" fill-rule="evenodd">
        <g id="NFT" transform="translate(-101.000000, -552.000000)">
            <g id="底部菜单" transform="translate(0.000000, 528.000000)">
                <g id="编组-7" transform="translate(100.000000, 24.000000)">
                    <rect id="矩形" x="1" y="0" width="24" height="24"></rect>
                    <g id="星形-2" fill="#6E7585" fill-rule="nonzero">
                        <path d="M5.78553448,6.42165438 C7.89304917,13.5129395 14.0286668,18.8706338 21.5397217,19.8420718 L21.5605989,20.5725894 C21.604524,22.1696664 20.3919815,23.5094893 18.8202782,23.6439975 L18.8202782,23.6439975 L18.6442121,23.6539346 C18.2741481,23.6641126 17.9053966,23.6057081 17.55659,23.4816722 L17.55659,23.4816722 L13,21.861 L8.44341001,23.4816722 C6.93807319,24.0169714 5.2891296,23.277803 4.67552166,21.8245897 L4.67552166,21.8245897 L4.61166353,21.6602115 C4.48762758,21.3114049 4.42922308,20.9426534 4.43940112,20.5725894 L4.43940112,20.5725894 L4.572,15.738 L1.62327363,11.9054402 C0.651774882,10.6428039 0.841345727,8.8527753 2.02474348,7.81874339 L2.02474348,7.81874339 L2.17151087,7.69837048 C2.46491643,7.47261811 2.79757198,7.30312165 3.15266894,7.19844547 L3.15266894,7.19844547 Z M10.5253864,1.84185268 C11.4620404,0.475161337 13.3292708,0.126547208 14.6959621,1.06320123 C15.0013327,1.27248519 15.2653296,1.53648212 15.4746136,1.84185268 L15.4746136,1.84185268 L18.208,5.83 L22.8473311,7.19844547 C24.3798151,7.65019411 25.2793662,9.2174186 24.9216081,10.7537626 L24.9216081,10.7537626 L24.8766514,10.9242822 C24.7719752,11.2793791 24.6024787,11.6120347 24.3767264,11.9054402 L24.3767264,11.9054402 L21.427,15.738 L21.484294,17.8150317 C14.9094152,16.8394372 9.56224316,12.0993169 7.70456541,5.85645813 L7.791,5.83 Z" id="星形备份"></path>
                    </g>
                </g>
            </g>
        </g>
    </g>
</svg>