<?xml version="1.0" encoding="UTF-8"?>
<svg width="24px" height="24px" viewBox="0 0 24 24" version="1.1" xmlns="http://www.w3.org/2000/svg" xmlns:xlink="http://www.w3.org/1999/xlink">
    <title>矩形备份 8</title>
    <g id="扩展程序" stroke="none" stroke-width="1" fill="none" fill-rule="evenodd">
        <g id="Dapp" transform="translate(-101.000000, -552.000000)">
            <g id="底部菜单" transform="translate(0.000000, 528.000000)">
                <g id="编组-7" transform="translate(100.000000, 24.000000)">
                    <rect id="矩形" x="1" y="0" width="24" height="24"></rect>
                    <g id="星形-2" opacity="0.5" stroke="#6E7585" stroke-width="2">
                        <path d="M13,20.8 L8.10836238,22.539471 C7.06763568,22.9095544 5.92394812,22.3658906 5.55386472,21.3251639 C5.47117409,21.0926262 5.43223775,20.8467918 5.43902311,20.6000825 L5.58175917,15.4103326 L5.58175917,15.4103326 L2.4158248,11.2956348 C1.74225233,10.420207 1.90588845,9.16449411 2.78131629,8.49092164 C2.97692,8.34042007 3.19869036,8.22742242 3.43542167,8.15763831 L8.41527503,6.68966744 L8.41527503,6.68966744 L11.3502576,2.4071734 C11.9746936,1.49604583 13.2195139,1.26363641 14.1306414,1.88807243 C14.3342218,2.02759507 14.5102198,2.20359302 14.6497424,2.4071734 L17.584725,6.68966744 L17.584725,6.68966744 L22.5645783,8.15763831 C23.6240735,8.46995835 24.2297786,9.58203429 23.9174585,10.6415294 C23.8476744,10.8782607 23.7346768,11.1000311 23.5841752,11.2956348 L20.4182408,15.4103326 L20.4182408,15.4103326 L20.5609769,20.6000825 C20.5913449,21.7042345 19.720871,22.6239446 18.616719,22.6543126 C18.3700097,22.661098 18.1241753,22.6221616 17.8916376,22.539471 L13,20.8 L13,20.8 Z" id="星形"></path>
                    </g>
                </g>
            </g>
        </g>
    </g>
</svg>