<svg width="24" height="24" xmlns="http://www.w3.org/2000/svg"><path d="M12 1c6.075 0 11 4.925 11 11s-4.925 11-11 11S1 18.075 1 12 5.925 1 12 1zm5 11.996H6.968a1.051 1.051 0 0 0-.277.048.991.991 0 0 0-.398.244l.001-.002.081-.071-.08.071-.079.088a.905.905 0 0 0-.09.134 1.016 1.016 0 0 0-.032.064l-.025.057a.946.946 0 0 0-.058.216l-.008.068-.002.063v-.035.075c0 .023 0 .046.003.069l.007.061a1.116 1.116 0 0 0 .058.216.966.966 0 0 0 .117.215l.038.048.069.078 2.535 2.535a1 1 0 1 0 1.415-1.414l-.829-.829H17a1 1 0 1 0 0-2zm.707-3.708-2.535-2.535a1 1 0 0 0-1.415 1.414l.828.828H7a1 1 0 1 0 0 2h10.033a1.052 1.052 0 0 0 .276-.048.991.991 0 0 0 .398-.244l-.002.001-.081.071.081-.07.079-.088a.905.905 0 0 0 .09-.134l.032-.064.025-.057a.946.946 0 0 0 .034-.104l.015-.062.009-.05.007-.065.004-.085a.995.995 0 0 0-.186-.582l-.041-.052-.004-.005-.006-.008-.017-.019.016.019-.055-.06z" fill="#6e7585" fill-rule="evenodd"/></svg>