<svg width="24" height="24" xmlns="http://www.w3.org/2000/svg"><g fill="none" fill-rule="evenodd"><path d="M0 0h24v24H0z"/><path d="M22.86 16.623c.092.286.14.578.14.877 0 3.038-4.925 5.5-11 5.5S1 20.538 1 17.5c0-.299.048-.591.14-.877C3.464 18.658 7.46 20 12 20c4.473 0 8.418-1.303 10.757-3.287l.104-.09zm-.332-5.723c.307.507.472 1.044.472 1.6 0 3.038-4.925 5.5-11 5.5S1 15.538 1 12.5c0-.556.165-1.093.472-1.6C3.834 12.78 7.67 14 12 14c4.237 0 8-1.17 10.374-2.98l.154-.12zM12 1c6.075 0 11 2.462 11 5.5S18.075 12 12 12 1 9.538 1 6.5 5.925 1 12 1z" fill="#6E7585" fill-rule="nonzero"/></g></svg>