<?xml version="1.0" encoding="UTF-8"?>
<svg width="25px" height="24px" viewBox="0 0 25 24" version="1.1" xmlns="http://www.w3.org/2000/svg" xmlns:xlink="http://www.w3.org/1999/xlink">
    <title>矩形备份 9</title>
    <g id="扩展程序" stroke="none" stroke-width="1" fill="none" fill-rule="evenodd">
        <g id="Dapp" transform="translate(-175.000000, -552.000000)">
            <g id="底部菜单" transform="translate(0.000000, 528.000000)">
                <g id="编组-7" transform="translate(175.500000, 24.000000)">
                    <rect id="矩形" x="0" y="0" width="24" height="24"></rect>
                    <g id="编组" transform="translate(1.000000, 1.000000)" fill="#6E7585">
                        <path d="M11,0 C17.0751322,0 22,4.92486775 22,11 C22,17.0751322 17.0751322,22 11,22 C4.92486775,22 0,17.0751322 0,11 C0,4.92486775 4.92486775,0 11,0 Z M15.0152018,7.51002398 C14.7976461,7.00239419 14.2097672,6.76724263 13.7021374,6.98479825 L13.7021374,6.98479825 L9.73531602,8.68486456 C9.26328627,8.88716303 8.88716303,9.26328627 8.68486456,9.73531602 L8.68486456,9.73531602 L6.98479825,13.7021374 C6.87699162,13.9536862 6.87699162,14.2384272 6.98479825,14.489976 C7.20235387,14.9976058 7.79023279,15.2327574 8.29786258,15.0152018 L8.29786258,15.0152018 L12.264684,13.3151354 C12.7367137,13.112837 13.112837,12.7367137 13.3151354,12.264684 L13.3151354,12.264684 L15.0152018,8.29786258 C15.1230084,8.04631378 15.1230084,7.76157277 15.0152018,7.51002398 Z" id="椭圆形-2"></path>
                    </g>
                </g>
            </g>
        </g>
    </g>
</svg>