<?xml version="1.0" encoding="UTF-8"?>
<svg width="100px" height="100px" viewBox="0 0 100 100" version="1.1" xmlns="http://www.w3.org/2000/svg" xmlns:xlink="http://www.w3.org/1999/xlink">
    <title>蒙版</title>
    <defs>
        <linearGradient x1="50%" y1="0%" x2="50%" y2="100%" id="linearGradient-1">
            <stop stop-color="#FF3B30" offset="0%"></stop>
            <stop stop-color="#FF6D5D" stop-opacity="0" offset="100%"></stop>
        </linearGradient>
        <circle id="path-2" cx="50" cy="50" r="50"></circle>
        <radialGradient cx="8.00036176%" cy="9.14799972%" fx="8.00036176%" fy="9.14799972%" r="92.2383043%" gradientTransform="translate(0.080004,0.091480),scale(1.000000,0.996766),rotate(4.122598),translate(-0.080004,-0.091480)" id="radialGradient-4">
            <stop stop-color="#A87DE7" offset="0%"></stop>
            <stop stop-color="#3748FA" offset="100%"></stop>
        </radialGradient>
        <linearGradient x1="4.58211326%" y1="7.96411813%" x2="66.6662267%" y2="55.5309357%" id="linearGradient-5">
            <stop stop-color="#FFFFFF" stop-opacity="0.295350402" offset="0%"></stop>
            <stop stop-color="#FFFFFF" stop-opacity="0" offset="100%"></stop>
        </linearGradient>
        <radialGradient cx="9.2798126%" cy="50%" fx="9.2798126%" fy="50%" r="88.7862512%" gradientTransform="translate(0.092798,0.500000),scale(1.000000,0.996766),rotate(34.400738),translate(-0.092798,-0.500000)" id="radialGradient-6">
            <stop stop-color="#FFFFFF" stop-opacity="0.80159306" offset="0%"></stop>
            <stop stop-color="#889AFF" stop-opacity="0.301884151" offset="100%"></stop>
        </radialGradient>
        <radialGradient cx="9.64585919%" cy="9.70003214%" fx="9.64585919%" fy="9.70003214%" r="57.7940618%" gradientTransform="translate(0.096459,0.097000),scale(1.000000,0.996766),rotate(70.353268),scale(1.000000,1.512724),translate(-0.096459,-0.097000)" id="radialGradient-7">
            <stop stop-color="#FFFFFF" stop-opacity="0.973410866" offset="0%"></stop>
            <stop stop-color="#FFFFFF" stop-opacity="0" offset="100%"></stop>
        </radialGradient>
    </defs>
    <g id="扩展程序" stroke="none" stroke-width="1" fill="none" fill-rule="evenodd">
        <g id="铸造成功" transform="translate(-138.000000, -186.000000)">
            <g id="编组" transform="translate(40.000000, 136.000000)">
                <g id="16" transform="translate(98.000000, 50.000000)">
                    <mask id="mask-3" fill="white">
                        <use xlink:href="#path-2"></use>
                    </mask>
                    <use id="蒙版" fill="url(#linearGradient-1)" opacity="0.100000001" xlink:href="#path-2"></use>
                    <g mask="url(#mask-3)" id="8">
                        <g transform="translate(42.000000, 64.500000) rotate(-10.000000) translate(-42.000000, -64.500000) translate(-8.000000, 15.000000)">
                            <g transform="translate(0.000000, -0.000000)">
                                <path d="M28.9189626,23.0234276 L75.7313538,69.9877217 L7.93168629,98.2761824 C6.90079244,98.7063084 5.79149618,98.8033161 4.74255166,98.5947715 C3.69349285,98.3862042 2.70481782,97.8720259 1.91525687,97.0799028 C1.12547159,96.2875548 0.612888666,95.2953578 0.404939984,94.2426116 C0.1969689,93.189752 0.293690171,92.0763116 0.722634813,91.0415663 L0.722634813,91.0415663 L28.9189626,23.0234276 Z" id="矩形" stroke="url(#linearGradient-5)" stroke-width="0.599075609" fill="url(#radialGradient-4)"></path>
                                <path d="M31.6679317,21.8352394 L31.9126407,21.8424932 C33.2763135,21.9059651 34.9364242,22.358063 36.8177463,23.1481002 C40.6807129,24.7703039 45.4584313,27.8142298 50.5082075,31.9154851 L50.5082075,31.9154851 L51.279381,32.5482888 C52.3088146,33.4016647 53.3480696,34.2978003 54.3907516,35.2327609 L54.3907516,35.2327609 L55.1754832,35.943163 C56.4828811,37.1379954 57.7951911,38.3938371 59.1019787,39.7048651 C60.4087677,41.0158946 61.6605489,42.3324645 62.8505718,43.6430593 L62.8505718,43.6430593 L63.5586763,44.4303275 C64.4915647,45.4774562 65.3848055,46.5200878 66.2344771,47.5517097 L66.2344771,47.5517097 L66.8652322,48.3253714 C70.9542701,53.3928263 73.9884085,58.1861798 75.6054017,62.0617688 C76.3930236,63.9495311 76.8436966,65.6153374 76.9069741,66.9836701 C76.964552,68.2287537 76.7027658,69.2223621 76.0463957,69.8808622 C75.182694,70.7473665 73.748631,70.9318346 71.9244166,70.5958416 C69.9174603,70.2261903 67.4410194,69.2161867 64.6637008,67.6682251 C59.163434,64.6026058 52.4985896,59.4304926 45.9707411,52.8814617 C39.4428348,46.3323728 34.2874108,39.6458259 31.2316808,34.1276636 C29.6885855,31.341079 28.6817903,28.8563548 28.3133021,26.8427089 C27.9782145,25.0115842 28.1622473,23.5723453 29.0263241,22.7054647 C29.6823543,22.0473057 30.6722756,21.7847607 31.9126407,21.8424932 Z" id="椭圆形" stroke="url(#radialGradient-7)" stroke-width="0.599075609" fill="url(#radialGradient-6)"></path>
                                <polygon id="路径-2" fill="#FFDAFE" points="100 16.9581745 87.6291499 17.4770347 94.725712 30.3839066"></polygon>
                                <polygon id="路径-4" fill="#5B72F2" points="44.4872062 0.83908544 37.7390247 16.4045254 50.340768 15.9238593"></polygon>
                                <path d="M68.7488111,7.18203204 C70.3864861,8.82502122 73.041682,8.82502122 74.679357,7.18203204 C76.3170321,5.53904285 76.3170321,2.87523107 74.679357,1.23224189 C73.041682,-0.410747295 70.3864861,-0.410747295 68.7488111,1.23224189 C67.111136,2.87523107 67.111136,5.53904285 68.7488111,7.18203204 Z" id="椭圆形" fill="#E965E2"></path>
                                <path d="M67.5080849,60.0864107 C69.1457599,61.7293998 71.8009558,61.7293998 73.4386308,60.0864107 C75.0763059,58.4434215 75.0763059,55.7796097 73.4386308,54.1366205 C71.8009558,52.4936313 69.1457599,52.4936313 67.5080849,54.1366205 C65.8704098,55.7796097 65.8704098,58.4434215 67.5080849,60.0864107 Z" id="椭圆形" fill="#E965E2"></path>
                                <path d="M56.2046787,20.4281334 C56.9182069,19.1716178 58.4852752,18.708522 59.7572892,19.3547259 L59.8793864,19.4207117 L59.8793864,19.4207117 L60.2292451,19.6214203 L60.7994732,19.9576371 L61.3411977,20.2826133 L61.8631189,20.6018456 C65.5222366,22.8629825 68.0820399,24.9606282 69.7565548,27.4235716 L69.9398361,27.7011923 L70.0907891,27.6761629 C75.5397365,26.795028 79.9083672,28.7160459 82.9013211,32.9075838 L83.0406071,33.1057231 C83.3932369,33.6152454 83.7367787,34.2296555 84.0712325,34.9489534 L84.2527605,35.3516998 C84.3129695,35.4894159 84.3728779,35.6305995 84.432486,35.7752503 L84.6104089,36.2196051 C84.6694161,36.3711907 84.7281228,36.5262437 84.7865292,36.684764 L84.9608469,37.1707271 C85.0475551,37.4189097 85.1335873,37.6748939 85.2189436,37.9386796 L85.3887549,38.4766531 C85.4450582,38.659445 85.5010611,38.8457043 85.5567635,39.0354309 L85.7229696,39.6150128 L85.7229696,39.6150128 L85.8873731,40.2153989 L85.8873731,40.2153989 L86.0499741,40.8365892 L86.0499741,40.8365892 L86.2107724,41.4785836 C86.2374219,41.5873164 86.2639963,41.696916 86.2904956,41.8073824 L86.4485901,42.4805832 C86.474789,42.594517 86.5009127,42.7093176 86.5269614,42.8249851 L86.682352,43.5293921 C86.7338484,43.7676618 86.7850444,44.0093989 86.83594,44.2546033 C87.1294351,45.6685256 86.2248417,47.0534231 84.8154895,47.3478553 C84.7684982,47.3576724 84.7212457,47.3661854 84.6737859,47.3733846 C83.1916313,47.5982136 81.7953582,46.6137243 81.5041545,45.1385094 L81.3683923,44.4658032 C81.3456521,44.355612 81.3228553,44.2463841 81.3000019,44.1381195 L81.1622024,43.5000911 C81.1391226,43.3956795 81.1159862,43.2922313 81.0927932,43.1897463 L80.9529563,42.5863956 C80.9061176,42.3891317 80.8590525,42.195721 80.811761,42.0061633 L80.6692075,41.4490496 C80.6453354,41.3581238 80.6214067,41.2681613 80.5974214,41.1791621 L80.4528305,40.6567261 L80.4528305,40.6567261 L80.3068814,40.1574086 L80.3068814,40.1574086 L80.1595739,39.6812096 C79.6662854,38.1324103 79.1503589,36.9689191 78.6117947,36.1907362 C76.9732714,33.8231988 74.8571467,32.6662848 71.9024754,32.8941541 L71.6536616,32.9164541 L71.6563722,32.9739819 C71.7039261,34.6929757 71.2752278,36.4590774 70.3331246,38.2380273 L70.2176055,38.4515608 L69.9186025,38.9829123 C66.2162779,45.4404647 61.9784015,48.3502358 57.805158,47.2912305 C54.1494444,46.363554 51.788142,42.3595338 52.3509715,38.7944371 C53.0914679,34.1039561 56.3706724,31.2787858 61.208335,29.7047683 L61.57363,29.5895173 L61.57363,29.5895173 L61.825448,29.5157727 L61.825448,29.5157727 L62.237864,29.4030027 L62.6839288,29.2888503 L62.6839288,29.2888503 L63.1546666,29.1746669 L63.641102,29.061804 L64.0557633,28.9690337 L64.0441597,28.9570363 C62.9047862,27.8164019 61.3174418,26.6328321 59.2733626,25.3552873 L59.0354798,25.2074583 L58.5506888,24.9109738 L58.0439929,24.6070801 L57.5072454,24.2906632 L57.2105587,24.1204899 C55.9174447,23.3787869 55.4673444,21.7265713 56.2046787,20.4281334 Z M66.1538615,34.1024873 L66.1619151,34.0543459 L65.1292499,34.2753626 L64.5266457,34.4107941 L63.9673411,34.5436845 L63.6288875,34.6293017 L63.3252192,34.7114427 L63.0625526,34.7891686 C59.8384867,35.799057 58.0446112,37.3074668 57.6762715,39.6406187 C57.5329224,40.5486258 58.2916267,41.8351478 59.1272909,42.0472065 C60.0852782,42.290306 61.5062698,41.5519892 63.2158604,39.3673918 L63.4562634,39.0531312 L63.5778367,38.8888734 L63.5778367,38.8888734 L63.8236613,38.5459274 C63.9474531,38.3696093 64.0725509,38.1859882 64.1988955,37.9949065 L64.4532296,37.6027485 L64.5816106,37.3991211 L64.5816106,37.3991211 L64.8407345,36.976594 L65.1029201,36.53347 L65.2351281,36.3040964 L65.2351281,36.3040964 L65.5017087,35.8295508 C65.8269845,35.2407129 66.044734,34.6671517 66.1538615,34.1024873 Z" id="形状" fill="#FFFFFF"></path>
                            </g>
                        </g>
                    </g>
                </g>
            </g>
        </g>
    </g>
</svg>