<svg width="100" height="100" xmlns="http://www.w3.org/2000/svg" xmlns:xlink="http://www.w3.org/1999/xlink"><defs><radialGradient cx="93.605%" cy="5.396%" fx="93.605%" fy="5.396%" r="111.089%" gradientTransform="scale(-1 -.8) rotate(-59.122 -.107 1.644)" id="d"><stop stop-color="#fff" stop-opacity=".701" offset="0"/><stop stop-color="#3bc164" stop-opacity=".2" offset="100%"/></radialGradient><radialGradient cx="93.441%" cy="9.302%" fx="93.441%" fy="9.302%" r="98.597%" gradientTransform="matrix(-.47697 .70314 -.84622 -.36738 1.459 -.53)" id="c"><stop stop-color="#fff" offset="0"/><stop stop-color="#fff" stop-opacity="0" offset="100%"/></radialGradient><radialGradient cx="93.932%" cy="8.093%" fx="93.932%" fy="8.093%" r="99.413%" id="g"><stop stop-color="#ffd527" offset="0"/><stop stop-color="#08c118" offset="100%"/></radialGradient><radialGradient cx="0%" cy="-12.673%" fx="0%" fy="-12.673%" r="111.976%" gradientTransform="scale(.60481 1) rotate(51.515 0 -.127)" id="i"><stop stop-color="#fff" stop-opacity=".802" offset="0"/><stop stop-color="#f8e37d" offset="100%"/></radialGradient><radialGradient cx="9.646%" cy="9.7%" fx="9.646%" fy="9.7%" r="63.053%" gradientTransform="matrix(.30818 .86044 -.78723 .7708 .143 -.06)" id="h"><stop stop-color="#fff" stop-opacity=".973" offset="0"/><stop stop-color="#fff" stop-opacity="0" offset="100%"/></radialGradient><linearGradient x1="50%" y1="0" x2="50%" y2="100%" id="b"><stop stop-color="#3bc164" offset="0"/><stop stop-color="#6de29d" stop-opacity="0" offset="100%"/></linearGradient><linearGradient x1="91.009%" y1="12.466%" x2="27.386%" y2="50%" id="f"><stop stop-color="#fff" stop-opacity=".599" offset="0"/><stop stop-color="#fff" stop-opacity="0" offset="100%"/></linearGradient><circle id="a" cx="50" cy="50" r="50"/></defs><g fill="none" fill-rule="evenodd"><mask id="e" fill="#fff"><use xlink:href="#a"/></mask><use fill="url(#b)" opacity=".1" xlink:href="#a"/><path d="M99.5 20.5v79h-63v-79h63z" stroke="url(#c)" fill="url(#d)" mask="url(#e)"/><path d="m80 61.36 19.016 38.032H60.984L80 61.36z" stroke="url(#f)" stroke-width="1.216" fill="url(#g)" mask="url(#e)"/><path d="m80 41.36 19.016 38.032H60.984L80 41.36z" stroke="url(#f)" stroke-width="1.216" fill="url(#g)" mask="url(#e)"/><g mask="url(#e)"><path d="M3.687.25h36.757c3.675 0 7.001 1.49 9.409 3.897a13.264 13.264 0 0 1 3.897 9.409V32.41h-40V13.5c0-3.797-1.539-7.234-4.027-9.723A13.738 13.738 0 0 0 3.687.25z" stroke="url(#h)" stroke-width=".5" fill="url(#i)" opacity=".6" transform="rotate(30 -6.722 34.036)"/><path d="M46.49 25.457a6.778 6.778 0 0 1 2.482 9.259l-4.793 8.3a4.05 4.05 0 1 1-7.015-4.05l4.79-8.296a2.7 2.7 0 0 0-4.676-2.7l-1.388 2.404a4.05 4.05 0 1 1-7.015-4.05l1.404-2.432a6.75 6.75 0 0 0-2.47-9.22L46.49 25.456zm7.016 4.05a6.778 6.778 0 0 1 2.48 9.259l-4.1 7.103a1.35 1.35 0 0 1-2.339-1.35l4.115-7.127a6.75 6.75 0 0 0-2.47-9.22l2.314 1.335z" fill="#3bc164" opacity=".3"/><path d="m19.044 62.251 7.015 4.05-6.651 13.508a5.055 5.055 0 1 1-8.736-5.043l8.372-12.515z" fill="#d8a879"/><path d="m11.479 42.955 35.074 20.25-2.738 4.742a8.133 8.133 0 0 1-11.11 2.977L11.718 58.807a8.133 8.133 0 0 1-2.977-11.11l2.738-4.742z" fill="#e9bd91"/></g></g></svg>