<svg width="40" height="40" xmlns="http://www.w3.org/2000/svg"><g fill="none" fill-rule="evenodd"><circle fill="#d80a16" cx="20" cy="20" r="20"/><path d="M11.863 10.001c.123 0 .246.01.368.028l14.313 1.977c.096.016.19.04.282.068.199.01.396.094.548.251l.04.046c.086.062.168.131.245.206l3.454 3.576c.675.723.74 1.848.155 2.65L20.915 32.44a2.012 2.012 0 0 1-1.577.892.816.816 0 0 1-.233-.022 1.976 1.976 0 0 1-1.5-1.371l-7.416-19.196a2.101 2.101 0 0 1 .166-2.04c.37-.465.927-.724 1.508-.702zm17.295 8.777-8.197 1.699-.903 10.293 9.1-11.992zm-16.82-5.08 6.152 15.921.838-9.492-6.99-6.429zm.473-1.859 7.34 6.752 4.894-5.067-12.234-1.685zm13.997 2.282-4.104 4.246 6.84-1.415-2.736-2.831z" fill="#fff" fill-rule="nonzero"/></g></svg>