<?xml version="1.0" encoding="UTF-8"?>
<svg width="40px" height="40px" viewBox="0 0 40 40" version="1.1" xmlns="http://www.w3.org/2000/svg" xmlns:xlink="http://www.w3.org/1999/xlink">
    <title>路径</title>
    <g id="扩展程序" stroke="none" stroke-width="1" fill="none" fill-rule="evenodd">
        <g id="资产" transform="translate(-40.000000, -295.000000)">
            <g id="编组-2备份" transform="translate(20.000000, 275.000000)">
                <g id="编组" transform="translate(20.000000, 20.000000)">
                    <circle id="椭圆形" fill="#627EE9" cx="20" cy="20" r="20"></circle>
                    <g id="编组-2" transform="translate(11.666667, 6.666667)" fill="#FFFFFF">
                        <path d="M8.33333333,0 L16.6666667,13.3333333 L8.33333333,10 L8.33333333,0 Z M8.33333333,18.3333333 L16.6666667,15 L8.33333333,26.6666667 L8.33333333,18.3333333 Z" id="矩形-2" opacity="0.800000012"></path>
                        <polygon id="矩形备份" opacity="0.600000024" transform="translate(12.500000, 13.333333) scale(1, -1) translate(-12.500000, -13.333333) " points="8.33333333 10 16.6666667 13.3333333 8.33333333 16.6666667"></polygon>
                        <polygon id="矩形备份-4" opacity="0.699999988" transform="translate(4.166667, 13.333333) scale(1, -1) translate(-4.166667, -13.333333) " points="8.33333333 10 1.896631e-13 13.3333333 8.33333333 16.6666667"></polygon>
                        <path d="M8.33333333,18.3333333 L0,15 L8.33333333,26.6666667 L8.33333333,18.3333333 Z M8.33333333,0 L0,13.3333333 L8.33333333,10 L8.33333333,0 Z" id="矩形备份-6"></path>
                    </g>
                </g>
            </g>
        </g>
    </g>
</svg>