<svg width="80" height="80" xmlns="http://www.w3.org/2000/svg" xmlns:xlink="http://www.w3.org/1999/xlink"><defs><radialGradient cx="93.605%" cy="5.396%" fx="93.605%" fy="5.396%" r="113.77%" gradientTransform="matrix(-.50111 .67043 -.4528 -.74197 1.43 -.534)" id="e"><stop stop-color="#fff" stop-opacity=".701" offset="0"/><stop stop-color="#3bc164" stop-opacity=".2" offset="100%"/></radialGradient><radialGradient cx="93.441%" cy="9.302%" fx="93.441%" fy="9.302%" r="98.258%" gradientTransform="matrix(-.4786 .70556 -.4588 -.6823 1.424 -.503)" id="d"><stop stop-color="#fff" offset="0"/><stop stop-color="#fff" stop-opacity="0" offset="100%"/></radialGradient><radialGradient cx="93.932%" cy="8.093%" fx="93.932%" fy="8.093%" r="120.088%" gradientTransform="scale(-.74016 -1) rotate(-33.464 -.434 3.673)" id="g"><stop stop-color="#ffd527" offset="0"/><stop stop-color="#08c118" offset="100%"/></radialGradient><radialGradient cx="93.932%" cy="8.093%" fx="93.932%" fy="8.093%" r="169.178%" gradientTransform="matrix(-.4383 .39141 -.18643 -.92022 1.366 -.212)" id="i"><stop stop-color="#ffd527" offset="0"/><stop stop-color="#08c118" offset="100%"/></radialGradient><radialGradient cx="93.932%" cy="8.093%" fx="93.932%" fy="8.093%" r="120.072%" gradientTransform="scale(-.7403 -1) rotate(-33.469 -.434 3.672)" id="k"><stop stop-color="#ffd527" offset="0"/><stop stop-color="#08c118" offset="100%"/></radialGradient><linearGradient x1="91.009%" y1="29.438%" x2="27.386%" y2="50%" id="f"><stop stop-color="#fff" stop-opacity=".599" offset="0"/><stop stop-color="#fff" stop-opacity="0" offset="100%"/></linearGradient><linearGradient x1="50%" y1="0" x2="50%" y2="100%" id="b"><stop stop-color="#3bc164" offset="0"/><stop stop-color="#6de29d" stop-opacity="0" offset="100%"/></linearGradient><linearGradient x1="91.009%" y1="41.485%" x2="27.386%" y2="50%" id="h"><stop stop-color="#fff" stop-opacity=".599" offset="0"/><stop stop-color="#fff" stop-opacity="0" offset="100%"/></linearGradient><linearGradient x1="91.009%" y1="29.43%" x2="27.386%" y2="50%" id="j"><stop stop-color="#fff" stop-opacity=".599" offset="0"/><stop stop-color="#fff" stop-opacity="0" offset="100%"/></linearGradient><filter x="-45.9%" y="-46.1%" width="191.8%" height="192.1%" filterUnits="objectBoundingBox" id="l"><feGaussianBlur stdDeviation="2.7" in="SourceGraphic"/></filter><circle id="a" cx="40" cy="40" r="40"/></defs><g fill="none" fill-rule="evenodd"><mask id="c" fill="#fff"><use xlink:href="#a"/></mask><use fill="url(#b)" opacity=".1" xlink:href="#a"/><g mask="url(#c)"><g transform="translate(16 12.8)"><path d="M20.843 77.6h-5.022l14.964-35.575 4.13 1.773-7.711 18.52h17.585l-7.71-18.52 4.13-1.773L56.175 77.6h-5.022l-5.229-12.557H26.07L20.843 77.6z" fill="#d8a879" fill-rule="nonzero"/><path d="m39.44 0-.001 50.12H72v3.813H0V50.12h32.55V0h6.89z" fill="#e9bd91" fill-rule="nonzero"/><path d="M69.79 4.299v45.33H2.205V4.298H69.79z" stroke="url(#d)" stroke-width=".973" fill="url(#e)"/><path d="m60.247 36.143 9.114 13.49H51.134l9.113-13.49z" stroke="url(#f)" stroke-width=".973" fill="url(#g)"/><path d="M26.943 25.126 52.67 49.634H1.216l25.727-24.508z" stroke="url(#h)" stroke-width=".973" fill="url(#i)"/><path d="m36.12 41.305 5.595 8.283H30.526l5.595-8.283z" stroke="url(#j)" stroke-width=".973" fill="url(#k)"/><ellipse fill="#fe9227" fill-rule="nonzero" opacity=".5" filter="url(#l)" cx="53.599" cy="18.434" rx="8.824" ry="8.79"/></g></g></g></svg>