<svg width="100" height="100" xmlns="http://www.w3.org/2000/svg" xmlns:xlink="http://www.w3.org/1999/xlink"><defs><radialGradient cx="8%" cy="9.148%" fx="8%" fy="9.148%" r="93.848%" gradientTransform="scale(.98274 1) rotate(4.039 .08 .111)" id="e"><stop stop-color="#3c7dd4" offset="0"/><stop stop-color="#7db1ff" offset="100%"/></radialGradient><radialGradient cx="7.442%" cy="6.816%" fx="7.442%" fy="6.816%" r="101.111%" gradientTransform="scale(.76222 1) rotate(59.407 .086 .089)" id="g"><stop stop-color="#fff" stop-opacity=".802" offset="0"/><stop stop-color="#5b72f6" stop-opacity=".249" offset="100%"/></radialGradient><radialGradient cx="9.646%" cy="9.7%" fx="9.646%" fy="9.7%" r="59.944%" gradientTransform="matrix(.32416 .90506 -1.04357 .64333 .166 -.053)" id="f"><stop stop-color="#fff" stop-opacity=".973" offset="0"/><stop stop-color="#fff" stop-opacity="0" offset="100%"/></radialGradient><linearGradient x1="50%" y1="0" x2="50%" y2="100%" id="b"><stop stop-color="#297aff" offset="0"/><stop stop-color="#53b2ff" stop-opacity="0" offset="100%"/></linearGradient><linearGradient x1="4.287%" y1="9.403%" x2="66.775%" y2="55.342%" id="d"><stop stop-color="#fff" stop-opacity=".295" offset="0"/><stop stop-color="#fff" stop-opacity="0" offset="100%"/></linearGradient><circle id="a" cx="50" cy="50" r="50"/></defs><g fill="none" fill-rule="evenodd"><mask id="c" fill="#fff"><use xlink:href="#a"/></mask><use fill="url(#b)" opacity=".1" xlink:href="#a"/><g mask="url(#c)"><g transform="translate(15 12)"><path d="M58.466 33.337c2.14 0 4.078.868 5.48 2.27a7.726 7.726 0 0 1 2.27 5.48L63.234 87.5a7.73 7.73 0 0 1-2.433 5.154 7.73 7.73 0 0 1-5.3 2.096H15.5a7.73 7.73 0 0 1-5.3-2.096A7.73 7.73 0 0 1 7.765 87.5L4.8 41.587a7.726 7.726 0 0 1 1.912-5.615 7.726 7.726 0 0 1 5.322-2.619z" stroke="url(#d)" stroke-width=".5" fill="url(#e)"/><path d="M33.484 0H72L59.719 47.752H15L25.736 6.007A8 8 0 0 1 33.484 0z" fill-opacity=".8" fill="#fff"/><path fill="#fff" d="M32.825 9.06h26l-1.32 5.034h-26zM30.319 18.624h17.5L46.5 23.658H29z"/><path d="M24.508 41.894c2.157 0 4.216.9 5.683 2.481l9.251 9.979a8.25 8.25 0 0 0 6.05 2.641H63c1.672 0 3.186.678 4.282 1.774a6.037 6.037 0 0 1 1.741 4.912l-2.522 24.125a7.731 7.731 0 0 1-2.52 4.952 7.731 7.731 0 0 1-5.188 1.992h-47.37a7.73 7.73 0 0 1-5.272-2.069 7.73 7.73 0 0 1-2.457-5.102L.773 48.606a6.225 6.225 0 0 1 1.493-4.54 6.225 6.225 0 0 1 4.258-2.154z" stroke="url(#f)" stroke-width=".5" fill="url(#g)"/><rect fill="#fff" opacity=".5" x="7.5" y="48.691" width="19" height="5.034" rx="2.5"/></g></g></g></svg>