<svg width="100" height="100" xmlns="http://www.w3.org/2000/svg" xmlns:xlink="http://www.w3.org/1999/xlink"><defs><radialGradient cx="9.646%" cy="9.7%" fx="9.646%" fy="9.7%" r="59.257%" gradientTransform="matrix(.32792 .91557 -1.42908 .48075 .203 -.038)" id="k"><stop stop-color="#fff" stop-opacity=".973" offset="0"/><stop stop-color="#fff" stop-opacity="0" offset="100%"/></radialGradient><radialGradient cx="8%" cy="9.148%" fx="8%" fy="9.148%" r="92.238%" gradientTransform="scale(1 .99823) rotate(4.117 .078 .092)" id="e"><stop stop-color="#3c7dd4" offset="0"/><stop stop-color="#7db1ff" offset="100%"/></radialGradient><radialGradient cx="8%" cy="9.148%" fx="8%" fy="9.148%" r="257.63%" gradientTransform="scale(.35722 1) rotate(1.47 .152 5.702)" id="g"><stop stop-color="#3c7dd4" offset="0"/><stop stop-color="#7db1ff" offset="100%"/></radialGradient><radialGradient cx="7.442%" cy="6.816%" fx="7.442%" fy="6.816%" r="97.999%" gradientTransform="scale(1 .96915) rotate(66.406 .073 .07)" id="l"><stop stop-color="#fff" stop-opacity=".802" offset="0"/><stop stop-color="#5b72f6" stop-opacity=".249" offset="100%"/></radialGradient><radialGradient cx="50%" cy="39.869%" fx="50%" fy="39.869%" r="105.723%" gradientTransform="scale(-.48085 -1) rotate(-80.135 -.744 .915)" id="i"><stop stop-color="#3c7dd4" offset="0"/><stop stop-color="#7db1ff" offset="100%"/></radialGradient><linearGradient x1="4.449%" y1="7.964%" x2="66.715%" y2="55.531%" id="d"><stop stop-color="#fff" stop-opacity=".295" offset="0"/><stop stop-color="#fff" stop-opacity="0" offset="100%"/></linearGradient><linearGradient x1="50%" y1="0" x2="50%" y2="100%" id="b"><stop stop-color="#297aff" offset="0"/><stop stop-color="#53b2ff" stop-opacity="0" offset="100%"/></linearGradient><linearGradient x1="4.287%" y1="40.281%" x2="66.775%" y2="51.279%" id="h"><stop stop-color="#fff" stop-opacity=".295" offset="0"/><stop stop-color="#fff" stop-opacity="0" offset="100%"/></linearGradient><linearGradient x1="50%" y1="0" x2="50%" y2="100%" id="j"><stop stop-color="#d5e7fd" stop-opacity=".162" offset="0"/><stop stop-color="#aacbfb" offset="100%"/></linearGradient><linearGradient x1="4.287%" y1="44.636%" x2="66.775%" y2="50.706%" id="f"><stop stop-color="#fff" stop-opacity=".295" offset="0"/><stop stop-color="#fff" stop-opacity="0" offset="100%"/></linearGradient><circle id="a" cx="50" cy="50" r="50"/></defs><g fill="none" fill-rule="evenodd"><mask id="c" fill="#fff"><use xlink:href="#a"/></mask><use fill="url(#b)" opacity=".1" xlink:href="#a"/><g opacity=".5" mask="url(#c)" stroke="#6ba2f3" stroke-linecap="round" stroke-linejoin="round" stroke-width="2"><path d="M63 5c-11.046 0-20 8.954-20 20M63 15c-5.523 0-10 4.477-10 10"/></g><g mask="url(#c)"><g transform="rotate(10 -88.66 165.655)"><ellipse stroke="url(#d)" stroke-width=".5" fill="url(#e)" cx="40" cy="4.809" rx="4.55" ry="4.559"/><path d="M40 6.661c5.135 0 9.89 1.633 13.774 4.408a23.845 23.845 0 0 1 8.519 11.163c-6.377-2.05-14.044-3.248-22.293-3.248-8.249 0-15.917 1.197-22.293 3.248a23.854 23.854 0 0 1 8.519-11.163A23.612 23.612 0 0 1 40 6.661z" stroke="url(#f)" stroke-width=".5" fill="url(#g)"/><ellipse stroke="url(#h)" stroke-width=".5" fill="url(#i)" cx="40" cy="38.468" rx="39.75" ry="18.984"/><ellipse fill="url(#j)" cx="40" cy="40.872" rx="24" ry="10.418"/><path d="M40 30.704c6.51 0 12.412 1.13 16.717 2.964 2.174.927 3.939 2.033 5.161 3.266 1.153 1.163 1.82 2.437 1.87 3.781l15.94 72.035H.313l15.937-71.846c.05-1.384.712-2.689 1.857-3.875 1.215-1.257 2.969-2.379 5.13-3.317 4.31-1.87 10.23-3.008 16.764-3.008z" stroke="url(#k)" stroke-width=".5" fill="url(#l)" opacity=".6"/></g></g></g></svg>