<svg width="50" height="50" xmlns="http://www.w3.org/2000/svg"><g fill="#6e7585" fill-rule="evenodd"><circle opacity=".05" cx="25" cy="25" r="25"/><path d="M20.004 32h10a1 1 0 1 1 0 2h-10a1 1 0 0 1 0-2zm5-16a1 1 0 0 1 1 1l-.001 9.585 4.658-4.656a1 1 0 1 1 1.414 1.414l-6.364 6.364a1.006 1.006 0 0 1-.088.079l.088-.079a1.008 1.008 0 0 1-.395.243l-.02.007a.998.998 0 0 1-.063.017l-.026.005a1.003 1.003 0 0 1-.203.021h-.033l-.052-.004-.032-.003-.027-.003a1.003 1.003 0 0 1-.085-.016l-.032-.008a.998.998 0 0 1-.03-.01l-.02-.006a.992.992 0 0 1-.396-.243l-6.364-6.364a1 1 0 0 1 1.414-1.414l4.656 4.655.001-9.584a1 1 0 0 1 1-1z" fill-rule="nonzero"/></g></svg>