<svg width="120" height="120" xmlns="http://www.w3.org/2000/svg" xmlns:xlink="http://www.w3.org/1999/xlink"><defs><linearGradient x1="100%" y1="26.219%" x2="33.191%" y2="45.666%" id="b"><stop stop-color="#33618e" offset="0"/><stop stop-color="#3d3835" offset="100%"/></linearGradient><linearGradient x1="0" y1="0" x2="50%" y2="50%" id="q"><stop stop-color="#fff" stop-opacity=".9" offset="0"/><stop stop-color="#fff" stop-opacity="0" offset="100%"/></linearGradient><linearGradient x1="63.764%" y1="65.415%" x2="0" y2="0" id="r"><stop stop-color="#ffc85c" offset="0"/><stop stop-color="#5baff2" offset="100%"/></linearGradient><linearGradient x1="69.727%" y1="6.831%" x2="50%" y2="50%" id="o"><stop stop-color="#fff" stop-opacity=".9" offset="0"/><stop stop-color="#fff" stop-opacity="0" offset="100%"/></linearGradient><linearGradient x1="50%" y1="50%" x2="0" y2="0" id="p"><stop stop-color="#ffb729" offset="0"/><stop stop-color="#5baff2" offset="100%"/></linearGradient><linearGradient x1="69.727%" y1="17.575%" x2="50%" y2="50%" id="m"><stop stop-color="#fff" stop-opacity=".9" offset="0"/><stop stop-color="#fff" stop-opacity="0" offset="100%"/></linearGradient><linearGradient x1="100%" y1="12.444%" x2="33.191%" y2="43.155%" id="n"><stop stop-color="#33618e" offset="0"/><stop stop-color="#3d3835" offset="100%"/></linearGradient><linearGradient x1="69.727%" y1="26.272%" x2="50%" y2="50%" id="k"><stop stop-color="#fff" stop-opacity=".9" offset="0"/><stop stop-color="#fff" stop-opacity="0" offset="100%"/></linearGradient><linearGradient x1="50%" y1="50%" x2="0" y2="22.518%" id="l"><stop stop-color="#ffb729" offset="0"/><stop stop-color="#5baff2" offset="100%"/></linearGradient><linearGradient x1="69.727%" y1="29.468%" x2="50%" y2="50%" id="a"><stop stop-color="#fff" stop-opacity=".9" offset="0"/><stop stop-color="#fff" stop-opacity="0" offset="100%"/></linearGradient><filter x="-3.1%" y="-1%" width="104.2%" height="104.2%" filterUnits="objectBoundingBox" id="h"><feOffset dx="-.5" dy=".5" in="SourceAlpha" result="shadowOffsetOuter1"/><feComposite in="shadowOffsetOuter1" in2="SourceAlpha" operator="out" result="shadowOffsetOuter1"/><feColorMatrix values="0 0 0 0 0.941176471 0 0 0 0 0.611764706 0 0 0 0 0 0 0 0 0.5 0" in="shadowOffsetOuter1"/></filter><filter x="-11.5%" y="-9.4%" width="120.8%" height="120.8%" filterUnits="objectBoundingBox" id="g"><feMorphology radius="4" in="SourceAlpha" result="shadowSpreadInner1"/><feOffset dx="-.5" dy=".5" in="shadowSpreadInner1" result="shadowOffsetInner1"/><feComposite in="shadowOffsetInner1" in2="SourceAlpha" operator="arithmetic" k2="-1" k3="1" result="shadowInnerInner1"/><feColorMatrix values="0 0 0 0 0.980392157 0 0 0 0 0.654901961 0 0 0 0 0 0 0 0 0.5 0" in="shadowInnerInner1"/></filter><filter x="-3.1%" y="-1%" width="104.2%" height="104.2%" filterUnits="objectBoundingBox" id="e"><feOffset dx="-.5" dy=".5" in="SourceAlpha" result="shadowOffsetOuter1"/><feComposite in="shadowOffsetOuter1" in2="SourceAlpha" operator="out" result="shadowOffsetOuter1"/><feColorMatrix values="0 0 0 0 0.941176471 0 0 0 0 0.611764706 0 0 0 0 0 0 0 0 0.5 0" in="shadowOffsetOuter1"/></filter><filter x="-11.5%" y="-9.4%" width="120.8%" height="120.8%" filterUnits="objectBoundingBox" id="j"><feMorphology radius="4" in="SourceAlpha" result="shadowSpreadInner1"/><feOffset dx="-.5" dy=".5" in="shadowSpreadInner1" result="shadowOffsetInner1"/><feComposite in="shadowOffsetInner1" in2="SourceAlpha" operator="arithmetic" k2="-1" k3="1" result="shadowInnerInner1"/><feColorMatrix values="0 0 0 0 0.980392157 0 0 0 0 0.654901961 0 0 0 0 0 0 0 0 0.5 0" in="shadowInnerInner1"/></filter><radialGradient cx="9.646%" cy="9.7%" fx="9.646%" fy="9.7%" r="59.846%" gradientTransform="matrix(.3247 .90655 -1.0549 .63852 .167 -.052)" id="c"><stop stop-color="#fff" stop-opacity=".973" offset="0"/><stop stop-color="#fff" stop-opacity="0" offset="100%"/></radialGradient><radialGradient cx="7.442%" cy="6.816%" fx="7.442%" fy="6.816%" r="100.873%" gradientTransform="scale(.76923 1) rotate(59.636 .086 .088)" id="d"><stop stop-color="#fff" stop-opacity=".802" offset="0"/><stop stop-color="#5b72f6" stop-opacity=".249" offset="100%"/></radialGradient><circle id="i" cx="36" cy="12" r="12"/><circle id="f" cx="88" cy="36" r="12"/></defs><g fill="none" fill-rule="evenodd"><path d="M108 28.25c2.14 0 4.078.867 5.48 2.27a7.726 7.726 0 0 1 2.27 5.48v64c0 2.14-.867 4.078-2.27 5.48a7.726 7.726 0 0 1-5.48 2.27H8a7.726 7.726 0 0 1-5.48-2.27A7.726 7.726 0 0 1 .25 100V34c0-1.588.644-3.025 1.684-4.066A5.732 5.732 0 0 1 6 28.25z" stroke="url(#a)" stroke-width=".5" fill="url(#b)" opacity=".8"/><path d="M110 58h4a6 6 0 0 1 6 6v6h-10V58z" fill="#34557d"/><path d="M104 34.25c1.588 0 3.025.644 4.066 1.684A5.732 5.732 0 0 1 109.75 40v68a5.732 5.732 0 0 1-1.684 4.066A5.732 5.732 0 0 1 104 113.75H12a5.732 5.732 0 0 1-4.066-1.684A5.732 5.732 0 0 1 6.25 108V40c0-1.588.644-3.025 1.684-4.066A5.732 5.732 0 0 1 12 34.25z" stroke="url(#c)" stroke-width=".5" fill="url(#d)" opacity=".6"/><g><use fill="#000" filter="url(#e)" xlink:href="#f"/><use fill="#ffeb00" xlink:href="#f"/><use fill="#000" filter="url(#g)" xlink:href="#f"/><circle stroke="#ffdb00" stroke-width="4" stroke-linejoin="square" cx="88" cy="36" r="10"/></g><g><use fill="#000" filter="url(#h)" xlink:href="#i"/><use fill="#ffeb00" xlink:href="#i"/><use fill="#000" filter="url(#j)" xlink:href="#i"/><circle stroke="#ffdb00" stroke-width="4" stroke-linejoin="square" cx="36" cy="12" r="10"/></g><path d="M.25 36.454A6.26 6.26 0 0 0 6 40.25h102c2.14 0 4.078.867 5.48 2.27a7.726 7.726 0 0 1 2.27 5.48v64c0 2.14-.867 4.078-2.27 5.48a7.726 7.726 0 0 1-5.48 2.27H8a7.726 7.726 0 0 1-5.48-2.27A7.726 7.726 0 0 1 .25 112z" stroke="url(#k)" stroke-width=".5" fill-opacity=".7" fill="url(#l)"/><path d="M119.746 66.462 119.75 84a5.732 5.732 0 0 1-1.684 4.066A5.732 5.732 0 0 1 114 89.75H95c-1.312 0-2.5-.532-3.359-1.391S90.25 86.312 90.25 85V75c0-1.312.532-2.5 1.391-3.359S93.688 70.25 95 70.25h19a6.262 6.262 0 0 0 5.746-3.788z" stroke="url(#m)" stroke-width=".5" fill-opacity=".6" fill="url(#n)"/><path d="M100 75.25c1.312 0 2.5.532 3.359 1.391.86.86 1.391 2.047 1.391 3.359s-.532 2.5-1.391 3.359A4.735 4.735 0 0 1 100 84.75c-1.312 0-2.5-.532-3.359-1.391S95.25 81.312 95.25 80s.532-2.5 1.391-3.359S98.688 75.25 100 75.25z" stroke="url(#o)" stroke-width=".5" fill-opacity=".7" fill="url(#p)"/><path d="M24.51 78.417c1.516.545 4.575 2.246 7.738 4.034l.704.398.69.392c2.528 1.432 4.96 2.815 6.269 3.562l.012.007.005.002c.786.35.396.852.268.989l-.03.03a.905.905 0 0 1-.307.175l-4.62 2.638c.111.152.176.232.176.232s2.689 3.365 6.62 5.148c4.207 2.19 8.151 2.453 12.979.628 3.092-1.167 6.726-4.118 9.378-8.483l4.832 3.277c-.786 1.145-4.907 6.855-11.054 10.075-6.83 3.577-15.247 2.544-20.763-.923-2.616-1.642-4.413-3.164-5.58-4.31-1.257-1.275-1.718-1.943-1.8-2.066a4.427 4.427 0 0 1-.122-.198l-5.017 2.829a.276.276 0 0 1-.006.004l-.01.006c-.053.028-.3.15-.477.034-.102-.068-.145-.225-.145-.472V79.183c.004-.103.011-.561.26-.766zM37.83 58.48c6.834-3.576 15.246-2.546 20.763.921 5.212 3.273 7.168 6.061 7.373 6.366l.018.028 5.126-2.647.64 17.668c-.004.092-.01.46-.182.687-1.456-.355-5.058-2.392-8.63-4.415l-.653-.37a3277.59 3277.59 0 0 1-6.196-3.521c-.795-.356-.41-.86-.285-.996l.035-.035 4.93-2.814-.12-.145c-.746-.89-3.238-3.669-6.683-5.232-4.208-2.19-8.152-2.452-12.98-.627-3.092 1.167-6.726 4.12-9.378 8.483l-4.832-3.275c.786-1.145 4.907-6.857 11.053-10.076z" stroke="url(#q)" stroke-width=".5" fill-opacity=".7" fill="url(#r)"/></g></svg>