<?xml version="1.0" encoding="UTF-8"?>
<svg width="24px" height="24px" viewBox="0 0 24 24" version="1.1" xmlns="http://www.w3.org/2000/svg" xmlns:xlink="http://www.w3.org/1999/xlink">
    <title>形状结合 2</title>
    <g id="扩展程序" stroke="none" stroke-width="1" fill="none" fill-rule="evenodd" opacity="0.5">
        <g id="管理代币" transform="translate(-308.000000, -161.000000)" fill="#6E7585" fill-rule="nonzero">
            <g id="编组-2备份" transform="translate(30.000000, 148.000000)">
                <g id="形状结合-2" transform="translate(278.000000, 13.000000)">
                    <path d="M11.5,2 C16.7467051,2 21,6.25329488 21,11.5 C21,13.763376 20.2084733,15.841881 18.887125,17.4738098 L21.7071068,20.2928932 C22.0976311,20.6834175 22.0976311,21.3165825 21.7071068,21.7071068 C21.3165825,22.0976311 20.6834175,22.0976311 20.2928932,21.7071068 L17.4738098,18.887125 C15.841881,20.2084733 13.763376,21 11.5,21 C6.25329488,21 2,16.7467051 2,11.5 C2,6.25329488 6.25329488,2 11.5,2 Z M11.5,4 C7.35786438,4 4,7.35786438 4,11.5 C4,15.6421356 7.35786438,19 11.5,19 C15.6421356,19 19,15.6421356 19,11.5 C19,7.35786438 15.6421356,4 11.5,4 Z" id="形状结合"></path>
                </g>
            </g>
        </g>
    </g>
</svg>