<?xml version="1.0" encoding="UTF-8"?>
<svg width="24px" height="24px" viewBox="0 0 24 24" version="1.1" xmlns="http://www.w3.org/2000/svg" xmlns:xlink="http://www.w3.org/1999/xlink">
    <title>矩形</title>
    <g id="扩展程序" stroke="none" stroke-width="1" fill="none" fill-rule="evenodd">
        <g id="Swap" transform="translate(-136.000000, -20.000000)">
            <g id="编组" transform="translate(16.000000, 20.000000)">
                <g id="编组" transform="translate(120.000000, 0.000000)">
                    <rect id="矩形" x="0" y="0" width="24" height="24"></rect>
                    <path d="M8.46446609,10.0502525 L11.9993593,13.5853593 L15.5355339,10.0502525 C15.9260582,9.65972824 16.5592232,9.65972824 16.9497475,10.0502525 C17.3402718,10.4407768 17.3402718,11.0739418 16.9497475,11.4644661 L12.7071068,15.7071068 L12.7071068,15.7071068 C12.5569051,15.8573084 12.3708099,15.9497402 12.1764315,15.9844021 L12.0590314,15.9982669 L12.0590314,15.9982669 L11.9409686,15.9982669 C11.705064,15.9844021 11.4731352,15.8873488 11.2928932,15.7071068 L7.05025253,11.4644661 C6.65972824,11.0739418 6.65972824,10.4407768 7.05025253,10.0502525 C7.44077682,9.65972824 8.0739418,9.65972824 8.46446609,10.0502525 Z" id="形状结合" fill="#6E7585" fill-rule="nonzero" opacity="0.5"></path>
                </g>
            </g>
        </g>
    </g>
</svg>