<svg width="60" height="60" xmlns="http://www.w3.org/2000/svg" xmlns:xlink="http://www.w3.org/1999/xlink"><defs><circle id="a" cx="30" cy="30" r="30"/></defs><g fill="none" fill-rule="evenodd"><mask id="b" fill="#fff"><use xlink:href="#a"/></mask><use fill="#3bc164" opacity=".2" xlink:href="#a"/><path d="M33 36h1v3H17a1 1 0 0 1-1-1v-3a1 1 0 0 1 1-1h13.996c.007 1.026.81 2 2.004 2zm5.5-8 5.5 6h-3v5h-5v-5h-3l5.5-6zM35 27a1 1 0 0 1 .978.791L32.12 32H17a1 1 0 0 1-1-1v-3a1 1 0 0 1 1-1h18zm5-7a1 1 0 0 1 1 1v3a1 1 0 0 1-1 1H20a1 1 0 0 1-1-1v-3a1 1 0 0 1 1-1h20z" fill="#3bc164" mask="url(#b)"/></g></svg>