<svg width="100" height="100" xmlns="http://www.w3.org/2000/svg" xmlns:xlink="http://www.w3.org/1999/xlink"><defs><linearGradient x1="50%" y1="0" x2="50%" y2="100%" id="b"><stop stop-color="#f0c002" offset="0"/><stop stop-color="#f9e204" stop-opacity="0" offset="100%"/></linearGradient><linearGradient x1="69.727%" y1="24.31%" x2="50%" y2="50%" id="n"><stop stop-color="#fff" stop-opacity=".9" offset="0"/><stop stop-color="#fff" stop-opacity="0" offset="100%"/></linearGradient><linearGradient x1="64.494%" y1="6.831%" x2="50%" y2="50%" id="e"><stop stop-color="#fff" stop-opacity=".9" offset="0"/><stop stop-color="#fff" stop-opacity="0" offset="100%"/></linearGradient><linearGradient x1="50%" y1="50%" x2="0" y2="20.245%" id="o"><stop stop-color="#ffb729" offset="0"/><stop stop-color="#5baff2" offset="100%"/></linearGradient><linearGradient x1="50%" y1="0" x2="50%" y2="100%" id="f"><stop stop-color="#fff" offset="0"/><stop stop-color="#fff" stop-opacity="0" offset="100%"/></linearGradient><filter x="-11.2%" y="-11.2%" width="125%" height="125%" filterUnits="objectBoundingBox" id="j"><feMorphology radius="4" in="SourceAlpha" result="shadowSpreadInner1"/><feOffset dx=".5" dy=".5" in="shadowSpreadInner1" result="shadowOffsetInner1"/><feComposite in="shadowOffsetInner1" in2="SourceAlpha" operator="arithmetic" k2="-1" k3="1" result="shadowInnerInner1"/><feColorMatrix values="0 0 0 0 0.980392157 0 0 0 0 0.654901961 0 0 0 0 0 0 0 0 0.5 0" in="shadowInnerInner1"/></filter><filter x="-1.6%" y="-1.6%" width="106.2%" height="106.2%" filterUnits="objectBoundingBox" id="k"><feOffset dx=".5" dy=".5" in="SourceAlpha" result="shadowOffsetOuter1"/><feComposite in="shadowOffsetOuter1" in2="SourceAlpha" operator="out" result="shadowOffsetOuter1"/><feColorMatrix values="0 0 0 0 0.941176471 0 0 0 0 0.611764706 0 0 0 0 0 0 0 0 0.5 0" in="shadowOffsetOuter1"/></filter><filter x="-10.9%" y="-10.9%" width="125%" height="125%" filterUnits="objectBoundingBox" id="m"><feMorphology radius="3" in="SourceAlpha" result="shadowSpreadInner1"/><feOffset dx=".5" dy=".5" in="shadowSpreadInner1" result="shadowOffsetInner1"/><feComposite in="shadowOffsetInner1" in2="SourceAlpha" operator="arithmetic" k2="-1" k3="1" result="shadowInnerInner1"/><feColorMatrix values="0 0 0 0 0.980392157 0 0 0 0 0.654901961 0 0 0 0 0 0 0 0 0.5 0" in="shadowInnerInner1"/></filter><filter x="-1.2%" y="-1.2%" width="105%" height="105%" filterUnits="objectBoundingBox" id="h"><feOffset dx=".5" dy=".5" in="SourceAlpha" result="shadowOffsetOuter1"/><feComposite in="shadowOffsetOuter1" in2="SourceAlpha" operator="out" result="shadowOffsetOuter1"/><feColorMatrix values="0 0 0 0 0.941176471 0 0 0 0 0.611764706 0 0 0 0 0 0 0 0 0.5 0" in="shadowOffsetOuter1"/></filter><circle id="i" cx="20" cy="44" r="10"/><circle id="a" cx="50" cy="50" r="50"/><circle id="l" cx="72" cy="76" r="8"/><path d="M2.735 19.088 52.103 2.632A6 6 0 0 1 60 8.325v37.35a6 6 0 0 1-4.103 5.693L5.265 68.245A4 4 0 0 1 0 64.45V22.883a4 4 0 0 1 2.735-3.795z" id="d"/></defs><g fill="none" fill-rule="evenodd"><mask id="c" fill="#fff"><use xlink:href="#a"/></mask><use fill="url(#b)" opacity=".15" xlink:href="#a"/><g mask="url(#c)"><g transform="translate(10 30)"><mask id="g" fill="#fff"><use xlink:href="#d"/></mask><path stroke="url(#e)" stroke-width=".5" d="M52.182 2.87a5.732 5.732 0 0 1 4.39.312 5.75 5.75 0 0 1 3.179 5.143v37.35a5.743 5.743 0 0 1-1.086 3.363 5.743 5.743 0 0 1-2.847 2.092L5.186 68.008a3.738 3.738 0 0 1-2.863-.204A3.738 3.738 0 0 1 .25 64.45V22.883a3.745 3.745 0 0 1 2.564-3.558z"/><path fill="url(#f)" mask="url(#g)" d="m-6 32 60-20v10L-6 42z"/></g><g transform="translate(10 6)"><use fill="#000" filter="url(#h)" xlink:href="#i"/><use fill="#ffeb00" xlink:href="#i"/><use fill="#000" filter="url(#j)" xlink:href="#i"/><circle stroke="#ffdb00" stroke-width="4" stroke-linejoin="square" cx="20" cy="44" r="8"/></g><g transform="translate(10 6)"><use fill="#000" filter="url(#k)" xlink:href="#l"/><use fill="#ffeb00" xlink:href="#l"/><use fill="#000" filter="url(#m)" xlink:href="#l"/><circle stroke="#ffdb00" stroke-width="3" stroke-linejoin="square" cx="72" cy="76" r="6.5"/></g><path d="M.25 49.002c.198.37.45.708.745 1.003A4.237 4.237 0 0 0 4 51.25h60c1.588 0 3.025.644 4.066 1.684A5.732 5.732 0 0 1 69.75 57v38a5.732 5.732 0 0 1-1.684 4.066A5.732 5.732 0 0 1 64 100.75H6a5.732 5.732 0 0 1-4.066-1.684A5.732 5.732 0 0 1 .25 95z" stroke="url(#n)" stroke-width=".5" fill-opacity=".7" fill="url(#o)" transform="translate(10 6)"/></g></g></svg>