<svg width="50" height="50" xmlns="http://www.w3.org/2000/svg"><g fill="#6e7585" fill-rule="evenodd"><circle opacity=".05" cx="25" cy="25" r="25"/><path d="M20.004 32h10a1 1 0 1 1 0 2h-10a1 1 0 0 1 0-2zm5-16h.019l.04.002.035.002.023.003.027.003a1.003 1.003 0 0 1 .085.016l.032.008.03.01a.997.997 0 0 1 .23.102l.015.01.052.035a1 1 0 0 1 .031.024l.006.005.082.073 6.364 6.364a1 1 0 0 1-1.414 1.414l-4.658-4.657.001 9.586a1 1 0 1 1-2 0l-.001-9.585-4.656 4.656a1 1 0 0 1-1.414-1.414l6.364-6.364.082-.073.006-.006-.088.079a1.008 1.008 0 0 1 .415-.25l.031-.009a.993.993 0 0 1 .032-.008l.026-.005a1.003 1.003 0 0 1 .086-.014l.023-.003.035-.002.04-.002h.019z" fill-rule="nonzero"/></g></svg>