<svg width="24" height="24" xmlns="http://www.w3.org/2000/svg"><path d="M12 4c3.732 0 6.928 1.903 9.588 5.709a4 4 0 0 1 .12 4.4l-.12.182-.243.341C18.735 18.211 15.619 20 12 20c-3.732 0-6.928-1.903-9.588-5.709a4 4 0 0 1-.12-4.4l.12-.182.243-.341C5.265 5.789 8.381 4 12 4zm0 2c-2.84 0-5.305 1.361-7.492 4.228l-.225.302-.232.324a2 2 0 0 0 0 2.292C6.358 16.446 8.967 18 12 18c2.84 0 5.305-1.361 7.492-4.228l.225-.302.232-.324a2 2 0 0 0 0-2.292C17.642 7.554 15.033 6 12 6zm0 3a3 3 0 1 1 0 6 3 3 0 0 1 0-6z" fill="#6e7585" fill-rule="nonzero" opacity=".5"/></svg>