<svg width="50" height="50" xmlns="http://www.w3.org/2000/svg"><g fill="#6e7585" fill-rule="evenodd"><circle opacity=".05" cx="25" cy="25" r="25"/><path d="m29.172 17.757 3.535 3.536c.027.027.053.055.076.085l-.076-.085A1.007 1.007 0 0 1 33 22v.033l-.004.052L33 22a1.008 1.008 0 0 1-.216.621 1.01 1.01 0 0 1-.167.166l.09-.08A1.008 1.008 0 0 1 32 23H18a1 1 0 0 1 0-2h11.585l-1.828-1.828a1 1 0 0 1 1.415-1.415zM32 27a1 1 0 0 1 0 2H20.414l1.829 1.828a1 1 0 0 1-1.415 1.415l-3.535-3.536-.073-.082a.994.994 0 0 1-.003-.003l.076.085A1.007 1.007 0 0 1 17 28v-.019c0-.023.002-.047.004-.07L17 28a1.008 1.008 0 0 1 .216-.621 1.01 1.01 0 0 1 .167-.166l-.09.08A1.008 1.008 0 0 1 18 27h14z" fill-rule="nonzero"/></g></svg>