<svg width="100" height="100" xmlns="http://www.w3.org/2000/svg" xmlns:xlink="http://www.w3.org/1999/xlink"><defs><linearGradient x1="50%" y1="0" x2="50%" y2="100%" id="b"><stop stop-color="#f0c002" offset="0"/><stop stop-color="#f9e204" stop-opacity="0" offset="100%"/></linearGradient><linearGradient x1="50%" y1="50%" x2="36.462%" y2="13.305%" id="h"><stop stop-color="#ffd059" offset="0"/><stop stop-color="#fffb79" offset="100%"/></linearGradient><linearGradient x1="64.781%" y1="6.831%" x2="50%" y2="50%" id="g"><stop stop-color="#fff" stop-opacity=".9" offset="0"/><stop stop-color="#fff" stop-opacity="0" offset="100%"/></linearGradient><radialGradient cx="93.605%" cy="5.396%" fx="93.605%" fy="5.396%" r="104.952%" gradientTransform="scale(-1 -.86561) rotate(-57.097 -.107 1.716)" id="f"><stop stop-color="#fff" stop-opacity=".701" offset="0"/><stop stop-color="#3bc164" stop-opacity=".2" offset="100%"/></radialGradient><radialGradient cx="93.441%" cy="9.302%" fx="93.441%" fy="9.302%" r="92.876%" gradientTransform="matrix(-.50635 .74644 -.83025 -.422 1.485 -.565)" id="e"><stop stop-color="#fff" offset="0"/><stop stop-color="#fff" stop-opacity="0" offset="100%"/></radialGradient><filter x="-16.2%" y="-10.4%" width="132.3%" height="120.9%" filterUnits="objectBoundingBox" id="c"><feOffset dy="2" in="SourceAlpha" result="shadowOffsetOuter1"/><feGaussianBlur stdDeviation="1.5" in="shadowOffsetOuter1" result="shadowBlurOuter1"/><feColorMatrix values="0 0 0 0 0.0909838916 0 0 0 0 0.0532071747 0 0 0 0 0.177747662 0 0 0 0.0954766757 0" in="shadowBlurOuter1" result="shadowMatrixOuter1"/><feMerge><feMergeNode in="shadowMatrixOuter1"/><feMergeNode in="SourceGraphic"/></feMerge></filter><circle id="a" cx="50" cy="50" r="50"/></defs><g fill="none" fill-rule="evenodd"><mask id="d" fill="#fff"><use xlink:href="#a"/></mask><use fill="url(#b)" opacity=".15" xlink:href="#a"/><g filter="url(#c)" mask="url(#d)" stroke-width=".818"><path d="M47.728.662a3.769 3.769 0 0 1 2.897.076l2.248 1.004a3.78 3.78 0 0 1 1.996 2.107c.347.907.35 1.947-.077 2.905l-7.1 15.977a3.78 3.78 0 0 1-2.09 1.994 3.77 3.77 0 0 1-2.885-.059L32.244 20.09a1.516 1.516 0 0 0-1.995.774l-11.145 24.98 4.43 1.98a3.78 3.78 0 0 1 1.993 2.11 3.792 3.792 0 0 1-.078 2.905 3.793 3.793 0 0 1-1.582 1.75L8.728 63.242a3.77 3.77 0 0 1-2.876.364 3.777 3.777 0 0 1-2.29-1.78 3.801 3.801 0 0 1-.452-1.284L.457 43.854a3.79 3.79 0 0 1 .674-2.826 3.78 3.78 0 0 1 4.593-1.245l4.196 1.851L24.17 9.52a3.78 3.78 0 0 1 2.096-1.998 3.769 3.769 0 0 1 2.892.066l10.548 4.654a1.516 1.516 0 0 0 2-.773l3.917-8.808a3.78 3.78 0 0 1 2.104-2z" stroke="url(#e)" fill="url(#f)" transform="rotate(30 41 82.053)"/><path d="M56.272 37.417a3.77 3.77 0 0 1 2.876-.364c.935.256 1.772.87 2.29 1.78.227.397.38.833.452 1.284l2.653 16.69a3.79 3.79 0 0 1-.674 2.825 3.78 3.78 0 0 1-4.593 1.245l-4.196-1.851L40.83 91.14a3.78 3.78 0 0 1-2.096 1.998 3.769 3.769 0 0 1-2.892-.066l-10.548-4.654a1.516 1.516 0 0 0-2 .773L19.375 98a3.78 3.78 0 0 1-2.104 2 3.769 3.769 0 0 1-2.897-.077l-2.248-1.003a3.78 3.78 0 0 1-1.996-2.108 3.792 3.792 0 0 1 .077-2.905l7.1-15.977a3.78 3.78 0 0 1 2.09-1.994 3.77 3.77 0 0 1 2.885.06l10.473 4.576a1.516 1.516 0 0 0 1.995-.774l11.145-24.98-4.43-1.981a3.78 3.78 0 0 1-1.993-2.11 3.792 3.792 0 0 1 .078-2.904 3.793 3.793 0 0 1 1.582-1.75z" stroke="url(#g)" fill-opacity=".7" fill="url(#h)" transform="rotate(30 41 82.053)"/></g></g></svg>