<svg width="32" height="32" xmlns="http://www.w3.org/2000/svg"><g fill="none" fill-rule="evenodd"><circle fill="#297aff" cx="16" cy="16" r="16"/><path d="M13.003 9h.019c.023 0 .047.002.07.004L13.002 9a1.008 1.008 0 0 1 .622.216c.062.05.117.105.166.167l-.08-.09a1.008 1.008 0 0 1 .293.707v12a1 1 0 0 1-2 0v-9.586l-1.122 1.122a1 1 0 1 1-1.414-1.415l2.829-2.828.081-.073.009-.007-.09.08A1.008 1.008 0 0 1 12.984 9h.019zm6 0a1 1 0 0 1 1 1v9.585l1.121-1.12a1 1 0 0 1 1.414 1.414l-2.828 2.828a1.006 1.006 0 0 1-.086.076l.086-.076a1.007 1.007 0 0 1-.707.293h-.033l-.052-.004.085.004a1.008 1.008 0 0 1-.617-.213 1.008 1.008 0 0 1-.17-.17l.08.09a1.008 1.008 0 0 1-.293-.707V10a1 1 0 0 1 1-1z" fill="#fff"/></g></svg>