<svg width="24" height="24" xmlns="http://www.w3.org/2000/svg"><g fill="#297aff" fill-rule="evenodd"><rect opacity=".2" x="2" y="2" width="20" height="20" rx="3"/><path d="M9 15h6a1 1 0 0 1 0 2H9a1 1 0 0 1 0-2zm3-8a1 1 0 0 1 1 1v3.267l1.964-1.133a1 1 0 0 1 1 1.732l-3.464 2-.014.008a1 1 0 0 1-.046.024l-.03.012-.014.009a1 1 0 0 1-.059.023l-.032.01a.993.993 0 0 1-.033.01l-.024.007a.332.332 0 0 1-.019.005l-.02.004a.992.992 0 0 1-.05.01l-.023.003a.62.62 0 0 1-.02.002l-.026.003a.996.996 0 0 1-.068.004H11.98a1 1 0 0 1-.067-.004l-.03-.003-.019-.002a1.005 1.005 0 0 1-.093-.017l-.019-.005a1.006 1.006 0 0 1-.09-.027l-.013-.006a1.005 1.005 0 0 1-.089-.038l-.015-.008a1 1 0 0 1-.026-.013l-.019-.011-3.464-2a1 1 0 0 1 1-1.732L11 11.267V8a1 1 0 0 1 1-1z"/></g></svg>