<svg width="24" height="24" xmlns="http://www.w3.org/2000/svg"><g fill="#f0c002" fill-rule="evenodd"><rect opacity=".2" x="2" y="2" width="20" height="20" rx="3"/><path d="M15 13a1 1 0 0 1 0 2h-3.586l.414.414a1 1 0 1 1-1.414 1.414l-2.121-2.12-.073-.083a1.003 1.003 0 0 1-.003-.003l.076.085A1.007 1.007 0 0 1 8 14v-.019c0-.023.002-.047.004-.07L8 14a1.008 1.008 0 0 1 .213-.617c.05-.063.107-.12.17-.17l-.09.08A1.008 1.008 0 0 1 9 13h6zm-1.414-5.828 2.121 2.12c.029.03.055.06.08.091l-.08-.09A1.007 1.007 0 0 1 16 10v.033l-.004.052L16 10a1.008 1.008 0 0 1-.216.621 1.01 1.01 0 0 1-.167.166l.09-.08a1.008 1.008 0 0 1-.674.292L15 11H9a1 1 0 0 1 0-2h3.585l-.413-.414a1 1 0 0 1 1.414-1.414z"/></g></svg>