<svg width="24" height="24" xmlns="http://www.w3.org/2000/svg"><g fill="#3bc164" fill-rule="evenodd"><rect opacity=".2" x="2" y="2" width="20" height="20" rx="3"/><path d="M9 15h6a1 1 0 0 1 0 2H9a1 1 0 0 1 0-2zm3.288-7.958.023.007a.992.992 0 0 1 .026.01l.015.005a1.005 1.005 0 0 1 .088.038l.014.007a1 1 0 0 1 .025.013l.008.005.013.007 3.464 2a1 1 0 0 1-1 1.732L13 9.732V13a1 1 0 0 1-2 0V9.732l-1.964 1.134a1 1 0 1 1-1-1.732l3.464-2 .012-.007a1 1 0 0 1 .048-.025l.025-.011.02-.01a1 1 0 0 1 .021-.009l.02-.007a.307.307 0 0 1 .017-.007l.026-.009a.993.993 0 0 1 .042-.012l.018-.005a.406.406 0 0 1 .022-.006l.02-.004a.992.992 0 0 1 .05-.01l.023-.003a.92.92 0 0 1 .05-.005l.018-.002A.997.997 0 0 1 11.988 7h.024a1 1 0 0 1 .077.004h.003l.025.003.017.002a1.005 1.005 0 0 1 .095.017l.026.007a1.006 1.006 0 0 1 .033.01z"/></g></svg>