<svg width="24" height="24" xmlns="http://www.w3.org/2000/svg"><defs><linearGradient x1="0" y1="100%" x2="100%" y2="0" id="a"><stop stop-color="#db20ff" offset="0"/><stop stop-color="#0cf6a7" offset="100%"/></linearGradient></defs><g fill="none" fill-rule="evenodd"><circle fill="url(#a)" cx="12" cy="12" r="12"/><path d="M9.333 6.5H16.5A.833.833 0 0 1 17 8l-1.733 1.3a1 1 0 0 1-.6.2H7.5A.833.833 0 0 1 7 8l1.733-1.3a1 1 0 0 1 .6-.2zm-1.833 4h7.167a1 1 0 0 1 .6.2L17 12a.833.833 0 0 1-.5 1.5H9.333a1 1 0 0 1-.6-.2L7 12a.833.833 0 0 1 .5-1.5zm1.833 4H16.5A.833.833 0 0 1 17 16l-1.733 1.3a1 1 0 0 1-.6.2H7.5A.833.833 0 0 1 7 16l1.733-1.3a1 1 0 0 1 .6-.2z" fill="#fff"/></g></svg>