<?xml version="1.0" encoding="UTF-8"?>
<svg width="24px" height="24px" viewBox="0 0 24 24" version="1.1" xmlns="http://www.w3.org/2000/svg" xmlns:xlink="http://www.w3.org/1999/xlink">
    <title>帮助中心图标备份 41</title>
    <g id="扩展程序" stroke="none" stroke-width="1" fill="none" fill-rule="evenodd">
        <g id="删除钱包" transform="translate(-176.000000, -139.000000)">
            <g id="编组" transform="translate(20.000000, 91.000000)">
                <g id="编组-3" transform="translate(138.000000, 30.000000)">
                    <g id="编组" transform="translate(17.000000, 15.000000)">
                        <path d="M12.1450892,5.52275651 C12.8810217,5.30396575 13.7004201,5.3659238 14.4288494,5.76048968 C14.9406032,6.03768961 15.360676,6.45776241 15.6378759,6.96951613 L15.6378759,6.96951613 L21.9220945,18.5711506 C22.3166604,19.2995799 22.3786185,20.1189783 22.1598277,20.8549108 C21.941037,21.5908433 21.4414974,22.24331 20.7130681,22.6378759 C20.2743126,22.8755351 19.7832059,23 19.2842186,23 L19.2842186,23 L6.71578135,23 C5.88735423,23 5.13735423,22.6642136 4.59446101,22.1213203 C4.05156779,21.5784271 3.71578135,20.8284271 3.71578135,20 C3.71578135,19.5010128 3.84024625,19.009906 4.07790546,18.5711506 L4.07790546,18.5711506 L10.3621241,6.96951613 C10.75669,6.24108682 11.4091567,5.74154726 12.1450892,5.52275651 Z" id="矩形" stroke="#F04438" stroke-width="2"></path>
                        <path d="M13,18 C13.5522847,18 14,18.4477153 14,19 C14,19.5522847 13.5522847,20 13,20 C12.4477153,20 12,19.5522847 12,19 C12,18.4477153 12.4477153,18 13,18 Z M13,11 C13.5522847,11 14,11.4477153 14,12 L14,15 C14,15.5522847 13.5522847,16 13,16 C12.4477153,16 12,15.5522847 12,15 L12,12 C12,11.4477153 12.4477153,11 13,11 Z" id="形状结合" fill="#F04438"></path>
                    </g>
                </g>
            </g>
        </g>
    </g>
</svg>