<?xml version="1.0" encoding="UTF-8"?>
<svg width="24px" height="24px" viewBox="0 0 24 24" version="1.1" xmlns="http://www.w3.org/2000/svg" xmlns:xlink="http://www.w3.org/1999/xlink">
    <title>帮助中心图标备份 36</title>
    <g id="扩展程序" stroke="none" stroke-width="1" fill="none" fill-rule="evenodd">
        <g id="设置" transform="translate(-40.000000, -698.000000)">
            <g id="编组-6备份-8" transform="translate(20.000000, 514.000000)">
                <g id="编组-4备份-25" transform="translate(20.000000, 168.000000)">
                    <g id="编组" transform="translate(0.000000, 16.000000)">
                        <circle id="椭圆形" cx="12" cy="12" r="12"></circle>
                        <g id="编组-2" transform="translate(2.000000, 1.000000)">
                            <path d="M9.98163255,1.7690867 C10.4211806,1.75173612 10.8444339,1.88332544 11.2,2.15 C12.9554182,3.46656363 14.947109,3.69818937 16.6925824,3 C17.0137829,2.8715198 17.3315948,2.85391147 17.599293,2.95407032 C17.8330099,3.04151515 18.0186523,3.2205555 18.1150132,3.46145779 L18.1150132,3.46145779 L18.8802844,14.2375624 C18.9052356,14.6118306 18.8244133,14.9773431 18.656942,15.2975354 C18.4894706,15.6177276 18.2353503,15.8925994 17.9137056,16.0855863 L17.9137056,16.0855863 L12.057983,19.5990198 C11.4246182,19.9790387 10.7123091,20.1690481 10,20.1690481 C9.28769088,20.1690481 8.57538175,19.9790387 7.94201698,19.5990198 L7.94201698,19.5990198 L2.0862944,16.0855863 C1.76464968,15.8925994 1.51052937,15.6177276 1.34305805,15.2975354 C1.17558672,14.9773431 1.09476439,14.6118306 1.1197156,14.2375624 L1.1197156,14.2375624 L1.81867724,3.75313777 C1.83625115,3.48952912 1.95900985,3.25799952 2.14327724,3.09676556 C2.32754463,2.93553159 2.5733207,2.84459327 2.83692935,2.86216718 C5.10373766,3.71852803 7.09228668,3.43078499 8.6,2.3 C9.04320338,1.96759747 9.51826975,1.78737733 9.98163255,1.7690867 Z" id="矩形" stroke="#6E7585" stroke-width="2"></path>
                            <path d="M13.9497475,8.05025253 C14.3402718,8.44077682 14.3402718,9.0739418 13.9497475,9.46446609 L9.70710678,13.7071068 L9.70710678,13.7071068 C9.55690513,13.8573084 9.37080989,13.9497402 9.17643151,13.9844021 L9.05903139,13.9982669 L9.05903139,13.9982669 L8.94096861,13.9982669 C8.70506395,13.9844021 8.4731352,13.8873488 8.29289322,13.7071068 L5.46446609,10.8786797 C5.0739418,10.4881554 5.0739418,9.85499039 5.46446609,9.46446609 C5.85499039,9.0739418 6.48815536,9.0739418 6.87867966,9.46446609 L8.99957288,11.5853593 L12.5355339,8.05025253 C12.9260582,7.65972824 13.5592232,7.65972824 13.9497475,8.05025253 Z" id="形状结合" fill="#6E7585"></path>
                        </g>
                    </g>
                </g>
            </g>
        </g>
    </g>
</svg>