<svg width="24" height="24" xmlns="http://www.w3.org/2000/svg"><g fill="none" fill-rule="evenodd"><circle cx="12" cy="12" r="12"/><path d="M18.957 5.267a.05.05 0 0 0-.026-.024 16.69 16.69 0 0 0-4.071-1.242.062.062 0 0 0-.065.03c-.187.333-.356.675-.507 1.025a15.472 15.472 0 0 0-4.573 0c-.152-.35-.324-.693-.514-1.025a.065.065 0 0 0-.066-.03 16.643 16.643 0 0 0-4.07 1.242.058.058 0 0 0-.028.023c-2.593 3.812-3.303 7.53-2.954 11.201a.067.067 0 0 0 .026.046 16.69 16.69 0 0 0 4.994 2.484.065.065 0 0 0 .07-.022c.386-.517.727-1.064 1.022-1.636.008-.016.009-.034.002-.05s-.02-.03-.037-.036a11.002 11.002 0 0 1-1.56-.732.063.063 0 0 1-.006-.105c.105-.077.208-.157.31-.239a.063.063 0 0 1 .064-.008c3.273 1.47 6.817 1.47 10.051 0a.062.062 0 0 1 .065.008c.102.082.206.162.311.24a.063.063 0 0 1-.005.104c-.499.286-1.021.531-1.561.73a.063.063 0 0 0-.037.037.062.062 0 0 0 .003.051c.299.569.64 1.115 1.02 1.635a.064.064 0 0 0 .07.023 16.634 16.634 0 0 0 5.003-2.484.063.063 0 0 0 .026-.045c.417-4.245-.699-7.932-2.957-11.201zM8.683 13.232c-.985 0-1.797-.89-1.797-1.984 0-1.093.796-1.983 1.797-1.983 1.01 0 1.814.898 1.798 1.983 0 1.093-.796 1.984-1.798 1.984zm6.646 0c-.985 0-1.797-.89-1.797-1.984 0-1.093.796-1.983 1.797-1.983 1.01 0 1.813.898 1.797 1.983 0 1.093-.788 1.984-1.797 1.984z" stroke="#6e7585" stroke-linejoin="round" stroke-width="1.667"/></g></svg>