<?xml version="1.0" encoding="UTF-8"?>
<svg width="24px" height="24px" viewBox="0 0 24 24" version="1.1" xmlns="http://www.w3.org/2000/svg" xmlns:xlink="http://www.w3.org/1999/xlink">
    <title>帮助中心图标备份 36</title>
    <g id="扩展程序" stroke="none" stroke-width="1" fill="none" fill-rule="evenodd">
        <g id="设置" transform="translate(-40.000000, -1041.000000)">
            <g id="编组-6备份-9" transform="translate(20.000000, 969.000000)">
                <g id="编组-4备份-26" transform="translate(20.000000, 56.000000)">
                    <g id="编组" transform="translate(0.000000, 16.000000)">
                        <circle id="椭圆形" cx="12" cy="12" r="12"></circle>
                        <g id="形状-2" transform="translate(2.000000, 4.000000)" stroke="#6E7585" stroke-linejoin="round" stroke-width="1.66666667">
                            <path d="M16.9568918,1.26685675 C16.9513329,1.25625363 16.9421208,1.24794503 16.9309053,1.24341919 C15.6341924,0.657769442 14.2657885,0.240155316 12.8599386,0.00102781679 C12.8337419,-0.00376632025 12.8073748,0.00851612031 12.7945302,0.03149664 C12.6081963,0.364406692 12.4390464,0.706360157 12.2877257,1.05605267 C10.7722963,0.829606294 9.23082602,0.829606294 7.71539663,1.05605267 C7.5630741,0.705472197 7.39121355,0.363433482 7.2005989,0.03149664 C7.18721939,0.00906588027 7.16125887,-0.00302087866 7.13515649,0.00102781679 C5.72915802,0.239653294 4.36066524,0.657298817 3.06412173,1.24345268 C3.0530228,1.24808444 3.04365776,1.25599286 3.03731891,1.26608666 C0.444486643,5.07763599 -0.26578797,8.79546859 0.0826486323,12.4672631 C0.0846290882,12.4854451 0.0940187057,12.5020582 0.108669132,12.5133012 C1.61845134,13.6137123 3.307161,14.4536645 5.10273436,14.9973138 C5.1286314,15.0049609 5.15662715,14.9959307 5.17290467,14.9746799 C5.55855489,14.4581429 5.90026993,13.911176 6.19457494,13.3393411 C6.20275464,13.323469 6.2036449,13.3049104 6.19702098,13.2883502 C6.19039706,13.27179 6.17689195,13.2588108 6.15991496,13.2526891 C5.62105529,13.0497311 5.09937619,12.8050701 4.5997734,12.5210021 C4.58134292,12.5103368 4.56952537,12.4913302 4.56826234,12.4703218 C4.5669993,12.4493134 4.57645696,12.4290674 4.59348086,12.4163367 C4.69860937,12.3390364 4.80191381,12.259361 4.90331189,12.177374 C4.92145198,12.1626669 4.94649046,12.1593461 4.96793796,12.1688026 C8.24104474,13.6392414 11.7846287,13.6392414 15.0189938,12.1688026 C15.0405066,12.1587362 15.0659863,12.1617736 15.0844362,12.1766039 C15.1859495,12.2590244 15.289519,12.3389598 15.3950496,12.4163367 C15.4121645,12.4289368 15.4217716,12.4491068 15.4206655,12.4701167 C15.4195594,12.4911266 15.4078857,12.5102109 15.3895393,12.5210021 C14.8910726,12.8074597 14.3689206,13.0519675 13.8286495,13.251919 C13.8116808,13.2582754 13.7982686,13.2714498 13.7917749,13.2881397 C13.7852813,13.3048297 13.7863219,13.3234529 13.7946357,13.3393411 C14.0938681,13.9079959 14.4350799,14.4542738 14.8155237,14.9737758 C14.8313592,14.9956304 14.8596175,15.0050689 14.885694,14.9972134 C16.684485,14.4554072 18.3761462,13.6153768 19.8878205,12.5133012 C19.9027108,12.5026038 19.9121935,12.4861067 19.913841,12.4680332 C20.3309853,8.2230565 19.2154712,4.53569273 16.9568918,1.26685675 L16.9568918,1.26685675 Z M6.68338619,9.23152114 C5.69794054,9.23152114 4.88596489,8.34132927 4.88596489,7.24806772 C4.88596489,6.15480616 5.68219218,5.26454733 6.68338619,5.26454733 C7.69240335,5.26454733 8.49652183,6.16254056 8.48077348,7.24800075 C8.48077348,8.34132927 7.68451217,9.23152114 6.68338619,9.23152114 L6.68338619,9.23152114 Z M13.3289878,9.23152114 C12.3435762,9.23152114 11.5316006,8.34132927 11.5316006,7.24806772 C11.5316006,6.15480616 12.3278279,5.26454733 13.3289878,5.26454733 C14.338073,5.26454733 15.1421575,6.16254056 15.1264092,7.24800075 C15.1264092,8.34132927 14.338073,9.23152114 13.3289878,9.23152114 Z" id="形状"></path>
                        </g>
                    </g>
                </g>
            </g>
        </g>
    </g>
</svg>