<svg width="24" height="24" xmlns="http://www.w3.org/2000/svg"><path d="M12 1a6.002 6.002 0 0 1 5.917 5H19a3 3 0 0 1 3 3v10a3 3 0 0 1-3 3H5a3 3 0 0 1-3-3V9a3 3 0 0 1 3-3h1.083A6.002 6.002 0 0 1 12 1zm7 7H5a1 1 0 0 0-1 1v10a1 1 0 0 0 1 1h14a1 1 0 0 0 1-1V9a1 1 0 0 0-1-1zm-7 2a1 1 0 0 1 1 1v2.585l2.536 2.536a1 1 0 0 1-1.415 1.415l-2.828-2.829-.073-.082a1.003 1.003 0 0 1-.007-.008l.08.09A1.008 1.008 0 0 1 11 14.02 1 1 0 0 1 11 14v-3a1 1 0 0 1 1-1zm0-7a4.002 4.002 0 0 0-3.874 3h7.748A4.002 4.002 0 0 0 12 3z" fill="#6e7585" fill-rule="nonzero"/></svg>