<?xml version="1.0" encoding="UTF-8"?>
<svg width="24px" height="24px" viewBox="0 0 24 24" version="1.1" xmlns="http://www.w3.org/2000/svg" xmlns:xlink="http://www.w3.org/1999/xlink">
    <title>帮助中心图标备份 36</title>
    <g id="扩展程序" stroke="none" stroke-width="1" fill="none" fill-rule="evenodd">
        <g id="设置" transform="translate(-40.000000, -1209.000000)">
            <g id="编组-6备份-9" transform="translate(20.000000, 969.000000)">
                <g id="编组-4备份-28" transform="translate(20.000000, 224.000000)">
                    <g id="编组" transform="translate(0.000000, 16.000000)">
                        <circle id="椭圆形" cx="12" cy="12" r="12"></circle>
                        <g id="编组-2" transform="translate(2.000000, 1.000000)">
                            <path d="M9.56613908,1.12080737 C9.85189436,1.05730619 10.1481056,1.05730619 10.4338609,1.12080737 L10.4338609,1.12080737 L16.6007607,2.49122954 C17.0323876,2.58714662 17.4069005,2.81910051 17.6813824,3.13733319 C17.9558642,3.45556587 18.1303149,3.86007733 18.1618172,4.30110956 L18.1618172,4.30110956 L18.8712477,14.2331366 C18.8980939,14.6089834 18.818166,14.9764212 18.6507497,15.2983635 C18.4833334,15.6203057 18.2284289,15.8967523 17.9053218,16.0906165 L17.9053218,16.0906165 L12.057983,19.5990198 C11.4246182,19.9790387 10.7123091,20.1690481 10,20.1690481 C9.28769088,20.1690481 8.57538175,19.9790387 7.94201698,19.5990198 L7.94201698,19.5990198 L2.09467819,16.0906165 C1.77157113,15.8967523 1.51666656,15.6203057 1.3492503,15.2983635 C1.18183405,14.9764212 1.10190611,14.6089834 1.1287523,14.2331366 L1.1287523,14.2331366 L1.83818281,4.30110956 C1.86968511,3.86007733 2.0441358,3.45556587 2.31861764,3.13733319 C2.59309947,2.81910051 2.96761244,2.58714662 3.39923929,2.49122954 L3.39923929,2.49122954 Z" id="矩形" stroke="#6E7585" stroke-width="2"></path>
                            <path d="M10,6 C11.1045695,6 12,6.8954305 12,8 C12,8.74025244 11.5978339,9.38657394 11.0000725,9.73239368 L11,13 C11,13.5522847 10.5522847,14 10,14 C9.44771525,14 9,13.5522847 9,13 L8.9989225,9.73181186 C8.40171539,9.38584934 8,8.7398375 8,8 C8,6.8954305 8.8954305,6 10,6 Z" id="形状结合" fill="#6E7585"></path>
                        </g>
                    </g>
                </g>
            </g>
        </g>
    </g>
</svg>