<svg width="24" height="24" xmlns="http://www.w3.org/2000/svg"><g fill="none" fill-rule="evenodd"><circle cx="12" cy="12" r="12"/><path d="M11.566 2.12a2 2 0 0 1 .868 0L18.6 3.492a1.997 1.997 0 0 1 1.56 1.81l.71 9.932a1.998 1.998 0 0 1-.966 1.858l-5.847 3.508a3.997 3.997 0 0 1-4.116 0l-5.847-3.508a1.998 1.998 0 0 1-.966-1.858l.71-9.932a1.997 1.997 0 0 1 1.56-1.81z" stroke="#6e7585" stroke-width="2"/><path d="M12 7a2 2 0 0 1 1 3.732V14a1 1 0 0 1-2 0l-.001-3.268A2 2 0 0 1 12 7z" fill="#6e7585"/></g></svg>