<svg width="24" height="24" xmlns="http://www.w3.org/2000/svg"><path d="M20 1a1 1 0 0 1 1 1v4a1 1 0 0 1-.883.993L20 7h-4a1 1 0 0 1 0-2h1.657a9 9 0 1 0 2.803 3.924l1.88-.684c.427 1.173.66 2.44.66 3.76 0 6.075-4.925 11-11 11S1 18.075 1 12 5.925 1 12 1c2.66 0 5.099.944 7.001 2.515L19 2a1 1 0 0 1 1-1zm-9 6a1 1 0 0 1 1 1v4.585l2.536 2.536a1 1 0 0 1-1.415 1.415l-2.828-2.829a1.04 1.04 0 0 1-.08-.09l.08.09A1.008 1.008 0 0 1 10 13.02 1 1 0 0 1 10 13V8a1 1 0 0 1 1-1z" fill="#f04438" fill-rule="evenodd"/></svg>