<svg width="24" height="24" xmlns="http://www.w3.org/2000/svg"><path d="M19 12a3 3 0 0 1 3 3v4a3 3 0 0 1-3 3h-4a3 3 0 0 1-3-3H9.874A4.002 4.002 0 0 1 2 18a4 4 0 0 1 7.874-1H12v-2a3 3 0 0 1 3-3h4zm0 2h-4a1 1 0 0 0-1 1v4a1 1 0 0 0 1 1h4a1 1 0 0 0 1-1v-4a1 1 0 0 0-1-1zM6 16a2 2 0 1 0 0 4 2 2 0 0 0 0-4zM9 2a3 3 0 0 1 3 3h2.126A4.002 4.002 0 0 1 22 6a4 4 0 0 1-7.874 1H12v2a3 3 0 0 1-3 3H5a3 3 0 0 1-3-3V5a3 3 0 0 1 3-3h4zm0 2H5a1 1 0 0 0-1 1v4a1 1 0 0 0 1 1h4a1 1 0 0 0 1-1V5a1 1 0 0 0-1-1zm9 0a2 2 0 1 0 0 4 2 2 0 0 0 0-4z" fill="#6e7585" fill-rule="nonzero"/></svg>