<?xml version="1.0" encoding="UTF-8"?>
<svg width="24px" height="24px" viewBox="0 0 24 24" version="1.1" xmlns="http://www.w3.org/2000/svg" xmlns:xlink="http://www.w3.org/1999/xlink">
    <title>形状结合</title>
    <g id="扩展程序" stroke="none" stroke-width="1" fill="none" fill-rule="evenodd">
        <g id="设置" transform="translate(-40.000000, -243.000000)" stroke="#6E7585" stroke-width="2">
            <g id="编组-6备份-7" transform="translate(20.000000, 171.000000)">
                <g id="编组-4备份-26" transform="translate(20.000000, 56.000000)">
                    <g id="我的-交易记录" transform="translate(0.000000, 16.000000)">
                        <g id="形状结合-3" transform="translate(1.488128, 1.999915)">
                            <path d="M5.92817802,1.0000295 C6.26600931,1.77337261 6.79362878,2.44486161 7.45257977,2.9551628 C8.29822075,3.61003941 9.35946315,4.0000851 10.5118716,4.0000851 C11.66428,4.0000851 12.7255224,3.61003941 13.5711633,2.9551628 C14.2301143,2.44486161 14.7577338,1.77337261 15.0955651,1.0000295 L15.0955651,1.0000295 L16.4328701,1.0000851 C16.8497147,1.0000851 17.2446973,1.12937151 17.5720598,1.35623386 C17.8994223,1.58309621 18.1591646,1.90753449 18.3055285,2.29783821 L18.3055285,2.29783821 L19.9425456,6.66321711 C20.0463178,6.939943 20.0479277,7.23417844 19.9621179,7.5002169 C19.876308,7.76625535 19.7030783,8.00409683 19.4571714,8.1680348 C18.1395535,9.04644673 17.5118716,10.2927069 17.5118716,11.6056364 L17.5118716,11.6056364 L17.5118716,17.0000851 C17.5118716,17.5523698 17.2880139,18.0523698 16.9260851,18.4142987 C16.5641563,18.7762275 16.0641563,19.0000851 15.5118716,19.0000851 L15.5118716,19.0000851 L5.51187155,19.0000851 C4.9595868,19.0000851 4.4595868,18.7762275 4.09765799,18.4142987 C3.73572918,18.0523698 3.51187155,17.5523698 3.51187155,17.0000851 L3.51187155,17.0000851 L3.51187155,11.6056364 C3.51187155,10.2682236 2.84346701,9.01929831 1.73067234,8.2774352 C1.41355802,8.06602565 1.18780246,7.79855467 1.07763944,7.49968164 C0.977919406,7.22914049 0.978406834,6.9373256 1.08119752,6.66321711 L1.08119752,6.66321711 L2.7182146,2.29783821 C2.8645785,1.90753449 3.12432081,1.58309621 3.45168328,1.35623386 C3.77904576,1.12937151 4.1740284,1.0000851 4.59091453,1.0000851 L4.59091453,1.0000851 Z" id="形状结合"></path>
                        </g>
                    </g>
                </g>
            </g>
        </g>
    </g>
</svg>