<svg width="24" height="24" xmlns="http://www.w3.org/2000/svg"><path d="M7.416 3a5.015 5.015 0 0 0 1.525 1.955A4.98 4.98 0 0 0 12 6a4.98 4.98 0 0 0 3.06-1.045A5.015 5.015 0 0 0 16.583 3h1.337a1.998 1.998 0 0 1 1.873 1.298l1.637 4.365a1.27 1.27 0 0 1-.486 1.505C19.628 11.046 19 12.293 19 13.606V19c0 .552-.224 1.052-.586 1.414A1.994 1.994 0 0 1 17 21H7a1.994 1.994 0 0 1-1.414-.586A1.994 1.994 0 0 1 5 19v-5.394a4 4 0 0 0-1.781-3.329c-.317-.211-.543-.479-.653-.777-.1-.27-.1-.563.003-.837l1.637-4.365A1.998 1.998 0 0 1 6.08 3z" stroke="#6e7585" stroke-width="2" fill="none" fill-rule="evenodd"/></svg>