<?xml version="1.0" encoding="UTF-8"?>
<svg width="24px" height="24px" viewBox="0 0 24 24" version="1.1" xmlns="http://www.w3.org/2000/svg" xmlns:xlink="http://www.w3.org/1999/xlink">
    <title>帮助中心图标备份 37</title>
    <g id="扩展程序" stroke="none" stroke-width="1" fill="none" fill-rule="evenodd" stroke-linejoin="round">
        <g id="设置" transform="translate(-40.000000, -1097.000000)" stroke="#6E7585" stroke-width="2">
            <g id="编组-6备份-9" transform="translate(20.000000, 969.000000)">
                <g id="编组-4备份-27" transform="translate(20.000000, 112.000000)">
                    <g id="我的-语言切换" transform="translate(0.000000, 16.000000)">
                        <g id="路径-2" transform="translate(3.000000, 5.000000)">
                            <path d="M18.5651103,-1.86282572 C18.744959,-1.05464748 18.7049144,-0.216751643 18.4443796,0.562361566 L18.512,0.337 L20.761169,-0.621108542 L18.8252643,2.20782926 C18.3726834,2.86918585 17.8231466,3.46356555 17.1940166,3.97316446 C17.0976026,7.18863134 15.8873826,9.83376276 13.823281,11.8059616 C11.6568698,13.8759147 8.71523311,15.0286021 5.65621036,14.9994658 C3.46514511,15.0010611 1.3200803,14.3978819 -0.523955136,13.2635155 L-0.523955136,13.2635155 L-4.35155052,10.9089537 L0.113323956,11.4182116 C0.374864959,11.4480426 0.638002223,11.4631778 0.899030489,11.4635426 C1.59272948,11.4628701 2.2767487,11.3549125 2.92581302,11.1476582 C1.99654772,10.4909317 1.39838687,9.71161993 1.0865784,8.78841632 L1.0865784,8.78841632 L0.809,7.966 L0.706093615,7.85524265 C0.0686240377,7.13195939 -0.336642483,6.22163787 -0.418848084,5.23295765 L-0.432616469,4.98421802 C-0.447265286,4.45545353 -0.36872471,3.94088954 -0.20946449,3.45745023 L-0.20946449,3.45745023 L-0.124,3.515 L-0.127884383,3.50528997 C-0.196385577,3.21759211 -0.235658161,2.92178943 -0.24376248,2.62187058 L-0.243966363,2.39622198 C-0.240773264,1.59325621 -0.0168636891,0.804990146 0.406789148,0.111952067 C0.655508657,-0.294919021 0.964829026,-0.655482108 1.32229413,-0.958490541 C1.53510269,-0.629471777 1.76911986,-0.3132328 2.02371657,-0.0120334986 C3.4498063,1.67509448 5.44870602,2.80412781 7.64720767,3.19991926 L7.788,3.222 L7.80346048,3.03742584 C7.87950845,2.37184443 8.10577889,1.74058146 8.45607597,1.18255339 L8.59319996,0.976801762 C9.10956111,0.245953275 9.84848086,-0.341427719 10.7428289,-0.682957082 C11.6284898,-1.02116909 12.5769534,-1.08355747 13.4677442,-0.894973352 C14.1778611,-0.74463866 14.8508598,-0.435001627 15.4274261,0.0194826274 C15.9787328,-0.126800248 16.508024,-0.342850308 17.0010336,-0.623687917 C17.5799782,-0.953477461 18.1075914,-1.37186866 18.5651103,-1.86282572 Z" id="路径"></path>
                        </g>
                    </g>
                </g>
            </g>
        </g>
    </g>
</svg>