<svg width="24" height="24" xmlns="http://www.w3.org/2000/svg"><path d="M21.565 3.137c.18.808.14 1.646-.12 2.425l.067-.225 2.25-.958-1.937 2.829a8.32 8.32 0 0 1-1.631 1.765c-.096 3.216-1.307 5.86-3.37 7.833-2.167 2.07-5.109 3.223-8.168 3.193a11.79 11.79 0 0 1-6.18-1.735l-3.828-2.355 4.465.51a6.687 6.687 0 0 0 2.812-.27c-.928-.658-1.527-1.437-1.838-2.36l-.278-.823-.103-.11a4.529 4.529 0 0 1-1.125-2.623l-.014-.249a4.476 4.476 0 0 1 .224-1.527l.085.058-.004-.01a4.316 4.316 0 0 1-.116-.883v-.226a4.433 4.433 0 0 1 1.566-3.355c.213.33.447.646.702.947C6.45 6.675 8.449 7.804 10.647 8.2l.141.022.015-.185a4.433 4.433 0 0 1 .653-1.854l.137-.206a4.66 4.66 0 0 1 2.15-1.66 4.836 4.836 0 0 1 2.725-.212c.71.15 1.383.46 1.96.914a6.598 6.598 0 0 0 3.137-1.882z" stroke="#6e7585" stroke-width="2" fill="none" fill-rule="evenodd" stroke-linejoin="round"/></svg>