<?xml version="1.0" encoding="UTF-8"?>
<svg width="24px" height="24px" viewBox="0 0 24 24" version="1.1" xmlns="http://www.w3.org/2000/svg" xmlns:xlink="http://www.w3.org/1999/xlink">
    <title>帮助中心图标备份 38</title>
    <g id="扩展程序" stroke="none" stroke-width="1" fill="none" fill-rule="evenodd">
        <g id="设置" transform="translate(-40.000000, -1153.000000)" fill="#6E7585" fill-rule="nonzero">
            <g id="编组-6备份-9" transform="translate(20.000000, 969.000000)">
                <g id="编组-4备份-25" transform="translate(20.000000, 168.000000)">
                    <g id="默认法币" transform="translate(0.000000, 16.000000)">
                        <path d="M16,14 C19.3137085,14 22,16.6862915 22,20 L22,23 L2,23 L2,20 C2,16.6862915 4.6862915,14 8,14 L16,14 Z M16,16 L8,16 C5.790861,16 4,17.790861 4,20 L4,20 L4,21 L20,21 L20,20 C20,17.790861 18.209139,16 16,16 L16,16 Z M12,1 C15.3137085,1 18,3.6862915 18,7 C18,10.3137085 15.3137085,13 12,13 C8.6862915,13 6,10.3137085 6,7 C6,3.6862915 8.6862915,1 12,1 Z M12,3 C9.790861,3 8,4.790861 8,7 C8,9.209139 9.790861,11 12,11 C14.209139,11 16,9.209139 16,7 C16,4.790861 14.209139,3 12,3 Z" id="形状结合备份-5"></path>
                    </g>
                </g>
            </g>
        </g>
    </g>
</svg>