<?xml version="1.0" encoding="UTF-8"?>
<svg width="24px" height="24px" viewBox="0 0 24 24" version="1.1" xmlns="http://www.w3.org/2000/svg" xmlns:xlink="http://www.w3.org/1999/xlink">
    <title>帮助中心图标备份 38</title>
    <g id="扩展程序" stroke="none" stroke-width="1" fill="none" fill-rule="evenodd">
        <g id="设置" transform="translate(-40.000000, -1265.000000)">
            <g id="编组-6备份-9" transform="translate(20.000000, 969.000000)">
                <g id="编组-4备份-30" transform="translate(20.000000, 280.000000)">
                    <g id="默认法币" transform="translate(0.000000, 16.000000)">
                        <path d="M12,1 C18.0751322,1 23,5.92486775 23,12 C23,18.0751322 18.0751322,23 12,23 C5.92486775,23 1,18.0751322 1,12 C1,5.92486775 5.92486775,1 12,1 Z M12,3 C7.02943725,3 3,7.02943725 3,12 C3,16.9705627 7.02943725,21 12,21 C16.9705627,21 21,16.9705627 21,12 C21,7.02943725 16.9705627,3 12,3 Z" id="形状结合备份-4" fill="#6E7585" fill-rule="nonzero"></path>
                        <polyline id="路径" stroke="#6E7585" stroke-width="2" stroke-linecap="round" stroke-linejoin="round" points="15 9 12 16 9 9"></polyline>
                    </g>
                </g>
            </g>
        </g>
    </g>
</svg>