<?xml version="1.0" encoding="UTF-8"?>
<svg width="60px" height="60px" viewBox="0 0 60 60" version="1.1" xmlns="http://www.w3.org/2000/svg" xmlns:xlink="http://www.w3.org/1999/xlink">
    <title>椭圆形</title>
    <g id="扩展程序" stroke="none" stroke-width="1" fill="none" fill-rule="evenodd">
        <g id="起始页" transform="translate(-158.000000, -120.000000)">
            <g id="编组" transform="translate(158.000000, 120.000000)">
                <circle id="椭圆形" fill="#297AFF" cx="30" cy="30" r="30"></circle>
                <g transform="translate(12.000000, 12.000000)" fill="#FFFFFF" id="双脸">
                    <path d="M5.6,2 C9.7314211,2 13.4971145,3.56586649 16.3359703,6.13648961 C15.8164321,6.75029762 15.3371767,7.39913926 14.9013691,8.07851611 C12.8757097,6.17799533 10.2666654,4.89097327 7.37168605,4.51435185 L4.43606216,16.2611004 C6.54793607,17.30675 8,19.4838011 8,22 L8.00068242,31.3887854 C14.2624095,30.2735503 19.0411215,24.8731168 19.1961178,18.3281858 L19.2,18 C19.2,16.0063925 19.7208793,14.1344428 20.6339693,12.5128196 C21.259171,14.2246404 21.6,16.0725177 21.6,18 C21.6,26.7313589 14.606099,33.8292047 5.91487067,33.9969636 L5.6,34 L5.6,22 C5.6,19.8578046 3.91603153,18.1089211 1.79964034,18.0048953 L1.6,18 L2.19353888,15.6271575 L2.444,14.626 L5.6,2 Z M30.4,2 L33.556,14.626 L33.8064611,15.6271575 L34.4,18 L34.2003597,18.0048953 C32.0839685,18.1089211 30.4,19.8578046 30.4,22 L30.4,22 L30.4,34 L30.0851293,33.9969636 C26.0774104,33.9196062 22.4306006,32.3686785 19.6647868,29.8640867 C20.1835679,29.2497024 20.6628233,28.6008607 21.0978308,27.9212318 C22.976434,29.6833188 25.3557092,30.9179497 27.9993176,31.3887854 L27.9993176,31.3887854 L28,22 C28,19.4838011 29.4520639,17.30675 31.5639378,16.2611004 L31.5639378,16.2611004 L28.6283139,4.51435185 C22.0550738,5.36949545 16.9559621,10.9181802 16.8035112,17.6878741 L16.8035112,17.6878741 L16.8,18 L16.7930929,18.3970611 C16.7288039,20.2420859 16.2182131,21.9736302 15.3655073,23.4866524 C14.740829,21.7753596 14.4,19.9274823 14.4,18 C14.4,9.163444 21.563444,2 30.4,2 L30.4,2 Z" id="形状结合"></path>
                </g>
            </g>
        </g>
    </g>
</svg>